<svg xmlns="http://www.w3.org/2000/svg" width="48" height="48"><path fill="#37474f" d="M18.13 7 18 15H5v-4.5C5 8.57 6.57 7 8.5 7h9.63z"/><path fill="#00e676" d="m30 5.63 1.86-3.12a1 1 0 0 0-1.72-1.02l-1.95 3.27a11.95 11.95 0 0 0-8.39 0L17.86 1.5a1 1 0 1 0-1.72 1.02l1.85 3.12A12 12 0 0 0 12.05 15h23.9a12 12 0 0 0-5.94-9.37z"/><circle cx="19" cy="10" r="1" fill="#fff"/><circle cx="29" cy="10" r="1" fill="#fff"/><path fill="#448aff" d="M39.5 14h-31A3.5 3.5 0 0 1 5 10.5v27A3.5 3.5 0 0 0 8.5 41H43V17.5a3.5 3.5 0 0 0-3.5-3.5z"/><path fill="#37474f" d="M39.5 21H38v25.88h1.5c1.93 0 3.5-1.57 3.5-3.5V17.5a3.5 3.5 0 0 1-3.5 3.5zM33.77 44.06l-7.45-15.82a3.99 3.99 0 0 0-1.32-7.1V19a1 1 0 0 0-2 0v2.14a4 4 0 0 0-1.32 7.1l-7.44 15.81c-.43.9-.2 2.03.62 2.6a2 2 0 0 0 2.95-.8l4.64-9.87a1.71 1.71 0 0 1 3.1 0l4.64 9.87a2 2 0 0 0 3.01.75c.78-.58.98-1.66.57-2.54zM24 23a2 2 0 1 1 0 4 2 2 0 0 1 0-4z"/></svg>