<svg width="48" height="24" xmlns="http://www.w3.org/2000/svg"><linearGradient id="a" x1="21.17" x2="25.87" y1="10.03" y2="33.26" gradientUnits="userSpaceOnUse" gradientTransform="translate(0 -12)"><stop offset="0" stop-color="#00b3ba"/><stop offset="1" stop-color="#00979c"/></linearGradient><path fill="url(#a)" d="M36 24c-5.02 0-9.43-3.86-12-7.71C21.43 20.14 17.02 24 12 24 5.38 24 0 18.62 0 12S5.38 0 12 0c5.93 0 9.88 4.45 12 7.75C26.12 4.46 30.07 0 36 0c6.62 0 12 5.38 12 12s-5.38 12-12 12Zm-9.82-11.96C27.83 15.6 32 20 36 20a8 8 0 0 0 0-16c-5.42 0-8.8 5.95-9.82 8.04zM12 4a8 8 0 0 0 0 16c4.02 0 8.2-4.42 9.82-7.96C20.84 10.02 17.44 4 12 4Zm4 8.5v-1a.5.5 0 0 0-.5-.5h-7a.5.5 0 0 0-.5.5v1c0 .28.22.5.5.5h7a.5.5 0 0 0 .5-.5ZM39.5 11H37V8.5a.5.5 0 0 0-.5-.5h-1a.5.5 0 0 0-.5.5V11h-2.5a.5.5 0 0 0-.5.5v1c0 .28.22.5.5.5H35v2.5c0 .28.22.5.5.5h1a.5.5 0 0 0 .5-.5V13h2.5a.5.5 0 0 0 .5-.5v-1a.5.5 0 0 0-.5-.5Z" style="fill:url(#a)"/></svg>