<svg width="70" height="78.51" viewBox="0 0 18.53 20.77" xmlns="http://www.w3.org/2000/svg"><path style="fill:#7a7aff;fill-opacity:1;stroke:none;stroke-width:.040536" d="M8.86 0C8.13.12 7.4.77 6.75 1.12 5.23 1.98 3.7 2.85 2.2 3.74c-.7.41-1.68.77-2.03 1.55-.27.6-.16 1.35-.16 1.99v6.68c0 .61-.04 1.18.3 1.7.31.49.88.73 1.37 1.01l2.6 1.49c1.06.64 2.14 1.25 3.24 1.88.69.4 1.3.83 2.14.68.72-.14 1.47-.77 2.1-1.12l4.46-2.58c.74-.41 1.75-.8 2.12-1.6.27-.59.15-1.34.15-2V6.74c0-.6.06-1.18-.3-1.68-.3-.5-.91-.77-1.4-1.04l-2.67-1.54L10.96.65C10.3.26 9.7-.15 8.86 0m5.72 7.31-2.68 1.5a2.8 2.8 0 0 0-.77-.87c-2.42-1.92-6 .87-4.66 3.67a3.13 3.13 0 0 0 2.05 1.74c.62.15 1.23.1 1.8-.11.7-.26 1.18-.77 1.62-1.35.64.35 1.27.74 1.9 1.1.15.1.61.26.68.46.04.14-.16.33-.22.43a6.22 6.22 0 0 1-9.62.57C1.92 11.26 3.02 6 7.16 4.57a6.28 6.28 0 0 1 6.08 1.07c.5.43 1.15 1.04 1.34 1.69m.15 2.02v.69h.66v.64h-.68v.69h-.68v-.69h-.68v-.66h.68v-.69h.68m2.56 0v.7h.7v.64h-.7v.68h-.69v-.68h-.69v-.65h.7v-.69Z"/></svg>