<svg width="60.91" height="71.78" viewBox="0 0 16.12 18.99" xmlns="http://www.w3.org/2000/svg"><path style="fill:#833e89;stroke:none;stroke-width:.00922787" d="M169.9 150.72c-.37.05-.65.23-.97.43l-1 .6c-1.3.8-2.61 1.6-3.94 2.38l-.84.51c-.19.12-.4.22-.56.35-.2.17-.36.4-.46.63-.12.3-.12.59-.12.9v6.96c0 .52-.05 1.03.22 1.5.27.48.78.7 1.23.98l2.47 1.49 2.69 1.62c.3.18.6.43.92.54.24.09.5.1.75.07.32-.04.56-.2.83-.37l1.02-.62c1.36-.8 2.7-1.63 4.06-2.45l.77-.47c.21-.12.44-.24.62-.4.18-.16.31-.37.4-.58.13-.3.13-.59.13-.9v-6.97c0-.5.05-1.01-.2-1.47-.29-.49-.79-.71-1.25-1l-2.45-1.48c-.92-.56-1.85-1.1-2.77-1.67-.48-.3-.95-.66-1.55-.58m4.8 6.68-1.55.94-.5.3-.26.15a2.89 2.89 0 0 0-.9-.9 2.71 2.71 0 0 0-3.7.9 2.76 2.76 0 0 0-.36.96 2.72 2.72 0 0 0 .4 1.93c.22.34.52.62.86.84a2.62 2.62 0 0 0 3.13-.24c.16-.13.3-.29.43-.45.03-.05.1-.19.15-.2.04 0 .1.05.13.07l.34.2 1.32.8.38.23c.04.02.13.05.12.1 0 .07-.1.16-.13.22a5.62 5.62 0 0 1-.45.57 5.4 5.4 0 0 1-2.76 1.66c-2.41.6-5-.64-6.1-2.88a5.42 5.42 0 0 1-.51-1.7c-.3-2.3.94-4.57 3-5.58a5.27 5.27 0 0 1 1.58-.49 5.44 5.44 0 0 1 4.46 1.42c.26.24.48.5.68.77.08.11.2.25.24.38m.06.77v.5c0 .04-.02.13.01.16.05.05.23.02.3.02h.75c.06 0 .23.03.27-.01.03-.04.02-.13.02-.17v-.5h.47l.18.01.02.17v.5h.67v.68h-.67v1.35h.67v.68h-.67v.5l-.02.17H176.11v-.48l-.02-.17-.1-.02h-1.23v.68h-.67v-.68h-.67v-.68h.67v-1.35h-.67v-.68h.67v-.68h.67m0 1.36v1.35h1.34c.03-.04 0-.22 0-.27v-1c0-.02.01-.06-.01-.08h-.39z" transform="translate(-162 -150.7)"/></svg>