<svg width="48" height="92.16" viewBox="0 0 2.88 5.53" version="1.1" id="svg9" xmlns="http://www.w3.org/2000/svg"><defs id="defs1"><style id="style1">.cls-2{fill:#fed049}.cls-6{fill:#f6b445}</style></defs><g id="Tool" transform="translate(-1.38) scale(.1152)"><path d="M37 5h-8V2a2 2 0 0 1 2-2h4a2 2 0 0 1 2 2z" id="path1" style="fill:#d0d7df"/><path class="cls-2" id="rect1" d="M29 8h8v32h-8z"/><path id="rect2" style="fill:#49aaee" d="M29 5h8v3h-8z"/><path id="polygon2" style="fill:#fde0ba" d="m37 40-4 8-4-8z"/><path d="M34.72 44.55a2.97 2.97 0 0 0-3.44 0L33 48Z" id="path2" style="fill:#4c6681"/><path class="cls-6" id="rect3" d="M35 8h2v32h-2z"/><path id="rect4" style="fill:#3398d6" d="M35 5h2v3h-2z"/><path class="cls-2" d="M14 0a2 2 0 0 0-2 2v44a2 2 0 0 0 2 2h11V0Z" id="path4"/><path class="cls-6" id="rect5" d="M17 23h8v2h-8z"/><path class="cls-6" id="rect6" d="M20 15h5v2h-5z"/><path class="cls-6" id="rect7" d="M17 7h8v2h-8z"/><path class="cls-6" id="rect8" d="M20 31h5v2h-5z"/><path class="cls-6" id="rect9" d="M17 39h8v2h-8z"/></g></svg>