<svg width="70" height="108.85" viewBox="0 0 2.8 4.35" xmlns="http://www.w3.org/2000/svg"><defs><linearGradient id="a" x1="17.25" y1="-335.6" x2="14.97" y2="-309.99" gradientTransform="matrix(1 0 0 -1 0 -306)" gradientUnits="userSpaceOnUse"><stop offset="0" stop-color="#fff" stop-opacity="0"/><stop offset=".01" stop-color="#f7f6f8" stop-opacity=".04"/><stop offset=".09" stop-color="#aa9cb3" stop-opacity=".39"/><stop offset=".2" stop-color="#6f567e" stop-opacity=".66"/><stop offset=".32" stop-color="#452459" stop-opacity=".86"/><stop offset=".5" stop-color="#2d0843" stop-opacity=".97"/><stop offset="1" stop-color="#26003d"/></linearGradient></defs><path d="M1.68 1.03c.32.7 1.19 1 1.11 1.93-.09 1.1-.86 1.37-1.3 1.39A1.37 1.37 0 0 1 .05 3.19C-.21 2.03.88.25 1.5 0a2.35 2.35 0 0 0 .17 1.03Zm-.03 2.93a.07.07 0 0 0 0-.05c-.1-.17-.9-.26-1.08-.28a1.29 1.29 0 0 0 .26.2 1.2 1.2 0 0 0 .43.17c.13.02.37.03.4-.04Z" style="fill:#7c648f;stroke-width:.155513"/><g style="opacity:.25"><path d="M18.25 10.62c4.47 4.82 6.44 4.98 6.24 10.48-.25 6.47-4.55 8.19-7.06 8.42-4.2.55-7.5-1.53-8.36-5.69-1.76-6.77 3.9-17.8 7.57-19.47a15.32 15.32 0 0 0 1.62 6.24z" style="fill:#26003d" transform="matrix(.15551 0 0 .15551 -1.09 -.31)"/></g><g style="opacity:.75"><path d="M17.39 9.92C20.37 14 24.32 13.7 25 19.64c.1 6.92-3.6 9.28-6.24 9.95-4.5 1.28-8.51-.65-10.1-5-3.03-7 2.66-18.52 6.32-20.92a15.08 15.08 0 0 0 2.37 6.24z" style="fill:url(#a)" transform="matrix(.15551 0 0 .15551 -1.09 -.31)"/></g></svg>