<svg width="70" height="59.36" viewBox="0 0 8.75 7.42" xmlns="http://www.w3.org/2000/svg"><path style="fill:#6b6551;stroke:#999;stroke-width:.185535;stroke-linejoin:round" d="m1.33 2.69.28-.1V.66c0 2.5 5.38 1.58 5.38-.56v2.5C6.8 5.95 3.56 6.32 1.42 3.9Z"/><path style="fill:#333;stroke:#000;stroke-width:.185535" d="M1.69 3.43a.93.65 45 1 1 0-.13z"/><g style="fill:#fff;stroke:#000;stroke-width:2" transform="matrix(.09277 0 0 .09277 -.16 -.74)"><circle cx="30" cy="38" r="7"/><circle cx="50" cy="38" r="10"/></g><g style="fill:#000;stroke:none" transform="matrix(.09277 0 0 .09277 -.16 -.74)"><path d="M40 57c15 0 16-3 17-8 1 7 0 12-17 8z"/><circle cx="32" cy="38" r="4"/><circle cx="52" cy="38" r="6"/><path d="M96 72v16L83 76c-5-4 6-15 13-4z"/></g><path style="fill:#de872b;stroke:#653a0a;stroke-width:.185535" d="m5.13 4.17-.18.28 1.57 1.02.28-.55z"/><path style="fill:#bbb;stroke:#999;stroke-width:.185535" d="m6.66 5.56.28-.55.79.46-.37.47z"/></svg>