<svg width="800" height="800" viewBox="0 0 24 24" xmlns="http://www.w3.org/2000/svg"><path d="M12.78 5.94s-1.97-.13-5.33.92C4.03 7.93 2.1 9.45 2.1 9.45s5.1-2.85 10.85-3zm7.35 3.1.26-.02s-1.47-1.78-4.28-2.65c1.58.65 2.95 1.5 4.02 2.67zm.42.74c.04-.07.17.22.26.34 0 .02.01.03-.04.02 0-.02-.02-.03-.02-.03s-.13-.08-.17-.14c-.04-.05-.05-.15-.03-.2zM24 18.26s.3-3.58-5.31-4.4a18.28 18.28 0 0 0-2.53-.2c-4.5.07-4.67-5.19-1.27-5.46 1.4-.11 3.09.65 4.73 1.41 0 .2 0 .39.13.56.14.16.65.34.82.44.16.1.69.43 1.01.85.07-.13.66-.51.66-.51s-.14 0-.47-.12a2.42 2.42 0 0 1-.72-.51c-.01-.02-.02-.06.06-.07.06-.05-.07-.2-.13-.27-.06-.06-.45-.71-.46-.73 0-.01 0-.03-.04-.05-.08-.02-.46.04-.46.04s-.57-.28-.77-.89c0 .1-.1.22 0 .47-.3-.13-.56-.35-.76-.88-.12.3 0 .5 0 .5s-.7-.2-.82-.85c-.13.3 0 .47 0 .47s-1.16-.6-3.07-.61c-1.28-.12-1.55-2.38-1.43-2.76 0 0-1.85-.97-5.5-1.4-3.64-.43-6.62-.07-6.62-.07S7.5 2.92 12.66 5c.18.79.7 2.1 1 2.73-.82.56-1.74 1.09-1.88 2.97-.15 1.88 1.47 3.53 3.47 3.58 1.9.1 3.22.11 4.8.94 1.53.84 2.77 3.4 2.9 5.7.13-1.7-.51-5.38-3.5-6.5 4.18.74 4.55 3.84 4.55 3.84zM12.68 5.66l-.15-.48s-2.48-.44-5.82-.2C3.37 5.2 0 6.37 0 6.37s6.9-1.74 12.68-.72z"/></svg>