<svg width="70" height="71.16" xmlns="http://www.w3.org/2000/svg"><path d="M8.39 0v2.12h3.74V27.3H8.39v2.07h23.55v-7.32h-2.42v4.95h-13.4V2.12h3.74V0Zm38.66 2.22-10.5 27.3h-2.59v2.12h8.3v-2.12h-3.24l2.47-6.42h12.34l2.47 6.42h-3.28v2.12h10.71v-2.12h-2.88L50.34 2.22Zm.66 4.75 5.36 14H42.3ZM0 31.84v6.93h2.43v-4.55h8.64v24.96H7.33v2.08H18.8v-2.08h-3.74V34.22h8.64v4.55h2.38v-6.93zm41.85 2.07V36h3.13l8.6 12.88-8.45 12.34h-3.38v2.07h9.7V61.2h-3.79l7.18-10.52 7.02 10.52h-3.48v2.07H70V61.2h-3.13l-9.3-13.9 7.78-11.32h3.34V33.9h-9.66V36h3.8l-6.48 9.5-6.31-9.5h3.48V33.9zM20.12 41.8v2.07h3.74v25.22h-3.74v2.07h24v-6.52H41.7v4.1H27.9V56.45h9.6v3.7h2.43v-9.81H37.5v3.69h-9.6v-9.86h13.5v4.15h2.42V41.8z" style="stroke-width:.6793"/></svg>