<svg xml:space="preserve" width="48" height="46.99" xmlns="http://www.w3.org/2000/svg"><path style="fill:#afb6bb" d="M342.23 460.8h43.12v37.73h-43.12zM234.44 460.8h43.12v37.73h-43.12zM126.65 460.8h43.12v37.73h-43.12zM8.08 234.44H51.2v43.12H8.08zM8.08 342.23H51.2v43.12H8.08zM460.8 342.23h43.12v43.12H460.8zM460.8 234.44h43.12v43.12H460.8zM460.8 126.65h43.12v43.12H460.8zM342.23 13.47h43.12V51.2h-43.12zM234.44 13.47h43.12V51.2h-43.12zM126.65 13.47h43.12V51.2h-43.12zM8.08 126.65H51.2v43.12H8.08z" transform="translate(0 -.5) scale(.09375)"/><path style="fill:#e7eced" d="M51.2 126.65h32.34v43.12H51.2zM51.2 234.44h32.34v43.12H51.2zM51.2 342.23h32.34v43.12H51.2zM126.65 428.46h43.12v32.34h-43.12zM234.44 428.46h43.12v32.34h-43.12zM342.23 428.46h43.12v32.34h-43.12zM428.46 342.23h32.34v43.12h-32.34zM428.46 234.44h32.34v43.12h-32.34zM428.46 126.65h32.34v43.12h-32.34zM342.23 51.2h43.12v32.34h-43.12zM234.44 51.2h43.12v32.34h-43.12zM126.65 51.2h43.12v32.34h-43.12z" transform="translate(0 -.5) scale(.09375)"/><path style="fill:#595e62;stroke-width:.09375" d="M40.17 35.62v3.03c0 .56-.46 1.01-1.01 1.01H8.84c-.55 0-1-.45-1-1V8.33c0-.56.45-1.01 1-1.01h30.32c.55 0 1 .45 1 1v27.29zm-4.04 0V11.37H11.87v24.25h24.26z"/><path style="fill:#36c63f;stroke-width:.09375" d="M11.87 11.37h24.25v24.25H11.87z"/><path style="fill:#00ab4e;stroke-width:.09375" d="M16.3 11.37h-4.43v24.25h24.26V31.2a30.35 30.35 0 0 1-19.84-19.83Z"/><path style="fill:#44494c;stroke-width:.09375" d="M11.87 35.62V11.37H24V7.33H8.84c-.55 0-1 .45-1 1v30.32c0 .56.45 1.01 1 1.01H24v-4.04H11.87Z"/><path style="fill:#fff" d="M180.55 161.68h150.91v16.17H180.55zM180.55 237.14h150.91v16.17H180.55zM180.55 199.41h26.95v16.17h-26.95zM180.55 334.15h26.95v16.17h-26.95zM223.66 334.15h26.95v16.17h-26.95zM299.12 334.15h26.95v16.17h-26.95zM239.83 199.41h91.62v16.17h-91.62z" transform="translate(0 -.5) scale(.09375)"/><path d="M11.12 36.38h25.76V10.6H11.12Zm1.51-24.25h22.74v22.73H12.63Z" style="stroke-width:.09375"/><path d="M48 16.17V10.6h-7.07V8.34c0-.98-.8-1.77-1.77-1.77h-2.28V0h-5.55v6.57h-4.55V0h-5.56v6.57h-4.55V0h-5.55v6.57H8.84c-.97 0-1.77.8-1.77 1.77v2.27H0v5.56h7.07v4.55H0v5.55h7.07v4.55H0v5.56h7.07v2.27c0 .98.8 1.77 1.77 1.77h2.28V47h5.55v-6.57h4.55V47h5.56v-6.57h4.55V47h5.55v-6.57h2.28c.97 0 1.77-.8 1.77-1.77v-2.27H48v-5.56h-7.07v-4.55H48v-5.55h-7.07v-4.55H48Zm-7.07-4.04h1.51v2.52h-1.51zm5.55 2.52h-2.52v-2.52h2.52zm-13.64-9.6h2.53v1.52h-2.53Zm2.53-3.53v2.02h-2.53V1.52ZM22.74 5.05h2.52v1.52h-2.52Zm2.52-3.53v2.02h-2.52V1.52ZM12.63 5.05h2.53v1.52h-2.53Zm2.53-3.53v2.02h-2.53V1.52ZM7.07 14.65H5.56v-2.52h1.51v2.52zm-5.55-2.52h2.52v2.52H1.52Zm5.55 12.63H5.56v-2.53h1.51v2.53zm-5.55-2.53h2.52v2.53H1.52Zm5.55 12.63H5.56v-2.52h1.51v2.52zm-5.55-2.52h2.52v2.52H1.52Zm13.64 9.6h-2.53v-1.52h2.53zm-2.53 3.53v-2.02h2.53v2.02zm12.63-3.53h-2.52v-1.52h2.52zm-2.52 3.53v-2.02h2.52v2.02zm12.63-3.53h-2.53v-1.52h2.53zm-2.53 3.53v-2.02h2.53v2.02zm8.09-13.13h1.51v2.52h-1.51zm5.55 2.52h-2.52v-2.52h2.52Zm-5.55-12.63h1.51v2.53h-1.51zm5.55 2.53h-2.52v-2.53h2.52zm-7.07 13.9c0 .13-.12.25-.25.25H8.84a.26.26 0 0 1-.25-.26V8.34c0-.14.12-.26.25-.26h30.32c.13 0 .25.12.25.26z" style="stroke-width:.09375"/></svg>