<svg height="48.01" width="48" viewBox="0 0 23.56 23.56" xml:space="preserve" xmlns="http://www.w3.org/2000/svg"><path style="fill:#fff;stroke-width:.0600099" d="M21.6 1.31h-9.5c-.37 0-.66.3-.66.66v7.25c0 .36.29.66.65.66h9.5c.36 0 .66-.3.66-.66V1.97c0-.36-.3-.66-.66-.66z"/><path style="fill:#ffc10d;stroke-width:.0600099" d="M12.57 8.6V2.6c0-.05.04-.1.1-.1h8.35c.05 0 .1.05.1.1V8.6a.1.1 0 0 1-.1.1h-8.36a.1.1 0 0 1-.1-.1z"/><path style="fill:#194f82" d="M229.2 136.6a10.91 10.91 0 0 1-10.92-10.93v-15.9a10.91 10.91 0 1 1 21.85 0v15.9c0 6.08-4.98 10.93-10.93 10.93zM263.53 136.6a10.91 10.91 0 0 1-10.92-10.93V93.54a10.91 10.91 0 1 1 21.85 0v32.13a10.95 10.95 0 0 1-10.93 10.93zM297.86 136.6a10.91 10.91 0 0 1-10.93-10.93V77.25c0-6 4.85-10.92 10.93-10.92s10.92 4.85 10.92 10.92v48.42a10.95 10.95 0 0 1-10.92 10.93zM332.25 136.6a10.91 10.91 0 0 1-10.92-10.93V61.03c0-6.02 4.84-10.93 10.92-10.93s10.93 4.85 10.93 10.93v64.64a10.95 10.95 0 0 1-10.93 10.93z" transform="matrix(.06001 0 0 .06001 0 0)"/><path style="fill:#194f82" d="M359.86.07H201.54a32.75 32.75 0 0 0-32.72 32.7v120.9a32.75 32.75 0 0 0 32.72 32.7h29.67l-27.74 116.24a10.88 10.88 0 0 0 8.02 13.12 11 11 0 0 0 13.12-8.01l28.97-121.34h16.16v97.35a10.91 10.91 0 1 0 21.85 0v-97.35h16.16l28.96 121.34a10.94 10.94 0 0 0 21.27-5.1l-27.73-116.24h29.6a32.75 32.75 0 0 0 32.72-32.71V32.77A32.75 32.75 0 0 0 359.86.08zm10.92 153.6c0 6-4.85 10.92-10.92 10.92H201.54a10.91 10.91 0 0 1-10.93-10.93V32.78c0-6.02 4.85-10.93 10.93-10.93h158.31c6.02 0 10.93 4.85 10.93 10.93v120.89z" transform="matrix(.06001 0 0 .06001 0 0)"/><path style="fill:#ffc10d;stroke-width:.0600099" d="M2.34 22.25h1.45v-3.49a.65.65 0 1 1 1.3 0v3.5h1.46v-5.7H2.34Z"/><path style="fill:#56ace0" d="M47.22 48.61A26.78 26.78 0 0 0 74 75.38a26.74 26.74 0 0 0 26.76-26.77A26.74 26.74 0 0 0 74 21.85a26.78 26.78 0 0 0-26.77 26.76zM126.22 153.92a20 20 0 0 0-18.36-19.9l-23.85 52.16c-3.88 8.47-15.9 8.47-19.85 0l-23.85-52.17a20 20 0 0 0-18.36 19.91V254h104.33V153.92Z" transform="matrix(.06001 0 0 .06001 0 0)"/><path style="fill:#194f82" d="M106.18 112.1h-5.3c-4.27 0-8.14 2.45-9.89 6.33l-16.94 36.91-16.93-36.9a10.8 10.8 0 0 0-9.9-6.34h-5.3A41.83 41.83 0 0 0 .03 153.92v110.94c0 6 4.85 10.92 10.93 10.92h6.2v105.9c0 6 4.85 10.92 10.93 10.92h91.93c6 0 10.92-4.85 10.92-10.93V275.78h6.2c6.02 0 10.93-4.85 10.93-10.92V153.92a41.95 41.95 0 0 0-41.89-41.82zm2.85 258.71H84.85V312.7c0-6-4.85-10.92-10.93-10.92A10.87 10.87 0 0 0 63 312.69v58.12H38.95v-94.96h70.08v94.96zM21.82 254V153.92a20 20 0 0 1 18.36-19.9l23.85 52.16c3.88 8.47 15.9 8.47 19.85 0l23.85-52.17a20 20 0 0 1 18.36 19.91V254zM73.99 97.16a48.57 48.57 0 0 0 48.55-48.54A48.63 48.63 0 0 0 73.99 0a48.61 48.61 0 0 0-48.55 48.55c0 26.76 21.78 48.61 48.55 48.61zm26.83-48.55a26.79 26.79 0 0 1-53.6 0A26.74 26.74 0 0 1 74 21.85a26.83 26.83 0 0 1 26.83 26.76z" transform="matrix(.06001 0 0 .06001 0 0)"/></svg>