<svg width="70.87" height="54.96" viewBox="0 0 18.75 14.54" xmlns="http://www.w3.org/2000/svg"><path style="fill:#999;stroke:none;stroke-width:.0390487" d="M234.84 191.68h3.2v-1.4c0-.17-.04-.43.08-.55.22-.22.91-.2 1.21-.26.23-.05.76-.3.96-.13.15.11.22.34.3.5.23.4.43.81.65 1.21.1.19.2.49.4.58.29.14.78.05 1.09.05h2.46l-2.15-3.71c2.19-1.23 3.47-3.9 2.44-6.29a6.15 6.15 0 0 0-1.97-2.37c-3.46-2.63-9.04-2.79-12.81-.77-2.1 1.12-4.02 3.2-3.53 5.76.47 2.49 2.87 4.02 5.1 4.79.56.2 1.15.34 1.75.45.2.03.58.03.74.19.12.13.08.38.08.54v1.4m6.6-4.72v-.04a3.12 3.12 0 0 0 2.35-1.4c.77-1.24.47-3.07-.79-3.86-.98-.62-2.1-.56-3.2-.56h-4.96v6.72c-2.24-.32-4.98-2.7-3.75-5.11.19-.37.45-.72.75-1.02 1.95-1.91 5.14-2.2 7.72-1.94 1.86.19 4.2.84 4.96 2.76a3.79 3.79 0 0 1-.86 4.13c-.27.26-.7.66-1.09.7-.33.05-.82-.27-1.13-.38m-3.36-1.76v-1.8c.68 0 1.82-.2 2.42.13.56.32.51 1.25-.04 1.55-.62.33-1.7.12-2.38.12m4.57 2.27-.04.04.04-.04m-2.97.7-1.64.08v-.7c.72 0 1.22-.04 1.64.62m3.16-.5-.04.03.04-.04m.16.24-.04.04.04-.04m-3.12.55-.04.03.04-.03m.23.43-.04.03.04-.03m.04.07-.04.04.04-.04m.04.08-.04.04z" transform="translate(-227.1 -177.16)"/></svg>