<svg aria-label="Ruby" width="70" height="69.89" xmlns="http://www.w3.org/2000/svg"><path d="m65.8 66.32 4.2-51.9-16.22 31.7L14.3 69.9c16.29-1.15 34.48-2.4 51.5-3.56Z" fill="#a00403" style="stroke-width:.201404"/><path d="M68.96 22.35 48.14 6.05 42.7 24.76c22.11 1.88 18.48-1.94 26.26-2.42ZM22.36 43.1l27.39 8.66-7.05-26.99ZM4.43 46.93c8.86 28 11.08 34.03 17.93-3.83L4.23 47.33ZM39.27 0l19.54.2-10.67 5.84A220.06 220.06 0 0 1 39.27 0ZM.81 35.85 0 55.79l4.63-8.66ZM43.7 3.42c5.23 5.24-.2 17.93-10.68 28.2-10.47 10.27-23.77 16.72-29 11.48-5.04-5.21.14-18.13 10.64-28.4S38.68-1.8 43.71 3.42Z" fill="#b11205" style="stroke-width:.201404"/><path d="m22.36 43.1 26.78 8.66C39.48 60.82 21.45 69.18 14.3 69.9Z" fill="#9f0d02" style="stroke-width:.201404"/><path d="m42.7 24.77 6.64 26.79c8.06-8.46 15.31-17.72 18.94-29Zm23.1 41.55-4.17-30.67-12.29 15.9Z" fill="#891102" style="stroke-width:.201404"/><path d="M68.48 22.76C71.1 14.5 71.7 2.42 58.8.2L48.14 6.04Z" fill="#aa1401" style="stroke-width:.201404"/><path d="M0 55.79c.4 13.7 10.07 13.9 14.3 14.1L4.43 47.13Z" fill="#9e1209" style="stroke-width:.201404"/><path d="m22.36 43.1 10.87 20.75a61.93 61.93 0 0 0 15.91-12.3Z" fill="#900e04" style="stroke-width:.201404"/><path d="M4.43 47.13 2.82 65.46c2.82 4.02 6.85 4.23 11.08 4.02-3.02-7.45-9.07-22.55-9.47-22.35Z" fill="#8b1104" style="stroke-width:.201404"/></svg>