<svg width="70.87" height="70.83" viewBox="0 0 18.75 18.74" xmlns="http://www.w3.org/2000/svg"><path style="fill:#000;stroke:none;stroke-width:.047338" d="M216.47 167.17c-.25.14-.36.82-.68.82-.4 0-.59-.82-1.03-.68-.38.12-.24 1-.67 1-.37.02-.65-.63-1.03-.5-.44.16-.07.96-.49 1.15-.36.16-.76-.48-1.12-.28-.4.22.07.93-.26 1.2-.32.26-.82-.28-1.15-.06-.4.27.26.95-.04 1.26-.29.3-.8-.11-1.1.14-.4.33.4.88.18 1.24-.22.36-.88.05-1.09.4-.25.41.54.73.47 1.12-.08.43-.93.24-1.02.67-.09.43.64.58.7.94.05.44-.9.46-.9.9 0 .45.83.42.88.81.06.36-.63.58-.68.94-.08.5.94.33 1.02.76.06.39-.65.66-.49 1.08.17.4.94.06 1.12.44.18.37-.48.79-.25 1.17.24.4.93-.15 1.2.25.21.33-.36.9 0 1.2.32.26.9-.35 1.18-.01.24.29-.14.96.23 1.16.37.2.84-.5 1.17-.27.32.23.03 1 .44 1.13.4.13.73-.64 1.09-.5.38.16.22.97.65 1.03.43.06.59-.69 1-.69.4 0 .38.88.85.86.43-.02.4-.82.8-.86.41-.05.58.82 1.04.68.4-.12.22-.9.62-1 .4-.12.7.68 1.12.47.38-.2.05-.96.44-1.14.35-.16.76.49 1.13.29.4-.22-.1-1 .3-1.22.32-.19.87.35 1.15.03.29-.34-.33-.95.03-1.23.3-.23 1 .18 1.15-.23.14-.38-.49-.81-.25-1.16.22-.32 1 0 1.1-.44.1-.4-.62-.72-.47-1.08.15-.38.97-.22 1-.67.04-.42-.68-.56-.67-.95 0-.42.86-.4.86-.85 0-.45-.86-.43-.86-.85 0-.4.76-.56.67-1-.09-.4-.85-.25-1-.62-.15-.4.7-.74.45-1.16-.2-.35-.88-.04-1.09-.4-.2-.34.4-.75.26-1.13-.16-.42-.85.01-1.15-.22-.37-.29.29-.93-.04-1.26-.26-.26-.79.18-1.1.07-.47-.15.07-1.01-.34-1.24-.36-.2-.76.44-1.12.27-.4-.18-.07-.91-.45-1.11-.37-.2-.71.5-1.07.48-.44-.02-.28-.9-.67-1.02-.43-.13-.64.69-1.03.69-.4 0-.46-1.14-.99-.82m.04 1.57c.7-.12.9 1 .19 1.11-.73.12-.92-.99-.2-1.1m7.01 8.21h-.8c0 .33.03.7-.14 1-.25.44-.99.56-1.37.22-.23-.22-.23-.65-.34-.93a2.3 2.3 0 0 0-.9-1.1c.36-.7 1.26-.9 1.37-1.84.13-1.19-.96-2.13-2.03-2.38-.85-.2-1.83-.08-2.7-.08h-5.11c.62-.89 1.7-1.5 2.7-1.88.3-.12.8-.35 1.13-.28.5.1.68.96 1.23 1 .58.04.85-.9 1.38-1 .38-.08.93.2 1.27.33a6.81 6.81 0 0 1 2.76 2.02c.2.25.5.58.6.9.18.63-.86 1.3-.58 1.94.24.54 1.08.47 1.46.85.2.21.07.95.07 1.23m-13.68-3.15c.72-.14.91 1 .19 1.1-.71.12-.9-.97-.19-1.1m13.26.05c.72-.2 1.05.87.33 1.07-.68.19-1.02-.88-.33-1.07m-13.12 4.48c-.1-.73-.5-1.84-.2-2.56.23-.53 1.22-.36 1.45-.95.12-.3-.16-.64-.2-.94l.94.07.05.97v2.41l-.05.92-.52.08h-1.47m5.07-3.08c0-.29-.13-1.02.05-1.25.12-.15.53-.08.7-.08.65 0 1.7-.2 2.23.26.64.56-.15 1.06-.71 1.07h-2.27m7.15 5.25c-.15.22-.4.65-.67.72-.47.13-1.04-.43-1.5-.14-.55.34-.18 1.29-.64 1.65-.25.2-.68.27-.98.36-1.08.3-2.27.29-3.36.04-.37-.08-.97-.19-1.26-.45-.42-.38-.06-1.27-.59-1.62-.43-.28-1 .2-1.46.13-.26-.04-.52-.46-.62-.69h5.68v-2.13h-1.75v-1.27c.76 0 2.07-.27 2.63.38.74.84.22 2.2 1.3 2.9.3.18.7.12 1.04.12h2.18m-9.76 1.16c.72-.03.77 1.1.05 1.13-.73.03-.78-1.1-.05-1.13m8.2.04c.7-.13.93.95.23 1.1-.71.16-.96-.96-.24-1.1z" transform="translate(-207.25 -167.11)"/></svg>