<svg width="48mm" height="200.43" viewBox="0 0 48 53.03" xml:space="preserve" xmlns="http://www.w3.org/2000/svg"><path style="fill:#82d3f8" d="M-12.04 160.62a4.34 4.34 0 0 1-1.32-.4c-.1-.1.13-.1.5 0 1.61.45 5.96.48 7.78.05 1-.24 1.87-.38 1.93-.32.06.06-.72.3-1.74.54-1.98.45-5.24.5-7.15.13zm-4.83-1.74a18.26 18.26 0 0 1-9.1-10.75 14.04 14.04 0 0 1-.64-2.65c.01-.32.25.31.54 1.4a18.23 18.23 0 0 0 11.62 12.85c.5.2.73.36.49.37a14.7 14.7 0 0 1-2.9-1.22zm14.99.48c.58-.27 8.02-4.46 16.53-9.3l64.03-36.45a1538 1538 0 0 0 17.2-9.86c.36-.25 14-8.04 30.3-17.32 28.04-15.96 32.68-18.6 45.1-25.62 6.37-3.59 8.11-4.8 9.7-6.73A15.24 15.24 0 0 0 184.5 44a14.8 14.8 0 0 0-4.76-11.41c-1.98-1.96-2.72-2.39-48.17-28.24-25.38-14.43-65.32-37.16-88.75-50.5A5374.72 5374.72 0 0 0-1.34-71.16a19.07 19.07 0 0 0-12.85-.77 18.6 18.6 0 0 0-11.58 11.78l-.72 2.12-.13 101.46-.14 101.47-.06-100.62C-26.9-68.6-27.08-58.3-24.86-62.9c.99-2.05 1.57-2.85 3.35-4.63 3.76-3.73 7.04-5.2 12.1-5.4 4.73-.18 6.4.37 13.68 4.53l126 71.74c47.9 27.26 47.09 26.79 48.63 27.98.76.59 1.92 1.77 2.56 2.63a15.6 15.6 0 0 1 3.32 10.01c0 4.63-1.46 8.12-4.76 11.38-1.67 1.66-2.79 2.43-6.76 4.67-4.9 2.76-59.01 33.59-100.4 57.18C23.58 145.29.08 158.65-.82 159.1c-.44.23-1.1.48-1.46.57-.36.1-.18-.05.4-.32zm87.7-71.92a9.42 9.42 0 0 1-5.53-5.11l-.68-1.46L79.54 48c-.04-18.08-.01-32.88.07-32.88.29 0 68.13 38.7 68.12 38.86 0 .1-5.33 3.35-11.84 7.23l-27.18 16.26c-8.44 5.05-16 9.46-16.8 9.8-1.74.72-4.3.8-6.08.17z" transform="translate(6.1 16.55) scale(.2268)"/><path style="fill:#6dcbf6" d="M-20.83 155.95c-.33-.42-.32-.43.1-.1.44.34.58.56.36.56-.06 0-.26-.2-.46-.46zm127.3-58.4c0-.06.23-.25.52-.4.3-.16.53-.23.53-.16 0 .08-.24.26-.53.42-.29.15-.53.22-.53.15zm1.85-1.05c0-.07.23-.26.53-.41.29-.16.52-.23.52-.16 0 .08-.23.26-.52.42-.3.16-.53.22-.53.15zm1.85-1.06c0-.07.24-.26.53-.41.29-.16.53-.23.53-.15 0 .07-.24.26-.53.41-.3.16-.53.23-.53.15zm1.85-1.06c0-.07.24-.26.53-.41.3-.16.53-.23.53-.15 0 .07-.24.26-.53.41-.3.16-.53.23-.53.15zm1.85-1.05c0-.08.24-.26.53-.42.3-.16.53-.22.53-.15s-.24.26-.53.41c-.29.16-.53.23-.53.16zm-27.53-5.26a10.02 10.02 0 0 1-7.1-7.97c-.46-2.5-.4-65.22.05-65.4.53-.2 69 38.84 68.91 39.3-.08.48-55.2 33.45-56.65 33.88-1.64.5-3.85.57-5.21.19zm5.57-.8c.8-.34 8.36-4.75 16.8-9.8L135.9 61.2c6.51-3.88 11.84-7.14 11.84-7.23 0-.16-67.83-38.86-68.12-38.86-.08 0-.11 14.8-.07 32.88l.07 32.87.68 1.46a9.18 9.18 0 0 0 3.25 3.94 8.98 8.98 0 0 0 8.37 1zm33.6-.56c0-.07.24-.26.53-.41.3-.16.53-.23.53-.16 0 .08-.24.26-.53.42-.29.16-.53.22-.53.15zm1.86-1.06c0-.07.23-.26.53-.41.29-.16.52-.23.52-.15 0 .07-.23.26-.52.41-.3.16-.53.23-.53.15zm1.85-1.06c0-.07.24-.26.53-.41.29-.16.53-.22.53-.15s-.24.26-.53.41c-.3.16-.53.23-.53.15zm1.85-1.05c0-.08.24-.26.53-.42.3-.16.53-.22.53-.15s-.24.26-.53.42c-.3.15-.53.22-.53.15zm13.5-7.68c0-.07.23-.26.52-.41.3-.16.53-.23.53-.15 0 .07-.24.26-.53.41-.29.16-.53.23-.53.15zm1.85-1.06c0-.07.23-.25.53-.41.29-.16.52-.22.52-.15s-.23.26-.52.41c-.3.16-.53.23-.53.15zm1.85-1.05c0-.08.24-.26.53-.42.29-.15.53-.22.53-.15s-.24.26-.53.42c-.3.15-.53.22-.53.15zm1.85-1.06c0-.07.24-.26.53-.42.3-.15.53-.22.53-.15s-.24.26-.53.42c-.3.15-.53.22-.53.15zm7.94-4.5c0-.07.24-.26.53-.42.29-.15.53-.22.53-.15 0 .08-.24.26-.53.42-.3.16-.53.22-.53.15zm1.85-1.06c0-.07.24-.26.53-.41.29-.16.53-.23.53-.15 0 .07-.24.26-.53.41-.3.16-.53.22-.53.15zm3.7-2.11c0-.08.24-.26.53-.42.3-.16.53-.22.53-.15s-.24.26-.53.41c-.29.16-.53.23-.53.16zm16.14-9.81c.5-.51.96-.93 1.03-.93.08 0-.27.42-.76.93-.5.5-.96.92-1.03.92-.07 0 .27-.41.76-.92zm4.52-8.76c.02-.3.08-.37.16-.16.08.2.07.42-.02.51-.09.09-.15-.07-.14-.35zM-26.57-55.92c0-.43.07-.58.13-.32.07.25.06.61 0 .79-.08.18-.14-.03-.13-.47zm5.1-11.5a7.37 7.37 0 0 1 1.17-1.07c.08 0-.33.48-.9 1.06a7.37 7.37 0 0 1-1.16 1.06c-.08 0 .33-.48.9-1.06zm10.14-5.22c.2-.07.42-.06.51.03.09.08-.07.15-.35.13-.3 0-.37-.07-.16-.16z" transform="translate(6.1 16.55) scale(.2268)"/><path style="fill:#52b4e5" d="M-9.75 160.45c.61-.06 1.63-.06 2.24 0 .62.06.12.1-1.12.1-1.24 0-1.74-.04-1.12-.1zm-3.51-.46c-1.4-.46-.9-.47.93-.02.8.2 1.15.36.79.37-.36 0-1.14-.16-1.72-.35zm8.79-.12c1.05-.29 2.16-.66 2.47-.82.3-.17.62-.24.69-.17.2.2-2.71 1.21-3.95 1.37-.76.1-.5-.02.79-.38zm-12.26-1.2a19.04 19.04 0 0 1-7.4-6.96c-.78-1.32-1.97-4.37-1.96-5.03 0-.25.31.44.69 1.53a15.92 15.92 0 0 0 4.47 7.05 14.23 14.23 0 0 0 4.39 3.23c1.22.6 2.09 1.1 1.93 1.1-.17 0-1.12-.42-2.12-.92zm15.77 0c0-.07.48-.37 1.06-.67.58-.3 1.06-.48 1.06-.4 0 .06-.48.37-1.06.66-.58.3-1.06.48-1.06.41zm2.91-1.58c0-.07.24-.26.53-.41.3-.16.53-.23.53-.16 0 .08-.24.26-.53.42-.29.16-.53.22-.53.15zm1.86-1.06c0-.07.23-.26.52-.41.3-.16.53-.23.53-.15 0 .07-.23.26-.53.41-.29.16-.52.22-.52.15zm1.85-1.06c0-.07.24-.26.53-.41.29-.16.53-.23.53-.15 0 .07-.24.26-.53.41-.3.16-.53.23-.53.15zM21 146.24c0-.07.24-.26.53-.41.3-.16.53-.23.53-.15 0 .07-.24.26-.53.41-.29.16-.53.23-.53.15zm-47.3-.81c0-.44.06-.58.13-.33.06.26.06.62-.01.8-.08.18-.13-.03-.13-.47zm49.16-.25c0-.07.23-.26.52-.41.3-.16.53-.23.53-.15 0 .07-.23.26-.53.41-.29.16-.52.23-.52.15zM-26.5 44.62c0-55 .03-77.47.07-49.91.03 27.55.03 72.55 0 100-.04 27.46-.07 4.92-.07-50.09zm51.2 99.5c0-.07.24-.25.53-.41.29-.16.53-.22.53-.15s-.24.26-.53.41c-.3.16-.53.23-.53.16zm15.34-8.73c0-.07.24-.26.53-.41.3-.16.53-.22.53-.15s-.24.26-.53.41c-.29.16-.53.23-.53.15zm1.86-1.05c0-.08.23-.26.52-.42.3-.16.53-.22.53-.15s-.23.26-.53.42c-.29.15-.52.22-.52.15zm1.85-1.06c0-.08.24-.26.53-.42.29-.15.53-.22.53-.15s-.24.26-.53.42c-.3.15-.53.22-.53.15zm9.79-5.56c0-.07.24-.26.53-.41.29-.16.53-.23.53-.15 0 .07-.24.25-.53.41-.3.16-.53.22-.53.15zm5.55-3.17c0-.08.24-.26.53-.42.3-.15.53-.22.53-.15s-.24.26-.53.42c-.29.15-.53.22-.53.15zm1.86-1.06c0-.07.23-.26.52-.42.3-.15.53-.22.53-.15s-.23.26-.53.42c-.29.15-.52.22-.52.15zm1.85-1.06c0-.07.24-.26.53-.42.29-.15.53-.22.53-.15 0 .08-.24.26-.53.42-.3.15-.53.22-.53.15zm9.79-5.56c0-.07.24-.26.53-.41.29-.16.53-.23.53-.15 0 .07-.24.26-.53.41-.3.16-.53.23-.53.15zm1.85-1.05c0-.08.24-.26.53-.42.29-.16.53-.22.53-.15s-.24.26-.53.41c-.3.16-.53.23-.53.16zm1.85-1.06c0-.08.24-.26.53-.42.3-.15.53-.22.53-.15s-.24.26-.53.42c-.29.15-.53.22-.53.15zm15.35-8.73c0-.08.24-.26.53-.42.29-.16.53-.22.53-.15s-.24.26-.53.41c-.3.16-.53.23-.53.16zm1.85-1.06c0-.08.24-.26.53-.42.29-.15.53-.22.53-.15s-.24.26-.53.42c-.3.15-.53.22-.53.15zm2.76-1.71c.19-.3 1.2-.92 1.2-.73 0 .06-.3.31-.69.56-.38.25-.6.33-.51.17zm-7.99-14.77c.26-.06.68-.06.93 0 .25.07.05.13-.46.13s-.72-.06-.47-.13zm-1.72-.25c.19-.08.48-.08.67 0 .18.07.03.13-.34.13-.36 0-.5-.06-.33-.13zm4.52-.24c.77-.2 1.65-.51 1.95-.67.32-.17.48-.19.38-.03-.21.34-2.47 1.12-3.19 1.1-.3-.01.08-.2.86-.4zm-7.1-.67c-1.29-.77-3.14-2.6-3.6-3.55-.2-.43-.22-.56-.04-.28a13.53 13.53 0 0 0 3.77 3.62c.73.42 1.21.76 1.07.76-.15 0-.69-.25-1.2-.55zm9.8-.35c0-.08.23-.26.52-.42.3-.16.53-.22.53-.15s-.24.26-.53.41c-.29.16-.53.23-.53.16zm1.32-.8c0-.07.24-.26.53-.41.29-.16.53-.23.53-.15 0 .07-.24.26-.53.41-.3.16-.53.22-.53.15zm1.32-.8c0-.06.24-.25.53-.4.29-.16.53-.23.53-.16s-.24.26-.53.42c-.3.15-.53.22-.53.15zm1.32-.79c0-.07.24-.26.53-.41.3-.16.53-.22.53-.15s-.24.26-.53.41c-.29.16-.53.23-.53.15zm1.46-.86c.22-.22 19-11.52 19.84-11.93.18-.09.18-.05 0 .13-.22.22-19 11.51-19.84 11.93-.18.09-.18.04 0-.13zm-19.55-1.28c-.25-.67-.18-.84.13-.3.16.26.23.54.16.6-.07.07-.2-.06-.29-.3zm-.52-1.5c-.1-.33-.15-.9-.14-1.27.02-.39.12-.18.26.51.24 1.24.15 1.79-.12.76zm40.3-9.32c0-.07.25-.26.54-.42.29-.15.53-.22.53-.15 0 .08-.24.26-.53.42-.3.15-.53.22-.53.15zm1.33-.8c0-.07.24-.25.53-.4.3-.17.53-.23.53-.16s-.24.26-.53.42c-.29.15-.53.22-.53.15zm1.32-.79c0-.07.24-.26.53-.41.3-.16.53-.23.53-.15 0 .07-.24.26-.53.41-.29.16-.53.23-.53.15zm1.33-.8c0-.06.24-.25.53-.4.29-.16.53-.23.53-.16s-.24.26-.53.42c-.3.15-.53.22-.53.15zm1.45-.86a886.3 886.3 0 0 1 17.2-10.34c.18-.09.18-.04 0 .13-.22.22-16.36 9.93-17.2 10.35-.17.08-.17.04 0-.14zm17.6-10.5c0-.08.24-.27.53-.42.29-.16.53-.23.53-.15 0 .07-.24.25-.53.41-.3.16-.53.22-.53.15zm1.32-.8c0-.07.24-.26.53-.42.3-.15.53-.22.53-.15s-.24.26-.53.42c-.3.15-.53.22-.53.15zm34.8-.95c.26-.29.53-.53.6-.53.08 0-.08.24-.34.53-.27.3-.54.53-.61.53-.08 0 .08-.24.34-.53zm-33.48.15c0-.07.24-.26.53-.41.3-.16.53-.23.53-.15 0 .07-.24.26-.53.41-.29.16-.53.23-.53.15zm1.33-.77c0-.06.41-.36.92-.66.82-.49 1.28-1.36.71-1.36-.11 0-.44-.19-.72-.41-.46-.36-.42-.36.34 0 1.17.57 1.1 1.23-.2 1.96-.58.33-1.05.54-1.05.47zm34.26-1.5c.26-.28.54-.52.61-.52.07 0-.08.24-.35.53-.26.29-.53.53-.6.53-.08 0 .08-.24.34-.53zm-34.86-1.73c-.99-.54-.93-.76.07-.25.43.23.8.47.8.54 0 .17-.04.16-.87-.3zm-1.85-1.06c-.99-.54-.93-.76.06-.25.44.23.8.47.8.54 0 .17-.03.16-.86-.3zm-1.85-1.06c-1-.54-.93-.76.06-.24.44.22.8.46.8.53 0 .17-.03.16-.86-.29zm-5.7-3.25a92.93 92.93 0 0 1-4.76-2.82c-.25-.28-.36-.34 4.9 2.64 3.92 2.22 4.85 2.8 4.5 2.79-.04 0-2.12-1.18-4.63-2.6zm47.59.34c.01-.31.07-.37.16-.16.07.19.06.42-.02.5-.1.1-.15-.06-.14-.34zm.3-1.96c0-.51.06-.72.12-.47.07.26.07.67 0 .93-.06.25-.12.04-.12-.46zm-53.83-1.74c-1-.54-.93-.76.06-.25.44.23.8.47.8.54 0 .17-.03.16-.86-.3zm53.84-1.04c0-.58.06-.8.12-.46.06.33.06.8 0 1.06-.07.25-.12-.02-.12-.6zm-55.7-.02c-.99-.54-.93-.76.07-.25.44.23.8.47.8.54 0 .17-.04.16-.87-.3zm-1.85-1.06c-.99-.54-.93-.76.07-.25.43.23.8.47.8.54 0 .17-.04.16-.87-.29zm57.24-.8c.01-.3.07-.37.16-.16.07.2.06.42-.02.51-.1.09-.15-.07-.14-.35zm-59.1-.26c-.98-.54-.92-.76.07-.24.44.22.8.46.8.53 0 .17-.03.16-.86-.29zm-6.61-3.78a140.04 140.04 0 0 1-5.69-3.34c-.28-.3.6.18 6.02 3.25 4.5 2.55 5.6 3.23 5.28 3.23-.06 0-2.59-1.42-5.61-3.14zm64.28.1c-.24-.51-.38-.93-.32-.93.19 0 .99 1.62.87 1.74-.06.06-.3-.31-.55-.82zm-2.84-4.04-.91-1 .99.92c.92.85 1.11 1.07.91 1.07a9 9 0 0 1-.99-.99zm-68.31.05c-1-.54-.93-.76.06-.25.44.23.8.47.8.54 0 .17-.03.16-.86-.3zm-1.86-1.06c-.99-.54-.93-.76.07-.25.44.23.8.47.8.54 0 .17-.04.16-.87-.29zm-1.85-1.06c-.99-.53-.93-.76.07-.24.43.22.8.46.8.53 0 .17-.04.16-.87-.29zm-6.62-3.78a140.05 140.05 0 0 1-5.69-3.34c-.28-.3.61.18 6.03 3.25 4.49 2.55 5.6 3.23 5.28 3.23-.07 0-2.6-1.41-5.62-3.14zm73.74 2.46c-.49-.4-.49-.4.09-.12.32.16.59.34.59.41 0 .2-.14.15-.68-.29zm-80.61-6.35c-1-.54-.93-.76.06-.25.44.23.8.47.8.54 0 .17-.03.16-.86-.3zm-1.85-1.06c-1-.54-.93-.76.06-.24.44.22.8.46.8.53 0 .17-.03.16-.86-.29zm-1.86-1.06c-.99-.53-.93-.76.07-.24.44.22.8.46.8.53 0 .17-.04.16-.87-.29zm68.98-.26c-.5-.4-.5-.4.08-.12.33.16.6.34.6.41 0 .2-.14.14-.68-.29zm-74.98-3.17c-2.68-1.53-5.03-2.73-5.22-2.65-.2.07-.35.02-.35-.12 0-.57.92-.15 5.46 2.43 4.34 2.46 5.43 3.13 5.1 3.13a146 146 0 0 1-4.99-2.79zm73.13 2.11c-.5-.4-.5-.4.08-.12.32.16.6.34.6.41 0 .2-.14.15-.68-.29zm-1.86-1.05c-.49-.4-.49-.4.09-.13.32.16.59.35.59.41 0 .2-.14.15-.68-.28zm-13.49-7.68c-.5-.4-.49-.4.08-.12.33.16.6.34.6.41 0 .2-.14.14-.68-.29zm-1.85-1.06c-.5-.4-.5-.4.08-.12.33.16.6.35.6.41 0 .2-.14.15-.68-.29zm-1.85-1.05c-.5-.4-.5-.4.08-.13.32.16.6.35.6.41 0 .2-.14.15-.68-.28zm-1.86-1.06c-.49-.4-.49-.4.09-.13.32.16.59.35.59.42 0 .2-.14.14-.68-.3zM123.25-.11c-.5-.4-.49-.4.08-.12.33.16.6.35.6.41 0 .2-.14.15-.68-.29zm-1.85-1.05c-.5-.4-.5-.4.08-.13.33.16.6.35.6.41 0 .2-.14.15-.68-.28zm-1.85-1.06c-.5-.4-.5-.4.08-.13.32.16.6.35.6.42 0 .2-.14.14-.68-.3zm-15.35-8.73c-.5-.4-.49-.4.08-.13.33.16.6.35.6.42 0 .2-.14.14-.68-.3zm-1.85-1.06c-.5-.4-.5-.4.08-.12.33.15.6.34.6.4 0 .2-.14.15-.68-.28zM87-20.74c-.5-.4-.49-.4.08-.13.33.16.6.35.6.42 0 .2-.14.14-.68-.3zm-1.85-1.06c-.5-.4-.49-.4.08-.12.33.15.6.34.6.4 0 .21-.14.15-.68-.28zm-1.85-1.06c-.5-.4-.5-.4.08-.12.33.16.6.34.6.4 0 .21-.14.15-.68-.28zm-13.5-7.67c-.49-.4-.49-.4.09-.13.32.16.6.35.6.42 0 .2-.15.14-.69-.3zm-1.85-1.06c-.5-.4-.49-.4.08-.12.33.15.6.34.6.4 0 .21-.14.15-.68-.28zm-1.85-1.06c-.5-.4-.49-.4.08-.12.33.16.6.34.6.4 0 .21-.14.15-.68-.28zm-1.85-1.06c-.5-.4-.5-.4.08-.12.33.16.6.34.6.41 0 .2-.14.14-.68-.29zm-13.5-7.67c-.49-.4-.49-.4.09-.12.32.16.6.34.6.4 0 .21-.15.15-.69-.28zm-1.85-1.06c-.5-.4-.49-.4.08-.12.33.16.6.34.6.41 0 .2-.14.14-.68-.29zm-1.85-1.06c-.5-.4-.49-.4.08-.12.33.16.6.34.6.41 0 .2-.14.15-.68-.29zM31.7-52.23c-.49-.4-.49-.4.09-.12.32.16.6.34.6.41 0 .2-.15.14-.69-.29zm-1.85-1.06c-.5-.4-.49-.4.08-.12.33.16.6.34.6.41 0 .2-.14.15-.68-.29zm-56.16-4.08c0-.37.06-.52.13-.33.07.18.07.48 0 .66-.07.18-.13.03-.13-.33zm.24-1.48c.01-.3.07-.37.16-.16.08.2.07.42-.02.5-.09.1-.15-.06-.14-.34zm40.58-3.17c-.5-.4-.5-.4.08-.12.33.16.6.34.6.41 0 .2-.14.14-.68-.29zm-1.86-1.06c-.49-.4-.49-.4.09-.12.32.16.6.34.6.41 0 .2-.15.15-.69-.29zm-1.85-1.05c-.5-.4-.49-.4.08-.13.33.16.6.35.6.41 0 .2-.14.15-.68-.28zm-33.32-1.97c.26-.3.54-.53.61-.53.07 0-.08.23-.35.53-.26.29-.53.52-.6.52-.08 0 .08-.23.34-.52zm2.38-2.39c.26-.29.54-.52.61-.52.07 0-.08.23-.34.52-.27.3-.54.53-.62.53-.07 0 .09-.23.35-.53zm8.02-3.88c.2-.08.42-.07.5.02.1.09-.06.15-.34.14-.3-.01-.37-.08-.16-.16zm6.62 0c.19-.08.42-.07.5.02.1.09-.07.15-.34.14-.31-.01-.38-.08-.16-.16zm-4.25-.28c.61-.05 1.63-.05 2.24 0 .62.06.12.1-1.12.1-1.24 0-1.74-.04-1.12-.1z" transform="translate(6.1 16.55) scale(.2268)"/><path style="fill:#28b4f4" d="M95.94 103.22c.04-.16-20.76-12.16-46.23-26.66C24.24 62.05 2.96 49.92 2.41 49.59l-.99-.58V23.98c0-27.68-.04-26.9 1.71-30.69a17.74 17.74 0 0 1 8.2-8.44 17.92 17.92 0 0 1 14.92-.28c.78.36 12.84 7.15 26.8 15.1C67.03 7.6 78.6 14.04 78.8 13.96c.26-.1.38-1.02.46-3.52.1-3.12.17-3.54.91-5.12 1-2.1 2.67-3.83 4.6-4.73 1.98-.93 5.12-1.1 7.01-.36.73.28 7.99 4.5 16.14 9.38l30 17.94c9.56 5.71 15.56 9.46 16.2 10.1a9.15 9.15 0 0 1 2.37 7.75c-.55 2.97-2.13 5.03-5.36 6.96-1.28.77-2.05 1.4-2 1.64.06.37 15.85 9.52 16.44 9.54.16 0 .05.14-.24.3-4.51 2.5-68.2 38.78-68.73 39.15-.4.28-.7.38-.66.22zm-4.06-15.2c.53-.18 13.1-7.6 27.95-16.46l27.84-16.63c.48-.27.86-.7.86-.94 0-.31-10.23-6.27-34.31-19.99-18.87-10.74-34.53-19.58-34.8-19.62-.46-.09-.48 1.15-.4 33.33l.06 33.43.76 1.64c2.1 4.55 7.43 6.88 12.04 5.25zm87.74-32.95c.26-.29.54-.52.61-.52.08 0-.08.23-.34.52-.27.3-.54.53-.62.53-.07 0 .09-.23.35-.53zm4.67-11.1c0-.37.06-.52.14-.34.07.18.07.48 0 .66-.08.18-.14.04-.14-.33zm-3.9-10.4-.5-.59.6.5c.32.28.59.55.59.6 0 .21-.22.06-.69-.5zm-1.73-1.71c-.33-.42-.32-.43.1-.1.44.34.58.56.36.56-.05 0-.26-.2-.46-.46zM-26.3-56.18c.01-.44.07-.59.14-.33.06.26.06.62-.01.8-.08.17-.13-.04-.13-.47zm4.98-11.11c.34-.37.68-.67.75-.67.08 0-.14.3-.49.67-.34.36-.68.66-.75.66-.07 0 .15-.3.49-.66zm10-5.08c.2-.08.42-.07.51.02.09.09-.07.15-.35.14-.3-.01-.37-.08-.16-.16zm5.03 0c.2-.08.42-.07.5.02.1.09-.06.15-.34.14-.3-.01-.37-.08-.16-.16z" transform="translate(6.1 16.55) scale(.2268)"/><path style="fill:#15a6ea" d="M1.42 157.09c0-.07.24-.26.53-.42.3-.15.53-.22.53-.15 0 .08-.24.26-.53.42-.29.16-.53.22-.53.15zm1.33-.8c0-.07.35-.32.8-.54.43-.23.78-.35.78-.28 0 .07-.35.32-.79.54-.44.23-.8.35-.8.28zm2.38-1.32c0-.07.24-.26.53-.41.29-.16.53-.23.53-.15 0 .07-.24.26-.53.41-.3.16-.53.23-.53.15zm1.85-1.05c0-.08.24-.26.53-.42.3-.16.53-.22.53-.15s-.24.26-.53.41c-.3.16-.53.23-.53.16zm1.85-1.07c0-.07.36-.32.8-.54.43-.23.79-.35.79-.28 0 .07-.36.32-.8.54-.43.23-.79.35-.79.28zm1.85-1.06c0-.07.36-.31.8-.54.44-.22.8-.35.8-.28 0 .08-.36.32-.8.55-.44.22-.8.35-.8.27zm1.86-1.05c0-.08.35-.32.8-.55.43-.22.78-.35.78-.28 0 .08-.35.32-.79.55-.44.22-.8.35-.8.28zm1.85-1.06c0-.08.36-.32.8-.55.43-.22.79-.35.79-.27 0 .07-.36.31-.8.54-.43.22-.8.35-.8.28zm1.85-1.06c0-.07.36-.32.8-.54.43-.23.79-.36.79-.28 0 .07-.36.31-.8.54-.43.23-.79.35-.79.28zm1.85-1.06c0-.07.36-.32.8-.54.43-.23.8-.35.8-.28 0 .07-.37.32-.8.54-.44.23-.8.35-.8.28zm1.86-1.06c0-.07.35-.32.79-.54.44-.23.8-.35.8-.28 0 .07-.36.32-.8.54-.44.23-.8.35-.8.28zm1.85-1.06c0-.07.35-.31.8-.54.43-.22.78-.35.78-.28 0 .08-.35.32-.79.55-.44.22-.8.35-.8.27zm-48.14-1.09c.02-.3.08-.37.16-.16.08.2.07.42-.02.5-.08.1-.15-.06-.14-.34zm50.52-.23c0-.07.36-.32.8-.54.43-.23.79-.35.79-.28 0 .07-.36.32-.8.54-.43.23-.8.35-.8.28zm1.85-1.05c0-.08.24-.26.53-.42.3-.15.53-.22.53-.15s-.24.26-.53.42c-.3.15-.53.22-.53.15zm1.85-1.07c0-.07.36-.31.8-.54.43-.22.79-.35.79-.28 0 .08-.36.32-.8.55-.43.22-.79.35-.79.27zm1.85-1.05c0-.08.36-.32.8-.55.44-.22.8-.35.8-.28 0 .08-.36.32-.8.55-.44.22-.8.35-.8.28zm1.86-1.06c0-.08.35-.32.8-.55.43-.22.78-.35.78-.27 0 .07-.35.31-.79.54-.44.22-.8.35-.8.28zm1.85-1.06c0-.07.36-.32.8-.54.43-.23.79-.35.79-.28 0 .07-.36.32-.8.54-.43.23-.8.35-.8.28zm1.85-1.06c0-.07.36-.32.8-.54.43-.23.79-.35.79-.28 0 .07-.36.32-.8.54-.43.23-.79.35-.79.28zm1.85-1.06c0-.07.36-.31.8-.54.43-.23.8-.35.8-.28 0 .07-.37.32-.8.54-.44.23-.8.36-.8.28zm1.86-1.06c0-.07.35-.31.79-.54.44-.22.8-.35.8-.28 0 .08-.36.32-.8.55-.44.22-.8.35-.8.27zm2.38-1.31c0-.08.23-.26.53-.42.29-.16.52-.22.52-.15s-.23.26-.52.42c-.3.15-.53.22-.53.15zm1.85-1.06c0-.08.24-.26.53-.42.29-.15.53-.22.53-.15s-.24.26-.53.42c-.3.15-.53.22-.53.15zm1.85-1.07c0-.07.36-.31.8-.54.43-.22.79-.35.79-.28 0 .08-.36.32-.8.55-.43.22-.79.35-.79.27zm1.85-1.05c0-.08.36-.32.8-.55.43-.22.79-.35.79-.27 0 .07-.36.31-.8.54-.43.22-.79.35-.79.28zm1.85-1.06c0-.08.36-.32.8-.54.44-.23.8-.36.8-.28 0 .07-.36.31-.8.54-.44.23-.8.35-.8.28zm1.86-1.06c0-.07.35-.32.8-.54.43-.23.78-.35.78-.28 0 .07-.35.32-.79.54-.44.23-.8.35-.8.28zm1.85-1.06c0-.07.36-.32.8-.54.43-.23.79-.35.79-.28 0 .07-.36.32-.8.54-.43.23-.8.35-.8.28zm1.85-1.06c0-.07.36-.31.8-.54.43-.23.79-.35.79-.28 0 .07-.36.32-.8.54-.43.23-.79.36-.79.28zm1.85-1.06c0-.07.36-.31.8-.54.43-.22.8-.35.8-.28 0 .08-.37.32-.8.55-.44.22-.8.35-.8.27zm1.86-1.05c0-.08.35-.32.79-.55.44-.22.8-.35.8-.27 0 .07-.36.31-.8.54-.44.22-.8.35-.8.28zm2.38-1.32c0-.07.23-.26.53-.42.29-.15.52-.22.52-.15s-.23.26-.52.42c-.3.15-.53.22-.53.15zm1.85-1.06c0-.07.24-.26.53-.42.29-.15.53-.22.53-.15 0 .08-.24.26-.53.42-.3.15-.53.22-.53.15zm1.85-1.06c0-.08.36-.32.8-.55.43-.22.79-.35.79-.27 0 .07-.36.31-.8.54-.43.22-.79.35-.79.28zm1.85-1.06c0-.07.36-.32.8-.54.43-.23.79-.36.79-.28 0 .07-.36.31-.8.54-.43.23-.79.35-.79.28zm1.85-1.06c0-.07.36-.32.8-.54.44-.23.8-.35.8-.28 0 .07-.36.32-.8.54-.44.23-.8.35-.8.28zm1.86-1.06c0-.07.35-.32.8-.54.43-.23.78-.35.78-.28 0 .07-.35.32-.79.54-.44.23-.8.35-.8.28zm1.85-1.06c0-.07.36-.31.8-.54.43-.23.79-.35.79-.28 0 .08-.36.32-.8.55-.43.22-.8.35-.8.27zm1.85-1.06c0-.07.36-.31.8-.54.43-.22.79-.35.79-.28 0 .08-.36.32-.8.55-.43.22-.79.35-.79.27zm1.85-1.05c0-.08.36-.32.8-.55.43-.22.8-.35.8-.27 0 .07-.37.31-.8.54-.44.22-.8.35-.8.28zm1.86-1.06c0-.08.47-.38 1.05-.68.59-.3 1.06-.48 1.06-.4 0 .07-.47.37-1.06.67-.58.3-1.05.48-1.05.4zm2.38-1.32c0-.08.35-.32.79-.55.44-.22.8-.35.8-.28 0 .08-.36.32-.8.55-.44.22-.8.35-.8.28zm1.85-1.06c0-.08.36-.32.8-.55.43-.22.79-.35.79-.27 0 .07-.36.31-.8.54-.43.22-.8.35-.8.28zm1.85-1.06c0-.07.36-.32.8-.54.43-.23.79-.36.79-.28 0 .07-.36.31-.8.54-.43.23-.79.35-.79.28zm1.85-1.06c0-.07.36-.32.8-.54.43-.23.79-.35.79-.28 0 .07-.36.32-.8.54-.43.23-.79.35-.79.28zm1.85-1.06c0-.07.36-.32.8-.54.44-.23.8-.35.8-.28 0 .07-.36.32-.8.54-.44.23-.8.35-.8.28zm1.86-1.06c0-.07.35-.31.8-.54.43-.22.78-.35.78-.28 0 .08-.35.32-.79.55-.44.22-.8.35-.8.27zm1.85-1.05c0-.08.36-.32.8-.55.43-.22.79-.35.79-.28 0 .08-.36.32-.8.55-.43.22-.8.35-.8.28zm2.38-1.32c0-.08.24-.26.53-.42.3-.15.53-.22.53-.15s-.24.26-.53.42c-.3.15-.53.22-.53.15zm2.2-1.3c.47-.38.47-.41-.13-.8-.58-.37-82.43-46.98-89.85-51.16-1.93-1.1-3.69-2.24-3.9-2.54-.34-.49-.4-3.85-.39-25.04C.91-2.64.92-2.65 2.45-6.32c3.81-9.09 14.8-13.62 23.58-9.71.8.35 12.79 7.09 26.63 14.97a3632.9 3632.9 0 0 0 25.56 14.47c.31.12.4-.41.54-2.99.11-2.24.32-3.56.72-4.64 1.44-3.84 5.2-6.53 9.12-6.53 3.02 0-.9-2.22 52.69 29.82 6.42 3.84 12.14 7.38 12.72 7.87.57.5 1.45 1.65 1.95 2.57.86 1.59.9 1.8.9 4.32 0 2.34-.08 2.81-.7 4.1-.92 1.87-2.45 3.4-4.74 4.76-1 .6-1.83 1.17-1.82 1.27 0 .1 3.63 2.25 8.06 4.76l8.05 4.58 1.07-.55c.59-.3 1.07-.48 1.07-.41 0 .16-2.01 1.2-2.33 1.2-.54 0-16.33-9.18-16.4-9.53-.04-.24.73-.87 2.01-1.64 3.23-1.93 4.81-3.99 5.36-6.96a9.15 9.15 0 0 0-2.38-7.74c-.63-.65-6.63-4.4-16.19-10.1l-30-17.95C99.77 4.74 92.5.52 91.78.24c-1.9-.73-5.03-.57-7.01.36a9.88 9.88 0 0 0-4.6 4.73c-.74 1.58-.82 2-.91 5.12-.08 2.5-.2 3.43-.46 3.53-.2.07-11.78-6.37-25.74-14.32a1887.67 1887.67 0 0 0-26.8-15.09 18.8 18.8 0 0 0-11.34-1.05A17.82 17.82 0 0 0 3.13-6.71c-1.75 3.8-1.7 3-1.7 30.7V49l.99.58c.54.33 21.8 12.44 47.25 26.93 25.45 14.5 46.28 26.44 46.3 26.56.03.12-.25.4-.62.6-.6.36-.61.36-.17 0zm72.94-41.57c0-.07.36-.32.8-.54.43-.23.79-.35.79-.28 0 .07-.36.32-.8.54-.43.23-.79.35-.79.28zm1.85-1.06c0-.07.36-.32.8-.54.43-.23.8-.35.8-.28 0 .07-.37.32-.8.54-.44.23-.8.35-.8.28zm1.86-1.06c0-.07.35-.31.79-.54.44-.23.8-.35.8-.28 0 .08-.36.32-.8.55-.44.22-.8.35-.8.27zm1.85-1.06c0-.07.36-.31.8-.54.43-.22.79-.35.79-.28 0 .08-.36.32-.8.55-.43.22-.8.35-.8.27zm1.85-1.01c0-.06.62-.5 1.37-.96.76-.47 1.24-.7 1.07-.5-.3.38-2.44 1.65-2.44 1.46zm4.22-3.23c1.91-2.13 2.04-2.25 1.4-1.32a14.7 14.7 0 0 1-1.69 1.85c-.96.9-.92.81.3-.53zm2.13-2.78c.16-.3.34-.53.42-.53.07 0 0 .24-.15.53-.16.3-.35.53-.42.53s0-.24.15-.53zm1.87-4.65c.02-.31.08-.37.16-.16.08.19.07.42-.02.5-.09.1-.15-.06-.14-.34zm.34-3.29c0-1.38.05-1.95.1-1.25.06.69.06 1.82 0 2.5-.05.7-.1.13-.1-1.25zm-.34-3.33c.02-.3.08-.37.16-.16.08.2.07.42-.02.51-.09.09-.15-.07-.14-.35zm-.26-1.06c.01-.3.07-.37.16-.16.08.2.07.42-.02.51-.09.09-.15-.07-.14-.35zm-.39-1.04c-.25-.67-.18-.84.14-.3.15.26.22.54.15.6-.07.07-.2-.07-.29-.3zm-.65-1.65c-.3-.67-.28-.69.09-.2.22.27.4.6.4.72 0 .4-.18.21-.5-.52zm-1.16-1.85a21.2 21.2 0 0 0-2.09-2.42c-.82-.83-1.03-1.13-.5-.7.97.76 2.76 2.8 3.2 3.64.45.83.08.52-.61-.52zm-207.5-45.97c0-24.6.02-34.61.06-22.27.04 12.35.04 32.47 0 44.72-.04 12.24-.07 2.14-.07-22.45zm202.2 41.26c-.99-.54-.93-.76.07-.25.44.23.8.47.8.54 0 .17-.04.16-.87-.3zm-1.85-1.06c-.99-.54-.93-.76.07-.25.43.23.8.47.8.54 0 .17-.04.16-.87-.3zm-1.85-1.06c-.99-.54-.93-.76.07-.24.43.22.79.46.79.53 0 .17-.03.16-.86-.29zm-1.85-1.06c-1-.53-.93-.76.06-.24.44.22.8.46.8.53 0 .17-.03.16-.86-.29zm-1.85-1.06c-1-.53-.93-.76.06-.24.44.22.8.47.8.53 0 .17-.03.16-.86-.29zm-1.86-1.05c-.99-.54-.93-.76.07-.25.44.23.8.47.8.54 0 .17-.04.16-.87-.3zm-1.85-1.06c-.99-.54-.93-.76.07-.25.43.23.8.47.8.54 0 .17-.04.16-.87-.3zm-1.85-1.06c-.99-.54-.93-.76.07-.25.43.23.79.47.79.54 0 .17-.03.16-.86-.3zm-2.38-1.32c-1-.54-.93-.76.06-.25.44.23.8.47.8.54 0 .17-.03.16-.86-.3zm-1.67-1.06c-.5-.4-.5-.4.08-.12.33.16.6.34.6.41 0 .2-.14.14-.68-.29zm-1.85-1.06c-.5-.4-.5-.4.08-.12.33.16.6.34.6.41 0 .2-.14.15-.68-.29zm-2.04-1.06c-.99-.54-.93-.76.07-.24.43.22.8.46.8.53 0 .17-.04.16-.87-.29zm-1.85-1.06c-.99-.53-.93-.76.07-.24.43.22.79.46.79.53 0 .17-.03.16-.86-.29zm-1.85-1.06c-1-.53-.93-.76.06-.24.44.22.8.47.8.53 0 .17-.03.17-.86-.29zm-1.85-1.05c-1-.54-.93-.76.06-.25.44.23.8.47.8.54 0 .17-.03.16-.86-.3zm-1.86-1.06c-.99-.54-.93-.76.07-.25.44.23.8.47.8.54 0 .17-.04.16-.87-.3zm-1.85-1.06c-.99-.54-.93-.76.07-.25.43.23.8.47.8.54 0 .17-.04.16-.87-.3zm-1.85-1.06c-.99-.54-.93-.76.06-.24.44.22.8.46.8.53 0 .17-.03.16-.86-.29zm-2.2-1.32c-.5-.4-.49-.4.08-.12.33.16.6.34.6.41 0 .2-.14.14-.68-.29zm-2.03-1.06c-1-.54-.93-.76.06-.25.44.23.8.47.8.54 0 .17-.03.16-.86-.29zm-1.86-1.06c-.99-.54-.93-.76.07-.24.44.22.8.46.8.53 0 .17-.04.16-.87-.29zm-1.85-1.06c-.99-.53-.93-.76.07-.24.43.22.8.46.8.53 0 .17-.04.16-.87-.29zm-1.85-1.06c-.99-.53-.93-.76.07-.24.43.22.79.47.79.54 0 .17-.03.16-.86-.3zm-1.85-1.05c-1-.54-.93-.76.06-.25.44.23.8.47.8.54 0 .17-.03.16-.86-.3zm-1.85-1.06c-1-.54-.93-.76.06-.25.44.23.8.47.8.54 0 .17-.03.16-.86-.3zm-1.86-1.06c-.99-.54-.93-.76.07-.25.44.23.8.47.8.54 0 .17-.04.16-.87-.29zm-1.85-1.06c-.99-.54-.93-.76.07-.24.43.22.8.46.8.53 0 .17-.04.16-.87-.29zm-1.85-1.06c-.99-.53-.93-.76.06-.24.44.22.8.46.8.53 0 .17-.03.16-.86-.29zM122.54-.1c-1-.54-.93-.76.06-.25.44.23.8.47.8.54 0 .17-.03.16-.86-.29zm-1.85-1.06c-1-.53-.93-.76.06-.24.44.22.8.46.8.53 0 .17-.03.16-.86-.29zm-1.86-1.06c-.99-.53-.93-.76.07-.24.44.22.8.46.8.53 0 .17-.04.16-.87-.29zm-1.85-1.05c-.99-.54-.93-.76.07-.25.43.23.8.47.8.54 0 .17-.04.16-.87-.3zm-1.85-1.06c-.99-.54-.93-.76.07-.25.43.23.79.47.79.54 0 .17-.03.16-.86-.3zm-1.85-1.06c-1-.54-.93-.76.06-.25.44.23.8.47.8.54 0 .17-.03.16-.86-.3zm-1.85-1.06c-1-.54-.93-.76.06-.25.44.23.8.47.8.54 0 .17-.03.16-.86-.29zm-1.86-1.06c-.99-.53-.93-.76.07-.24.44.22.8.46.8.53 0 .17-.04.16-.87-.29zm-1.85-1.06c-.99-.53-.93-.76.07-.24.43.22.8.46.8.53 0 .17-.04.16-.87-.29zm-2.38-1.32c-.99-.54-.93-.76.07-.24.43.22.79.46.79.53 0 .17-.03.16-.86-.29zm-1.85-1.06c-1-.53-.93-.76.06-.24.44.22.8.46.8.53 0 .17-.03.16-.86-.29zm-1.85-1.06c-1-.53-.93-.76.06-.24.44.22.8.47.8.53 0 .17-.03.16-.86-.29zm-1.86-1.05c-.99-.54-.93-.76.07-.25.44.23.8.47.8.54 0 .17-.04.16-.87-.3zm-1.85-1.06c-.99-.54-.93-.76.07-.25.43.23.8.47.8.54 0 .17-.04.16-.87-.3zm-1.85-1.06c-.99-.54-.93-.76.07-.25.43.23.79.47.79.54 0 .17-.03.16-.86-.3zm-1.85-1.06c-1-.54-.93-.76.06-.24.44.22.8.46.8.53 0 .17-.03.16-.86-.29zm-1.85-1.06c-1-.53-.93-.76.06-.24.44.22.8.46.8.53 0 .17-.03.16-.86-.29zm-2.2-1.32c-.5-.4-.5-.4.08-.12.33.16.6.34.6.41 0 .2-.14.15-.68-.29zm-1.5-.8c-1-.53-.94-.75.06-.24.43.23.8.47.8.54 0 .17-.04.16-.87-.3zm-2.39-1.32c-.99-.53-.93-.76.07-.24.43.22.79.46.79.53 0 .17-.03.16-.86-.29zm-1.85-1.06c-1-.53-.93-.76.06-.24.44.22.8.47.8.53 0 .17-.03.17-.86-.29zm-1.85-1.05c-1-.54-.93-.76.06-.25.44.23.8.47.8.54 0 .17-.03.16-.86-.3zm-1.86-1.06c-.99-.54-.93-.76.07-.25.44.23.8.47.8.54 0 .17-.04.16-.87-.3zm-1.85-1.06c-.99-.54-.93-.76.07-.25.43.23.8.47.8.54 0 .17-.04.16-.87-.3zm-1.85-1.06c-.99-.54-.93-.76.07-.24.43.22.79.46.79.53 0 .17-.03.16-.86-.29zm-1.85-1.06c-1-.53-.93-.76.06-.24.44.22.8.46.8.53 0 .17-.03.16-.86-.29zm-1.85-1.06c-1-.53-.93-.76.06-.24.44.22.8.47.8.53 0 .17-.03.17-.86-.29zm-2.2-1.31c-.5-.4-.5-.4.08-.13.33.16.6.35.6.41 0 .2-.14.15-.68-.28zm-1.5-.8c-1-.54-.94-.76.06-.25.43.23.8.47.8.54 0 .17-.04.16-.87-.3zm-2.39-1.33c-.99-.53-.93-.76.07-.24.43.22.79.47.79.54 0 .17-.03.16-.86-.3zm-1.85-1.05c-1-.54-.93-.76.06-.25.44.23.8.47.8.54 0 .17-.03.16-.86-.3zm-1.85-1.06c-1-.54-.93-.76.06-.25.44.23.8.47.8.54 0 .17-.03.16-.86-.3zm-1.86-1.06c-.99-.54-.93-.76.07-.25.44.23.8.47.8.54 0 .17-.04.16-.87-.29zm-1.85-1.06c-.99-.54-.93-.76.07-.24.43.22.8.46.8.53 0 .17-.04.16-.87-.29zm-1.85-1.06c-.99-.53-.93-.76.07-.24.43.22.79.46.79.53 0 .17-.03.16-.86-.29zm-1.85-1.06c-1-.53-.93-.76.06-.24.44.22.8.47.8.54 0 .17-.03.16-.86-.3zM54.28-39c-1-.54-.93-.76.06-.25.44.23.8.47.8.54 0 .17-.03.16-.86-.3zm-1.86-1.06c-.99-.54-.93-.76.07-.25.44.23.8.47.8.54 0 .17-.04.16-.87-.3zm-1.85-1.06c-.99-.54-.93-.76.07-.25.43.23.8.47.8.54 0 .17-.04.16-.87-.29zm-2.38-1.32c-.99-.54-.93-.76.07-.25.43.23.79.47.79.54 0 .17-.03.16-.86-.3zm-1.85-1.06c-1-.54-.93-.76.06-.25.44.23.8.47.8.54 0 .17-.03.16-.86-.3zm-1.85-1.06c-1-.54-.93-.76.06-.25.44.23.8.47.8.54 0 .17-.03.16-.86-.29zm-1.86-1.06c-.99-.53-.93-.76.07-.24.44.22.8.46.8.53 0 .17-.04.16-.87-.29zm-1.85-1.06c-.99-.53-.93-.76.07-.24.43.22.8.46.8.53 0 .17-.04.16-.87-.29zm-1.85-1.05c-.99-.54-.93-.76.07-.25.43.23.79.47.79.54 0 .17-.03.16-.86-.3zm-1.85-1.06c-1-.54-.93-.76.06-.25.44.23.8.47.8.54 0 .17-.03.16-.86-.3zm-1.85-1.06c-1-.54-.93-.76.06-.25.44.23.8.47.8.54 0 .17-.03.16-.86-.3zm-1.86-1.06c-.99-.54-.93-.76.07-.25.44.23.8.47.8.54 0 .17-.04.16-.87-.29zm-2.2-1.32c-.49-.4-.49-.4.09-.12.32.16.6.34.6.41 0 .2-.15.14-.69-.29zm-2.03-1.06c-.99-.54-.93-.76.07-.25.43.23.79.47.79.54 0 .17-.03.16-.86-.3zm-1.85-1.06c-1-.54-.93-.76.06-.24.44.22.8.46.8.53 0 .17-.03.16-.86-.29zm-1.85-1.06c-1-.53-.93-.76.06-.24.44.22.8.46.8.53 0 .17-.03.16-.86-.29zm-1.86-1.06c-.99-.53-.93-.76.07-.24.44.22.8.47.8.53 0 .17-.04.16-.87-.29zm-49.63-.9c0-.37.06-.52.13-.33.08.18.08.48 0 .66-.07.18-.13.03-.13-.33zm47.78-.15c-.99-.54-.93-.76.07-.25.43.23.8.47.8.54 0 .17-.04.16-.87-.3zm-1.85-1.06c-.99-.54-.93-.76.07-.25.43.23.79.47.79.54 0 .17-.03.16-.86-.3zm-45.69-.27c.02-.3.08-.37.16-.16.08.2.07.42-.02.5-.09.1-.15-.06-.14-.34zm43.84-.8c-1-.53-.93-.75.06-.24.44.23.8.47.8.54 0 .17-.03.16-.86-.3zm-2.2-1.31c-.5-.4-.5-.4.08-.12.33.16.6.34.6.4 0 .21-.14.15-.68-.28zm-40.86-.25c0-.15.12-.44.26-.66.14-.22.26-.28.26-.13 0 .14-.12.44-.26.66-.14.22-.26.28-.26.13zm39-.8c-.49-.4-.48-.4.09-.13.33.16.6.34.6.41 0 .2-.14.14-.68-.29zm-2.03-1.07c-.99-.54-.93-.76.07-.25.43.23.8.47.8.54 0 .17-.04.16-.87-.3zm-35.47-1.2a22.6 22.6 0 0 1 4.14-4.5c.46-.33.11.08-.77.9-.88.8-2.07 2.14-2.62 2.95-1.1 1.6-1.5 1.96-.75.65zm33.62.14c-.99-.54-.93-.76.07-.24.43.22.79.46.79.53 0 .17-.03.16-.86-.29zM8.24-65.2c-1-.53-.93-.76.06-.24.44.22.8.46.8.53 0 .17-.03.16-.86-.29zm-1.85-1.06c-1-.53-.93-.76.06-.24.44.22.8.47.8.53 0 .17-.03.17-.86-.29zM4.53-67.3c-.99-.54-.93-.76.07-.25.44.23.8.47.8.54 0 .17-.04.16-.87-.3zm-1.85-1.06c-.99-.54-.93-.76.07-.25.43.23.8.47.8.54 0 .17-.04.16-.87-.3zM.83-69.43c-.99-.54-.93-.76.07-.25.43.23.79.47.79.54 0 .17-.03.16-.86-.3zm-18.46-.5c0-.19 2.15-1.26 2.27-1.14.06.06-.43.36-1.08.68-.65.32-1.19.52-1.19.45zm15.09-1.2c-.22-.14-.28-.26-.14-.26.15 0 .45.12.66.26.22.14.28.26.14.26-.15 0-.45-.12-.66-.26zm-12.18-.27c.22-.14.58-.25.8-.24.26.01.22.1-.13.24-.73.32-1.15.32-.67 0zm1.54-.44c.2-.08.42-.07.51.02.09.09-.07.15-.35.14-.3-.01-.37-.08-.16-.16zm8.73 0c.2-.08.42-.07.51.02.09.09-.07.15-.35.14-.3-.01-.37-.08-.16-.16zm-7.67-.27c.2-.07.42-.06.5.02.1.1-.06.16-.34.14-.3 0-.37-.07-.16-.16zm6.62 0c.19-.07.42-.06.5.02.1.1-.07.16-.34.14-.31 0-.38-.07-.16-.16zm-4.25-.27c.61-.06 1.63-.06 2.24 0 .62.05.12.1-1.12.1-1.24 0-1.74-.05-1.12-.1z" transform="translate(6.1 16.55) scale(.2268)"/><path style="fill:#029ae4" d="M1.1 103.53c.05-42.91 0-54-.27-54.35-.35-.45-26.32-15.35-26.79-15.36-.18 0-.22-15.4-.13-45.93l.13-45.92.78-2.25A17.67 17.67 0 0 1-13-71.68c2.88-.78 7.1-.65 9.82.32 1.63.58 40.95 22.88 162.5 92.13 16.08 9.17 18.78 10.8 20.1 12.11 3.09 3.08 4.35 6 4.52 10.5.1 2.65.04 3.22-.57 5.15a15.44 15.44 0 0 1-4.23 6.72c-1.1 1.01-9.16 5.88-12.8 7.74-.55.28-1.45-.16-8.67-4.27-4.43-2.51-8.06-4.66-8.06-4.76 0-.1.81-.67 1.82-1.27 2.3-1.36 3.82-2.9 4.73-4.76.63-1.29.72-1.76.72-4.1 0-2.51-.05-2.73-.91-4.32-.5-.92-1.38-2.08-1.95-2.57-.58-.5-6.3-4.03-12.72-7.87C97.13 2.67 92.7.07 91.39-.33A9.65 9.65 0 0 0 81.04 3c-1.55 1.96-2.1 3.77-2.3 7.42-.12 2.58-.22 3.11-.53 3-.2-.09-11.7-6.6-25.56-14.48a1632.86 1632.86 0 0 0-26.63-14.97c-8.78-3.9-19.77.62-23.58 9.71C.92-2.65.91-2.64.9 24.13c0 21.22.05 24.55.39 25.04.21.3 1.85 1.38 3.64 2.39 14.04 7.91 90.1 51.28 90.36 51.52.26.24-.12.56-1.72 1.47a24550.48 24550.48 0 0 0-92.15 52.54c-.35.3-.38-5.67-.32-53.56Z" transform="translate(6.1 16.55) scale(.2268)"/><path style="fill:#0176bc" d="M-12.2 159.95a22.99 22.99 0 0 1-4.36-1.6c-4.35-2.13-7.32-5.68-9.04-10.8l-.62-1.86-.08-55.8c-.03-30.7.03-55.9.14-56.01.24-.23 26.5 14.66 26.99 15.3.26.35.33 11.6.33 54.2 0 51.37-.02 53.76-.48 54.17-.83.76-3.84 1.98-5.94 2.41-2.44.5-4.47.5-6.94 0z" transform="translate(6.1 16.55) scale(.2268)"/></svg>