<svg width="70" height="93.44" viewBox="-8.78 0 6.13 8.18" xmlns="http://www.w3.org/2000/svg"><path d="M-6.2 8.17a5.22 5.22 0 0 1-1.99-.5 1.34 1.34 0 0 1-.54-.5l-.05-.09v-6l.04-.08c.16-.34.7-.64 1.43-.82a7.5 7.5 0 0 1 .92-.16C-6.1 0-5.3 0-5 .02c.8.1 1.48.31 1.9.6.17.1.33.28.39.4l.05.1v3l-.01 3-.04.07c-.02.05-.09.13-.14.2-.35.36-1.1.64-2.09.75-.2.03-1.07.05-1.27.03zm1.4-2.57s-.1-.11-.25-.23l-.26-.22.06-.06a.82.82 0 0 0 .38-.74.83.83 0 0 0-.23-.6.76.76 0 0 0-.59-.23c-.4 0-.7.24-.8.61a1.27 1.27 0 0 0 0 .5.79.79 0 0 0 .63.57c.1.02.11.02.18.1l.19.2.11.11h.3c.16 0 .3 0 .29-.01zm-1-.83c-.08-.04-.1-.07-.15-.15-.03-.06-.03-.1-.04-.25 0-.16 0-.19.04-.26.06-.1.13-.16.24-.16.16-.02.26.06.3.25.06.23 0 .48-.14.56a.3.3 0 0 1-.26 0zm-1.32.43c.3-.06.48-.24.48-.5 0-.23-.11-.37-.43-.5-.18-.09-.24-.14-.24-.2 0-.05.06-.1.13-.11.07-.02.26.02.37.06l.1.04v-.41l-.1-.02a2.07 2.07 0 0 0-.68.01c-.23.1-.34.25-.34.48 0 .23.12.36.4.49.18.07.25.13.25.2 0 .13-.24.15-.48.03l-.14-.07v.21c0 .22 0 .22.03.24.15.05.48.08.65.05zm3.55-.2v-.2h-.56V3.55h-.5v1.64h1.06zM-5.3 1.75c.5-.04.86-.1 1.19-.2.32-.12.51-.25.56-.4.01-.05.01-.07-.01-.13-.1-.27-.68-.48-1.57-.56a8.08 8.08 0 0 0-1.43.02c-.55.07-1 .21-1.2.37-.4.32.03.67 1.02.83.43.08.98.1 1.44.07z" fill="#00bcf2" style="stroke-width:.116802"/></svg>