<svg width="70.93" height="71.27" viewBox="0 0 18.77 18.86" xmlns="http://www.w3.org/2000/svg"><path style="fill:#3177c5;stroke:none;stroke-width:.0156441" d="M227.42 165.02c-.21.03-.42.08-.6.18-1.31.66-1.02 2.24-1.02 3.45v12.75c0 .59-.03 1.15.32 1.66.3.44.79.71 1.32.78.3.03.62 0 .92 0h13.23c.47 0 .98.06 1.44-.02a1.86 1.86 0 0 0 1.48-1.5c.05-.3.02-.62.02-.92v-13.9c0-.65.02-1.26-.4-1.8-.55-.68-1.3-.67-2.1-.67H228.8c-.44 0-.93-.06-1.37 0m15.2 10.77c-.2-.1-.39-.23-.6-.31a3.32 3.32 0 0 0-1.9-.2c-.38.09-.87.37-.81.82.06.51.58.76.99.96.82.42 1.83.69 2.35 1.52.51.8.46 2-.14 2.74-.29.35-.7.6-1.12.73a6 6 0 0 1-3.2.07c-.28-.07-.53-.2-.8-.28V180c.2.13.36.28.57.39.65.35 1.43.54 2.17.41.52-.09 1.13-.5.85-1.1a1.4 1.4 0 0 0-.57-.55c-.42-.25-.88-.41-1.31-.61-.45-.2-.9-.47-1.22-.84a2.4 2.4 0 0 1-.32-2.48c.62-1.38 2.47-1.54 3.77-1.42.31.04.63.08.93.17.1.02.27.04.34.12.07.07.02.34.02.44v1.27m-5.96-1.84v1.5h-2.34v6.16c0 .14.05.41 0 .54-.05.08-.34.04-.42.04h-1.05c-.09 0-.3.04-.38-.02-.07-.05-.02-.33-.02-.4v-6.31h-2.33v-1.5z" transform="translate(-225.77 -165)"/></svg>