<svg width="48mm" height="181.42" viewBox="0 0 48 48" xml:space="preserve" xmlns="http://www.w3.org/2000/svg"><circle style="fill:#fff;stroke-width:.264583" cx="13.35" cy="24" r="9.43"/><circle style="fill:#fff;stroke-width:.309905" cx="34.52" cy="23.96" r="11.04"/><path style="display:inline;fill:#fed153" d="M38.44 199.69c-.87 0-1.79-.2-2.43-.52-1.38-.55-1.33-.42-1.67-1.04a13.8 13.8 0 0 1-1.63-2.63c-.6-1.2-1.16-2.42-1.68-3.65a43 43 0 0 1-2.3-9.09c-.17-1.5-.26-3-.27-4.5 0-1.25.12-3.26.27-4.48.16-1.21.5-3.12.77-4.22.27-1.11.82-2.9 1.21-4 .4-1.1 1.2-2.94 1.78-4.1.72-1.4 1.5-2.74 2.37-4.05.9-1.3 1.87-2.57 2.9-3.78.87-1.02 2.5-2.63 3.62-3.6a43.1 43.1 0 0 1 3.8-2.89c.98-.63 2.77-1.64 3.97-2.25 1.2-.61 3.3-1.5 4.65-1.97 2.32-.8 2.53-.84 3.84-.53.76.17 1.62.45 1.93.62.3.16.98.77 1.5 1.35a6.1 6.1 0 0 1 1.23 2.06 8 8 0 0 1 .29 1.78 7.9 7.9 0 0 1-.33 1.84 6.58 6.58 0 0 1-3.77 3.74c-.73.25-2.33.93-3.56 1.5a27.11 27.11 0 0 0-4.18 2.54c-1.24.97-2.4 2.01-3.5 3.14-.85.91-1.91 2.19-2.36 2.84a32.43 32.43 0 0 0-3.34 6.8c-.34.99-.76 2.7-.94 3.8a27.8 27.8 0 0 0-.17 5.12c.08 1.86.36 3.94.7 5.2.3 1.15 1.14 3.34 1.87 4.86 1.1 2.32 1.32 3.01 1.32 4.26 0 .86-.21 1.93-.5 2.55a6.2 6.2 0 0 1-3.13 2.94 7.2 7.2 0 0 1-2.26.36z" transform="translate(-10.09 -39.19) scale(.35445)"/><path style="fill:#fdac3e" d="M66.69 215.43a57.4 57.4 0 0 1-4.76-.02c-.44-.07-1.57-.24-2.51-.4a41 41 0 0 1-4.63-1.21 50.7 50.7 0 0 1-5.08-1.97 45.65 45.65 0 0 1-4.63-2.66 39.18 39.18 0 0 1-5.51-4.7 47.76 47.76 0 0 1-4.2-4.74l-1.16-1.68 1.12.74c.85.56 1.53.77 2.76.85a6.04 6.04 0 0 0 2.55-.28c.5-.21 1.32-.72 1.81-1.14a6.2 6.2 0 0 0 1.38-1.83c.29-.62.5-1.69.5-2.55 0-1.25-.21-1.94-1.32-4.26a34.54 34.54 0 0 1-1.88-4.86 28.28 28.28 0 0 1-.7-5.2 29.6 29.6 0 0 1 .18-5.12c.18-1.1.6-2.81.94-3.8a32.43 32.43 0 0 1 3.34-6.8c.45-.65 1.5-1.93 2.36-2.84.85-.91 2.43-2.33 3.5-3.14a27.11 27.11 0 0 1 4.18-2.53 51.69 51.69 0 0 1 3.56-1.51 6.58 6.58 0 0 0 3.78-3.74c.17-.6.32-1.42.32-1.84a8 8 0 0 0-.29-1.78 6.35 6.35 0 0 0-1.23-2.06 8.28 8.28 0 0 0-1.5-1.35 9.93 9.93 0 0 0-1.88-.6l-1.32-.31 2.51-.5c1.89-.37 3.65-.5 7.02-.49 3.13.01 5.2.15 6.81.47 1.28.25 3.4.8 4.73 1.24 1.32.43 3.4 1.27 4.62 1.87a47.6 47.6 0 0 1 4.46 2.57c1.23.83 3.09 2.26 4.13 3.2a46.4 46.4 0 0 1 3.58 3.67c.93 1.1 1.7 2.14 1.7 2.34 0 .19-.4.98-.9 1.74a48.1 48.1 0 0 0-1.95 3.51 43.18 43.18 0 0 0-1.87 4.5 49.47 49.47 0 0 0-1.29 4.63c-.37 1.75-.48 3.43-.47 7.54 0 3.46.12 5.84.35 6.88a49.6 49.6 0 0 0 3.07 9.02 35.55 35.55 0 0 0 2.24 4.05l1.11 1.63-.86 1.12a58.41 58.41 0 0 1-5.54 5.74c-.1 0 .04-.44.31-.98.33-.63.5-1.53.5-2.54 0-.9-.18-1.94-.44-2.49a7.72 7.72 0 0 0-1.35-1.81 7.28 7.28 0 0 0-2.07-1.33c-.77-.3-1.63-.4-2.6-.32-1.22.1-1.81.36-3.65 1.59-1.2.8-2.67 1.7-3.25 2-.58.3-2.04.91-3.24 1.38a14 14 0 0 0-2.95 1.48 6.38 6.38 0 0 0-1.32 1.83 6.28 6.28 0 0 0-.06 5.03c.26.58.97 1.5 1.58 2.05.6.55 1.19 1 1.3 1 .1.01.77.17 1.47.35l1.27.34-2.33.47c-1.4.28-3.92.5-6.3.55zm-7.01-21.9c4.13-.05 4.76-.12 5.88-.63.68-.32 1.83-1.13 2.54-1.8a9.8 9.8 0 0 0 2.06-2.86l.76-1.65.08-11.12c.08-11 .07-11.14-.48-11.84-.55-.7-.62-.72-3.54-.72-2.7 0-3.04.06-3.5.56-.46.52-.5 1.2-.63 11.18l-.13 10.62-3.14.08c-2.08.05-3.26-.03-3.5-.24-.3-.25-.37-2.14-.37-10.72 0-10.07-.02-10.44-.53-10.95-.47-.46-.88-.53-3.44-.53s-2.97.07-3.44.53c-.51.51-.53.88-.53 11.6 0 9.02.07 11.3.4 12.37.21.71.84 1.9 1.4 2.62a10.42 10.42 0 0 0 4.68 3.3c.44.14 2.88.22 5.43.2zm20.56-.28c2.16-.04 2.51-.11 3.05-.64l.6-.6v-28.09l-.63-.5c-.53-.43-1.06-.5-3.5-.5-2.53 0-2.95.06-3.41.52-.52.52-.53.88-.53 14.5 0 12.02.05 14.04.4 14.53.22.31.66.63.99.7.33.07 1.69.1 3.03.08z" transform="translate(-10.09 -39.19) scale(.35445)"/><path style="fill:#2199fd" d="M127.68 215.42c-2.26.06-4.4.06-4.77 0-.36-.07-1.53-.25-2.6-.4a39.08 39.08 0 0 1-4.24-.96c-1.5-.45-2.97-1-4.4-1.62a49.66 49.66 0 0 1-4.1-2.13 49.32 49.32 0 0 1-4.12-2.83 40.93 40.93 0 0 1-4-3.65A44.2 44.2 0 0 1 96 199.5a44.5 44.5 0 0 1-2.52-4.19 54.87 54.87 0 0 1-1.87-4.37 45.4 45.4 0 0 1-1.53-5.3c-.49-2.26-.6-3.6-.6-7.4 0-3.78.11-5.12.6-7.39.32-1.52 1-3.9 1.52-5.29.52-1.39 1.4-3.4 1.97-4.47.63-1.17 1.3-2.32 2.01-3.44a49.3 49.3 0 0 1 2.77-3.65 40.29 40.29 0 0 1 7.97-7.06 54.1 54.1 0 0 1 3.83-2.13c1.53-.74 3.1-1.4 4.7-1.96 1.56-.51 3.15-.94 4.76-1.29 1.79-.36 3.55-.48 7.14-.47 3.87.01 5.24.12 7.33.58 1.42.32 3.5.9 4.63 1.28a43.45 43.45 0 0 1 8.12 3.94c.78.5 2.3 1.62 3.37 2.48a31.1 31.1 0 0 1 2.61 2.31l.66.75-.85-.7a5.66 5.66 0 0 0-4.58-.97c-.65.14-1.62.55-2.16.9a6.8 6.8 0 0 0-1.72 1.91 4.67 4.67 0 0 0-.73 2.98c0 1.08.17 2.02.44 2.52.24.43.98 1.43 1.66 2.22l1.22 1.43-.76.82a290.53 290.53 0 0 0-5.76 7.25c-.22.28-.93-.47-3.29-3.51-1.65-2.14-3.22-4-3.47-4.13a2.85 2.85 0 0 0-1.13-.25c-.4 0-1.45.62-2.73 1.62-1.14.9-2.22 1.81-2.4 2.04-.18.23-.33.74-.33 1.13 0 .51.75 1.68 2.56 3.99l3.8 4.85 1.25 1.59-3.8 4.9c-2.7 3.46-3.8 5.09-3.8 5.58 0 .39.2.94.46 1.24.25.3 1.33 1.2 2.4 2.01 1.45 1.1 2.17 1.48 2.82 1.48.66 0 1.06-.22 1.63-.87.41-.48 1.88-2.33 3.26-4.13 2.27-2.94 2.54-3.2 2.84-2.76.18.26 1.61 2.1 3.18 4.06 2.47 3.1 2.97 3.59 3.77 3.73.51.1.68.18.36.2-.33.02-1.37.87-2.51 2.04-1.1 1.14-2.3 2.2-3.55 3.16a32.51 32.51 0 0 1-7.22 3.7c-.77.25-1.82.82-2.33 1.26-.56.5-1.03 1.1-1.4 1.76-.3.64-.52 1.3-.65 2a5.6 5.6 0 0 0 .2 2.33c.22.7.7 1.67 1.07 2.16.37.49 1.3 1.2 2.06 1.57.76.38 1.74.7 2.19.72.47.01-.12.23-1.44.53a36.5 36.5 0 0 1-6.35.62zm-15.61-21.88c4.1-.06 4.77-.13 5.86-.64a11.14 11.14 0 0 0 4.5-4.2l.62-1.58.07-11.34c.07-9.93.03-11.42-.33-11.97-.4-.6-.55-.63-3.39-.63-1.63 0-3.1.1-3.26.2-.16.1-.43.45-.6.77-.2.4-.3 3.6-.3 10.73 0 7.54-.08 10.23-.32 10.47-.2.2-1.32.32-3.25.32s-3.05-.11-3.26-.32c-.23-.24-.31-2.96-.31-10.6 0-6.2-.1-10.48-.26-10.77-.14-.26-.64-.61-1.1-.77-.46-.17-1.82-.3-3.01-.3-1.8 0-2.3.1-2.87.55l-.7.55v11.05c0 9.13.07 11.28.4 12.4a9 9 0 0 0 1.26 2.47c.47.61 1.3 1.47 1.83 1.9a9.7 9.7 0 0 0 2.38 1.28c1.2.43 2.07.49 6.04.43zm39.34-9.48-.34 1.32-2.1-2.69c-.95-1.2-1.89-2.41-2.82-3.63l-.7-.95 3.31-4.22c1.83-2.33 3.56-4.59 3.84-5.02.4-.62.48-.66.35-.2-.17.57-.1.6 1.36.6a4.9 4.9 0 0 0 2.92-.8 5.42 5.42 0 0 0 2.11-2.05c.6-1 .74-1.58.74-2.9v-1.64l.44.85a38.64 38.64 0 0 1 3.31 13.63c.1 1.75.03 4.07-.18 6.01-.33 2.93-.37 3.07-.55 1.9-.1-.7-.5-1.8-.88-2.44a5.6 5.6 0 0 0-1.9-1.88 7.29 7.29 0 0 0-2.36-.83c-.65-.08-1.7.01-2.34.19a6.32 6.32 0 0 0-3.48 2.67c-.3.67-.55 1.37-.73 2.08zm2.06-31.6c-125-41.9-125-41.9 0 0z" transform="translate(-10.09 -39.19) scale(.35445)"/><path style="fill:#f87b14" d="M75.45 214.13a6.03 6.03 0 0 1-2.4-.3 7.07 7.07 0 0 1-1.96-1.25 7.57 7.57 0 0 1-1.38-1.9 6.28 6.28 0 0 1 .06-5.03c.3-.67.9-1.49 1.31-1.84a14 14 0 0 1 2.95-1.48c1.2-.47 2.66-1.09 3.24-1.38.58-.3 2.05-1.2 3.25-2 1.84-1.23 2.43-1.49 3.65-1.59a5.9 5.9 0 0 1 2.6.32c.64.25 1.57.84 2.07 1.33.5.49 1.11 1.3 1.35 1.81.26.54.44 1.58.44 2.46a6.1 6.1 0 0 1-.56 2.7 6.89 6.89 0 0 1-1.93 2.19c-.76.57-2.38 1.64-3.61 2.37a40.97 40.97 0 0 1-4.98 2.4c-1.51.6-3.36 1.13-4.1 1.2z" transform="translate(-10.09 -39.19) scale(.35445)"/><path style="fill:#548a91" d="M76.74 245.95c-6.1 0-11.57-.12-12.14-.25a11.89 11.89 0 0 1-5.21-3.07 14.1 14.1 0 0 1-1.92-2.94l-.83-1.77-.1-6.97c-.07-6.64-.05-6.96.4-6.82.27.08 1.55.33 2.84.56 3.97.52 7.98.52 11.95.02 1.3-.22 3.45-.7 4.76-1.08 1.3-.38 3.61-1.28 5.13-2 1.51-.72 3.77-2 5.02-2.82a49.96 49.96 0 0 0 5.52-4.67c2.66-2.59 3.4-3.16 4.03-3.16.64 0 1.37.57 4.03 3.16a49.12 49.12 0 0 0 5.5 4.64c1.23.82 3.2 1.97 4.36 2.55a44 44 0 0 0 4.5 1.86c1.3.45 3.51 1.01 4.9 1.26 1.38.24 2.66.48 2.84.53.24.07.33 1.08.33 3.91v3.82l-3.64.1c-3.09.08-3.8.18-4.7.66-.58.32-1.43.97-1.9 1.45a7.58 7.58 0 0 0-1.28 1.93 7.93 7.93 0 0 0-.44 2.53c0 .81.2 1.95.44 2.52a7.28 7.28 0 0 0 2.92 3.23c.43.23 1.09.5 1.45.62.37.1-3.02.2-7.54.2-7.53 0-8.1-.03-6.96-.38.8-.24 1.67-.8 2.44-1.58.75-.7 1.3-1.58 1.6-2.56.23-.74.41-1.67.41-2.05a9.8 9.8 0 0 0-.4-2.06 5.86 5.86 0 0 0-1.6-2.55 5.86 5.86 0 0 0-2.56-1.6c-1.03-.3-2.7-.4-6.93-.4-3.07 0-6 .11-6.51.26-.51.14-1.49.6-2.16 1.03a6.53 6.53 0 0 0-1.97 2.06c-.65 1.1-.76 1.55-.76 3.26 0 1.69.11 2.17.74 3.23a7.9 7.9 0 0 0 1.6 1.92c.5.37 1.35.84 1.92 1.05.93.34-.13.37-10.08.37zm12.74-63.92c-.26-.74 0 0 0 0zm0-6.62c-61.01-64.85-61.01-64.85 0 0zm6.7-18.88c-.08.01-.37-.36-.64-.84a36 36 0 0 0-3.44-3.77 43.06 43.06 0 0 0-5.22-4.44 52.02 52.02 0 0 0-4.63-2.7 43.13 43.13 0 0 0-4.85-1.99 48.9 48.9 0 0 0-5.68-1.36c-2.4-.45-4.85-.58-7.28-.4-2.26.09-4.87.34-5.82.56-.95.21-1.81.4-1.92.4-.1 0-.2-4.96-.2-11.04 0-8.5.1-11.35.37-12.4a15 15 0 0 1 1.11-2.74c.42-.76 1.3-1.86 1.95-2.44.66-.58 1.74-1.33 2.4-1.66.85-.4 1.73-.7 2.64-.91 1.08-.24 9.29-.3 32.16-.23l30.7.08 2 .99c1.25.61 2.43 1.44 3.12 2.2.62.66 1.5 2 1.96 2.98l.84 1.77.07 11.74.08 11.74-.74-.16c-.4-.1-1.93-.36-3.38-.6-1.92-.3-3.67-.38-6.35-.28-2.04.07-4.72.33-5.96.57-1.23.25-3.32.8-4.63 1.25a44.82 44.82 0 0 0-8.52 4.1 39.38 39.38 0 0 0-8.1 7.26c-.63.81-1.32 1.59-2.04 2.32zm0-31.47c9.74 0 10.54-.04 11.58-.51.65-.3 1.35-.88 1.65-1.38.35-.57.54-1.34.54-2.2 0-.86-.19-1.63-.54-2.2-.3-.5-1-1.1-1.65-1.38-1.04-.48-1.83-.51-11.57-.51-9.62 0-10.54.04-11.53.49-.65.3-1.33.88-1.68 1.45-.38.62-.6 1.38-.6 2.15 0 .68.22 1.56.5 2.05.28.48 1 1.12 1.66 1.45 1.16.59 1.31.6 11.64.6z" transform="translate(-10.09 -39.19) scale(.35445)"/><path style="fill:#0173fb" d="M135.64 214.24a6.97 6.97 0 0 1-4.43-2.26 8.15 8.15 0 0 1-1.05-2.16 5.52 5.52 0 0 1-.21-2.32c.1-.59.39-1.5.65-2.01.27-.53.9-1.32 1.4-1.76a7.92 7.92 0 0 1 2.33-1.26 32.51 32.51 0 0 0 7.22-3.7 32.3 32.3 0 0 0 3.55-3.16c1.07-1.1 2.15-2 2.4-2 .26 0 1-.38 1.63-.84.64-.45 1.8-1.36 2.56-2 1.16-.99 1.39-1.32 1.39-2.06 0-.6-.3-1.27-.93-2.1a4.6 4.6 0 0 1-.93-1.73c0-.28.25-1.17.55-1.97.36-.97.9-1.77 1.6-2.36a7.07 7.07 0 0 1 2.23-1.24 7.47 7.47 0 0 1 2.38-.19c.66.07 1.76.48 2.44.9a5.2 5.2 0 0 1 2 2.21c.66 1.27.74 1.66.63 3.04-.07.87-.51 2.78-.98 4.23a49.8 49.8 0 0 1-1.85 4.77 42.61 42.61 0 0 1-2.47 4.36 42.64 42.64 0 0 1-7.12 8.07c-.98.86-2.59 2.09-3.57 2.73-.98.63-2.68 1.6-3.77 2.16a44 44 0 0 1-4.32 1.83c-1.29.45-2.78.82-3.33.82zm18.73-44.98h-1.5l.14-1.2c.1-.9.02-1.32-.32-1.7a29.28 29.28 0 0 0-2.42-2c-1.2-.92-2.27-1.53-2.74-1.57-.57-.04-1.1-.44-2-1.49a17.8 17.8 0 0 1-1.66-2.22 5.93 5.93 0 0 1-.44-2.52 4.66 4.66 0 0 1 .73-2.98c.4-.7 1.18-1.55 1.72-1.9a7.91 7.91 0 0 1 2.2-.92c.9-.2 1.57-.18 2.55.07.73.2 1.67.63 2.09.98.42.35 1.42 1.4 2.21 2.32.8.92 2.18 2.8 3.08 4.18a19.69 19.69 0 0 1 1.95 3.69 6 6 0 0 1 .15 2.3c-.1.62-.48 1.63-.84 2.25a5.47 5.47 0 0 1-2.04 1.92c-1.08.62-1.7.79-2.86.79z" transform="translate(-10.09 -39.19) scale(.35445)"/><path style="fill:#347678" d="M93.7 245.97c-4.38-.01-6.1-.11-6.88-.4a8.77 8.77 0 0 1-1.91-1.04 7.9 7.9 0 0 1-1.61-1.92c-.63-1.06-.74-1.54-.74-3.23 0-1.7.11-2.17.76-3.26a6.53 6.53 0 0 1 1.97-2.06c.67-.42 1.65-.9 2.16-1.03.51-.15 3.44-.26 6.51-.27 4.22 0 5.9.1 6.93.4.94.28 1.73.78 2.56 1.6a5.86 5.86 0 0 1 1.6 2.56c.22.75.4 1.67.4 2.06 0 .38-.18 1.3-.4 2.05a5.86 5.86 0 0 1-1.6 2.56 5.86 5.86 0 0 1-2.56 1.6c-1.05.31-2.7.4-7.2.38zm28.02-.08c-3.05.05-5.85-.01-6.22-.13a11.4 11.4 0 0 1-1.45-.63 7.94 7.94 0 0 1-1.64-1.3 7.57 7.57 0 0 1-1.28-1.93 7.93 7.93 0 0 1-.44-2.52 8 8 0 0 1 .44-2.53c.24-.57.81-1.44 1.28-1.93a9.14 9.14 0 0 1 1.9-1.45c.9-.48 1.61-.58 4.7-.66l3.64-.1v-3.82c0-2.83-.09-3.84-.33-3.9a79.3 79.3 0 0 0-2.85-.54 40.08 40.08 0 0 1-4.9-1.26 44 44 0 0 1-4.49-1.86 50.36 50.36 0 0 1-4.36-2.55 49.12 49.12 0 0 1-5.5-4.64c-2.66-2.59-3.4-3.16-4.03-3.16-.64 0-1.37.57-4.03 3.16a49.96 49.96 0 0 1-5.52 4.67c-1.25.83-3.5 2.1-5.02 2.82a41.08 41.08 0 0 1-5.13 2c-1.3.38-3.45.86-4.77 1.07a44.09 44.09 0 0 1-11.94-.01 45.2 45.2 0 0 1-2.81-.55c-.42-.13-.47-.6-.47-4.92 0-4.3.05-4.75.43-4.6.24.09 1.45.34 2.68.55 1.3.23 3.9.4 6.15.4 2.24 0 4.85-.17 6.12-.4 1.23-.2 3.3-.69 4.6-1.07 1.31-.37 3.4-1.13 4.66-1.68a39.42 39.42 0 0 0 14.64-11.73l.42-.6.7.92a59.8 59.8 0 0 0 3.63 3.85 40.93 40.93 0 0 0 5.19 4.4c1.23.8 3.2 1.95 4.36 2.54 1.17.58 3.2 1.42 4.52 1.86 1.32.45 3.35 1 4.5 1.25 1.15.24 3.82.5 5.93.58 2.8.1 4.62.02 6.75-.3 1.6-.23 3.18-.5 3.52-.59l.6-.16-.07 11.6c-.08 11.16-.11 11.67-.65 13-.31.76-1 1.96-1.52 2.68-.52.71-1.59 1.73-2.36 2.27a13 13 0 0 1-2.72 1.4c-.99.32-2.64.44-6.86.5zM96.18 125.07c-10.33 0-10.48 0-11.64-.59a4.53 4.53 0 0 1-1.66-1.45 4.73 4.73 0 0 1-.5-2.05c0-.77.22-1.53.6-2.15a4.16 4.16 0 0 1 1.68-1.45c1-.45 1.9-.5 11.53-.5 9.74 0 10.53.04 11.57.52.65.29 1.35.87 1.65 1.38.35.57.54 1.34.54 2.2 0 .86-.19 1.63-.54 2.2-.3.5-1 1.09-1.65 1.38-1.04.47-1.84.5-11.58.51z" transform="translate(-10.09 -39.19) scale(.35445)"/></svg>