<svg xmlns="http://www.w3.org/2000/svg" width="64" height="64" fill-rule="evenodd" clip-rule="evenodd"><linearGradient id="a" x1="32" x2="32" y1="58" y2="6" gradientTransform="matrix(1 0 0 -1 0 64)" gradientUnits="userSpaceOnUse"><stop offset="0" stop-color="#1a6dff"/><stop offset=".69" stop-color="#c822ff"/></linearGradient><path fill="url(#a)" d="M53.5 17.5c-.3.8-.5 1.6-.8 2.5 2.1 3.5 3.2 7.6 3.2 12 0 13.2-10.8 24-24 24-7.9 0-15-3.9-19.4-9.8-.2-.2-.3-.4-.5-.6C9.6 41.7 8 37 8 32a24.07 24.07 0 0 1 37.5-19.9c.7-.3 1.4-.7 2.1-1C43.2 8 37.8 6 32 6 17.7 6 6 17.7 6 32s11.7 26 26 26 26-11.7 26-26c0-5.3-1.7-10.3-4.5-14.5z"/><linearGradient id="b" x1="26.75" x2="26.75" y1="54.05" y2="20.45" gradientTransform="matrix(1 0 0 -1 0 64)" gradientUnits="userSpaceOnUse"><stop offset="0" stop-color="#6dc7ff"/><stop offset=".7" stop-color="#e6abff"/></linearGradient><path fill="url(#b)" d="m13.5 43.1-.2.5c-.2-.2-.3-.4-.4-.7C11 39.7 10 36 10 32a22 22 0 0 1 22-22c4.2 0 8.2 1.2 11.5 3.2-13 7-24.1 19.4-30 29.9z"/><linearGradient id="c" x1="52.27" x2="52.27" y1="41.24" y2="20.87" gradientTransform="matrix(1 0 0 -1 0 64)" gradientUnits="userSpaceOnUse"><stop offset="0" stop-color="#6dc7ff"/><stop offset=".7" stop-color="#e6abff"/></linearGradient><path fill="url(#c)" d="M54 32c0 4-1.1 7.7-2.9 11 0 .1-.1.1-.1.2-1-8.3-.2-15.2 1-20.4 1.3 2.8 2 5.9 2 9.2z"/><path fill="none" d="M28.7 50.9z"/><linearGradient id="d" x1="34.8" x2="34.8" y1="4.6" y2="40.77" gradientUnits="userSpaceOnUse"><stop offset="0" stop-color="#1a6dff"/><stop offset="1" stop-color="#c822ff"/></linearGradient><path fill="url(#d)" d="M54.4 10.9c-1 1.5-7.8 13.6-5.3 33l-33.9.2C23.2 29.8 39 15 54.4 10.9z"/><linearGradient id="e" x1="612.31" x2="612.31" y1="-142.81" y2="-142.81" gradientTransform="scale(1 -1) rotate(-39.55 513.08 723.05)" gradientUnits="userSpaceOnUse"><stop offset="0" stop-color="#1a6dff"/><stop offset=".69" stop-color="#c822ff"/></linearGradient><path fill="url(#e)" d="M38.3 7.8z"/><linearGradient id="f" x1="630.95" x2="630.95" y1="-182.66" y2="-182.66" gradientTransform="scale(1 -1) rotate(-39.55 513.08 723.05)" gradientUnits="userSpaceOnUse"><stop offset="0" stop-color="#1a6dff"/><stop offset=".69" stop-color="#c822ff"/></linearGradient><path fill="url(#f)" d="M27.3 50.4z"/><linearGradient id="g" x1="31.95" x2="31.95" y1="36.64" y2="53.74" gradientUnits="userSpaceOnUse"><stop offset="0" stop-color="#6dc7ff"/><stop offset=".7" stop-color="#e6abff"/></linearGradient><path fill="url(#g)" d="M51.1 43C47.3 49.6 40.2 54 32 54s-15.4-4.5-19.2-11.1c.4.1.8.1 1.2.1 2.6 0 4.8-.9 6-3 1.2 2.1 3.4 3 6 3s4.8-.9 6-3c1.2 2.1 3.4 3 6 3s4.8-.9 6-3c1.2 2.1 3.4 3 6 3h1.1z"/></svg>