<svg width="48" height="47.66" viewBox="0 0 1.92 1.91" xmlns="http://www.w3.org/2000/svg"><path d="M.06.97H.05A.08.08 0 0 1 .02.93.12.12 0 0 1 0 .87V.86L.01.82V.8L.04.8V.65L.06.64.07.62.08.6V.57C.09.55.1.53.12.52L.13.5.14.5V.47h.01L.18.45V.44L.23.41V.35h.02v.01l.02.01h.08C.35.36.37.34.37.32A.1.1 0 0 1 .4.28.14.14 0 0 1 .44.25.07.07 0 0 0 .47.2C.47.18.5.16.51.15L.57.1H.6L.62.07.63.06.66.04h.06a.1.1 0 0 1 .04.01H.8L.84 0 .86 0a.1.1 0 0 1 .03.01l.04.01H1L1 .04l.04-.01h.01l.02.04h.02l.03.02c0 .02.02.03.03.04.02.01.03.02.04.01h.05c.02 0 .03 0 .05.02h.14c.02 0 .04 0 .05.02L1.5.2c0 .02.02.02.03.02h.08l.03.03.01.01.01.05s.01.02.03.02h.01l.03.02v.02l.03.04v.04h.02l.01.04v.08c.02 0 .02.02.02.03v.04L1.8.66v.02l.01.03c.02.01.02.03.02.04v.07l.01.02.01.01.02.01.03.05.01.05V1.15c0 .01 0 .02-.02.03l-.02.01v.08l-.01.04-.03.02v.01l-.02.02v.02l-.02.02-.03.02a.19.19 0 0 0-.03.03l-.01.03-.03.02h-.04c-.01 0-.03 0-.03.02a.1.1 0 0 1-.02.03l-.01.03h-.02c-.01 0-.02 0-.03.02l-.03.04a.06.06 0 0 1-.04.01l-.02.02v.03l-.02.02-.02.04a.07.07 0 0 1-.05.04H1.3s-.02 0-.02.02l-.01.01-.01.02c-.01.02-.02.03-.04.03H1.1c0 .02-.02.02-.03.03h-.02a.1.1 0 0 1-.05 0H.96l-.02-.01H.88l-.02-.01-.02-.02-.03-.02H.8c-.02 0-.03 0-.04-.02L.72 1.8H.7l-.02-.02H.68a.1.1 0 0 0-.04-.02l-.05-.01H.56l-.03-.02-.02-.01-.04.01H.46a.12.12 0 0 1-.1-.05.06.06 0 0 0-.04-.02H.29a.13.13 0 0 1-.04-.03.09.09 0 0 1-.03-.03.1.1 0 0 1-.02-.04.04.04 0 0 0-.02-.04.12.12 0 0 1-.05-.03.06.06 0 0 1-.02-.04v-.07a.05.05 0 0 1-.02-.03V1.3l-.02-.06c0-.02 0-.04.02-.05.02-.01.02-.02.01-.03-.01-.02-.02-.02-.03-.02V.99L.06.97zm.79-.1V.83L.83.82V.81A.1.1 0 0 0 .8.78L.78.76V.73L.8.68.79.67.78.64V.61A.1.1 0 0 0 .8.58V.5L.82.47.83.46.84.45V.38L.86.35A.09.09 0 0 1 .91.3h.02L.95.27V.24h.01L1 .2V.18C1 .17 1 .15.97.15H.81L.8.19S.8.2.77.2L.75.21H.74L.7.22a.07.07 0 0 0-.04.04.1.1 0 0 1-.04.05.06.06 0 0 0-.03.05L.6.41C.57.42.56.43.57.44v.07L.57.54a.03.03 0 0 0-.02.02v.06c.02 0 .03.02.03.04v.02l.03.04.03.04C.65.8.66.8.68.8S.72.8.73.82l.04.02.02.01.04.02h.03zm.1-.08h.01V.77L.98.75 1 .72 1.02.7h.03l.03-.02.01-.04c.02 0 .02-.01.03-.02h.06L1.2.6l.02-.02.05-.01h.07L1.4.55a.2.2 0 0 1 .04 0h.01c.02 0 .03 0 .04.02l.04.02h.01l.01-.01h.01a.1.1 0 0 1 .04 0h.01l.04.02h.01l.01-.01V.56L1.63.51V.49L1.63.47a.07.07 0 0 1-.04-.02L1.56.4 1.54.39h-.03c-.01 0-.02 0-.03-.02a.1.1 0 0 1-.02-.03h-.09L1.33.33 1.3.3H1.3l-.04.02h-.04l-.02.02h-.03l-.02.02-.03.01h-.04a.03.03 0 0 0-.03.03v.02l-.02.04L1 .48H.98L.96.5v.05C.96.57.95.58.94.58H.92V.67L.91.7v.02l.01.02V.8zm.62.58h.05l.02-.03V1.3h.01V1.3l.02-.02.02-.02v-.02h.01l.02-.02V1.06l.01-.02v-.02l-.02-.02L1.7.96V.92A.02.02 0 0 0 1.68.9c-.02 0-.04 0-.05-.02L1.6.84 1.6.83A.19.19 0 0 0 1.56.8L1.53.78h-.01L1.49.77h-.02l-.01.01h-.02V.75L1.43.72h-.01a.1.1 0 0 1-.05 0L1.34.71h-.02a.07.07 0 0 1-.04.02h-.06a.1.1 0 0 1-.03.02h-.02c-.01 0-.02 0-.03.02L1.1.79a.06.06 0 0 0-.04.03v.03l.02.01h.1a.1.1 0 0 1 .03.02l.03.01.04.01c.02 0 .02.01.03.02v.02c0 .02.01.02.02.02h.05v.01s.02 0 .02.02l.02.02v.01a.2.2 0 0 1 0 .04c0 .01 0 .02.02.02l.02.01a.1.1 0 0 1 .04.03l.02.04v.01a.1.1 0 0 1-.01.04v.02h.01c.02 0 .03.02.04.03v.11zm-.5-.41h-.01v.06l.02.03.03.04v.06l.02.04v.04c0 .01 0 .02-.02.02l-.01.02v.07l-.01.04-.01.01-.02.02-.01.01v.03l-.03.05a.11.11 0 0 1-.04.03l-.03.02-.02.02v.03c0 .01 0 .03-.02.04l-.02.02-.01.01a.04.04 0 0 1-.04.02H.8l-.03-.01v.01c0 .01 0 .02.02.02h.04l.03.02h.08v.01h.02L1 1.73a.1.1 0 0 1 .04-.01h.05l.01-.01.02-.02h.02l.03-.02h.03c.01 0 .02 0 .02-.02l.02-.03.02-.03.04-.01c.02 0 .03-.02.02-.03V1.5l.01-.03.02-.03.02-.02v-.07a.1.1 0 0 1 0-.04l.01-.03v-.03l-.01-.01a.06.06 0 0 1-.02-.04v-.04a.05.05 0 0 0-.03-.04l-.03-.02v-.03l-.01-.01-.01-.01-.04-.02H1.2c0-.02-.01-.02-.02-.01h-.01s-.01 0 0 0L1.14 1 1.14.98 1.1.96 1.1.97v.01h-.01L1.06.95zm-.1.08H.94l-.01.03s-.02.02-.03.01a.02.02 0 0 0-.02.02l-.02.04v.01l-.04.02-.02.02v.02H.78a.06.06 0 0 1-.04.03H.71s-.02 0-.03.02l-.03.02H.54v.01a.05.05 0 0 1-.04.02H.44l-.02-.02-.02-.01-.02-.03H.35l-.04.02H.29l-.03-.02a.02.02 0 0 0-.02.03v.06l.03.03.02.03.02.02.02.02.04.01.02.03h.04l.01.03h.04l.04.03.02-.02v-.04h.01v.02s0 .02.02.02h.12l.04-.02.03-.02.03-.02h.03c.02 0 .03-.01.03-.03v-.01l.02-.03.02-.02H.9l.03-.03v-.02c0-.02.02-.04.03-.05V1.2l.01-.03.01-.01v-.08l-.01-.03zM.85.98.84.95H.76a.2.2 0 0 1-.05 0L.69.94H.67L.64.92A.07.07 0 0 1 .59.9V.89L.56.87H.5C.49.84.48.83.48.81V.79L.44.77A.2.2 0 0 1 .42.75.09.09 0 0 1 .39.7V.67a.1.1 0 0 0 0-.04V.6H.36A.06.06 0 0 1 .35.54V.5C.35.47.35.47.33.47L.31.49.29.52.26.56.25.58.24.62.22.65.2.67v.04L.2.76V.8L.24.8v.02L.21.83v.09l.02.01.02.02h.01l.01.01.02.02v.04l.02.02h.01l.02.01.04.02.02.03c.01.01.02.02.03.01h.07l.03.02h.03l.03-.01h.06l.01-.02.03-.02h.04l.02-.01.02-.02H.8l.01-.02.02-.01V1C.86 1 .86 1 .86.98z" style="stroke-width:.0601365;fill:#f15657;fill-opacity:1"/></svg>