<svg width="48" height="38" xmlns="http://www.w3.org/2000/svg"><path d="M32.19 38H1.79c-.37 0-.91-.17-1.19-.42-.38-.34-.6-.84-.6-1.36V1.77C0 .96.51.27 1.27.06c.14-.04.27-.06.41-.06h30.5c.16 0 .74.03 1.2.43a1.6 1.6 0 0 1 .38.5c.06.11.1.23.16.4.05.16.08.32.08.48v34.37c0 .48-.17.93-.5 1.26-.28.33-.78.56-1.31.56Zm-30.4-1.74v.24ZM3 35h28V3H3Zm43.18 3h-8.86a1.8 1.8 0 0 1-1.82-1.81V31.8c0-1.01.8-1.81 1.82-1.81h8.86c.17 0 .34.03.5.08.78.21 1.32.89 1.32 1.74v4.38c0 1.03-.78 1.8-1.82 1.8Zm-7.68-3H45v-2h-6.5z" fill="#595bd4" class="color000000 svgShape" style="stroke-width:2"/><path d="M14.26 30c-2.78 0-4.85-1.43-5.7-3.92A13.76 13.76 0 0 1 8 21.44c0-2 .18-3.39.6-4.61.93-2.45 3.02-3.83 5.75-3.83 2.26 0 3.76.65 5.18 2.23a1.5 1.5 0 1 1-2.23 2c-.77-.85-1.37-1.23-2.95-1.23-1.5 0-2.45.6-2.92 1.85-.3.85-.43 1.94-.43 3.6 0 1.32.05 2.68.4 3.64.43 1.3 1.37 1.91 2.87 1.91a3.7 3.7 0 0 0 3.12-1.44 1.5 1.5 0 1 1 2.23 2.01A6.63 6.63 0 0 1 14.26 30Z" fill="#595bd4" class="color000000 svgShape" style="stroke-width:2"/></svg>