<svg width="48" height="46.989" viewBox="0 -0.5 1.44 1.41" fill="none" xmlns="http://www.w3.org/2000/svg"><path fill-rule="evenodd" clip-rule="evenodd" d="M.723-.5A.723.723 0 0 0 .495.908c.036.007.05-.015.05-.035V.751C.341.794.3.653.3.653A.193.193 0 0 0 .22.547C.154.503.225.503.225.503a.152.152 0 0 1 .11.075.154.154 0 0 0 .21.06A.153.153 0 0 1 .59.54C.43.523.26.461.26.186a.28.28 0 0 1 .075-.194.263.263 0 0 1 .007-.19s.06-.02.199.073a.684.684 0 0 1 .362 0c.138-.093.198-.074.198-.074.027.06.03.128.009.19a.28.28 0 0 1 .074.194c0 .278-.17.338-.33.355a.17.17 0 0 1 .05.133V.87c0 .024.012.042.049.035A.723.723 0 0 0 .723-.5Z" fill="#758ca3" style="stroke-width:.0628456"/></svg>