<svg width="48" height="57.36" xmlns="http://www.w3.org/2000/svg"><path fill="#b3b1b0" d="M48 34.31c0-1.77-1.35-3.21-3.01-3.21H20.93c-1.66 0-3 1.44-3 3.21s1.34 3.22 3 3.22H45c1.66 0 3.01-1.44 3.01-3.22Z" style="display:inline;stroke-width:2.39019"/><path fill="#9c9a99" d="M48 34.31H17.92c0 1.77 1.35 3.22 3.01 3.22H45c1.66 0 3.01-1.44 3.01-3.22Z" style="display:inline;stroke-width:2.39019"/><path fill="#e7a41f" d="m3.74 43.47 10.3 10.42c2.33 2.34 5.55 3.47 9.1 3.47s6.76-1.22 9.1-3.57l6.18-6.3a3.23 3.23 0 0 0-.1-4.54 3.17 3.17 0 0 0-4.5-.1l-6.4 6.24a5.88 5.88 0 0 1-4.31 1.58 5.9 5.9 0 0 1-4.33-1.58L8.51 38.66a6.3 6.3 0 0 1-1.67-4.45c0-1.7.56-3.25 1.67-4.36l10.24-10.47c1.11-1.12 2.67-1.54 4.36-1.54 1.69 0 3.22.46 4.32 1.58l6.4 6.23a3.17 3.17 0 0 0 4.5-.1 3.23 3.23 0 0 0 .1-4.54l-6.2-6.3a11.92 11.92 0 0 0-5.71-3.17l-.08-.02 5.85-5.98a3.23 3.23 0 0 0-.1-4.55A3.17 3.17 0 0 0 27.7.9L3.74 25.04A12.8 12.8 0 0 0 .2 34.21c0 3.58 1.21 6.92 3.54 9.26z" style="display:inline;stroke-width:2.39019"/><path fill="#070706" d="M14.81 54.53c-.42-.23-.8-.52-1.13-.86-3.17-3.19-6.36-6.36-9.52-9.55a13.83 13.83 0 0 1 .13-19.9c3.35-.39 5.29 2.3 4.42 5.17-2.71 2.79-2.34 6.88.45 9.72 3.12 3.2 6 6.13 9.15 9.3l.92 1c1.12.72.73 2.8.03 3.81-.76 1.12-1.76 1.8-3.18 1.74a2.77 2.77 0 0 1-1.27-.43z" style="display:inline;stroke-width:2.39019"/><path fill="#272726" d="M29.91 0h-.07c-.45.01-.9.12-1.35.32-.42.19-.83.47-1.2.85l-23 23.05c-.74.74-1.45 1.51-2 2.4A14.2 14.2 0 0 0 0 34.42l6.88-.03c-.06-1.8.71-3.4 2.1-4.83 9.18-9.45 15.98-16.04 23.1-23.61 1.44-1.46 1.52-3.6.18-4.94A3.28 3.28 0 0 0 29.9 0Z" style="display:inline;stroke-width:2.39019"/></svg>