<svg width="48" height="48" viewBox="0 0 2.88 2.88" fill="none" xmlns="http://www.w3.org/2000/svg"><circle cx="1.44" cy="1.44" r="1.44" fill="#0077b5" style="stroke-width:.072"/><path fill-rule="evenodd" clip-rule="evenodd" d="M1.064.74c0 .09-.068.163-.175.163C.786.903.718.83.72.74.718.646.786.576.89.576c.106 0 .172.07.174.164zM.729 2.075V1.031h.324v1.044H.73ZM1.313 1.364c0-.13-.004-.241-.008-.333h.282l.015.143h.006a.382.382 0 0 1 .322-.167c.214 0 .374.141.374.449v.62h-.325v-.58c0-.134-.046-.226-.164-.226-.09 0-.143.062-.164.122a.23.23 0 0 0-.013.08v.603h-.325v-.711Z" fill="#fff" style="stroke-width:.072"/></svg>