<svg width="48" height="48" viewBox="0 0 61.44 61.44" xmlns="http://www.w3.org/2000/svg"><circle cx="30.72" cy="30.72" r="30.72" style="fill:#fcaf17;stroke-width:.06"/><path d="m40.65 35.83-1.04-6.53-3.82 6.48h-.73a5.55 5.55 0 0 1-.6-2.52c0-1.1.07-2.2.07-3.62 0-1.9-.55-2.88-2.03-3.24v-.05c3.12-.44 4.55-2.52 4.55-5.42 0-4.14-2.76-5.03-6.36-5.03h-9.7l-4.12 19.45h5.16l1.5-7.09h3.43c1.84 0 2.59.9 2.59 2.61 0 1.3-.15 2.35-.15 3.34 0 .36.08 1.23.34 1.57l3.73 3.95-3.22 6.89 6.87-4.09 5.13 3.94-.95-6.5 5.9-4.14zm-12.14-11.2H24.4l.99-4.69h3.82c1.35 0 2.78.36 2.78 2 0 2.11-1.62 2.7-3.48 2.7z" style="fill:#fff;stroke-width:.06"/></svg>