<svg width="48" height="48" fill="none" viewBox="0 1 48 48" xmlns="http://www.w3.org/2000/svg"><path fill="#2b374c" fill-rule="evenodd" d="M24 5.66c10.56 0 19.2 8.7 19.2 19.34A19.33 19.33 0 0 1 24 44.35c-10.56 0-19.2-8.7-19.2-19.35A19.33 19.33 0 0 1 24 5.65" clip-rule="evenodd" style="stroke-width:1.2"/><path fill="#f4bf2a" fill-rule="evenodd" d="M48 25c0-4.84-1.44-9.67-4.32-13.78v-5.8c0-.25-.24-.25-.24-.25h-5.76a24.13 24.13 0 0 0-27.12 0H4.32v6.05a24.15 24.15 0 0 0 0 27.56v5.8c0 .25.24.25.24.25h5.76a24.52 24.52 0 0 0 27.36 0h5.76c.24 0 .24-.24.24-.48v-5.8A22.74 22.74 0 0 0 48 25M3.12 25C3.12 13.4 12.48 3.96 24 3.96A20.97 20.97 0 0 1 44.88 25c0 11.6-9.36 21.04-20.88 21.04A20.98 20.98 0 0 1 3.12 25" clip-rule="evenodd" style="stroke-width:1.2"/><path fill="#f4bf2a" fill-rule="evenodd" d="M10.08 13.64H18c-.24.96-.24 1.93-.24 2.9.24 3.63 2.64 13.3 2.64 13.3L24 14.6l3.84 14.75s2.4-13.05 2.4-14.02c0-.73-.48-1.21-.96-1.7h8.4a8.13 8.13 0 0 0-2.4 3.88c-.72 2.9-3.36 17.4-3.36 18.37 0 .97.48 1.94.96 2.66H25.2c.24-.72.24-1.45.24-2.17 0-1.45-1.2-7.74-1.2-7.74s-1.68 6.53-1.68 7.74c0 .72.24 1.45.48 2.17h-7.92s1.44-1.2 1.44-2.17c-.24-2.9-4.32-18.38-4.56-19.59 0-1.2-.72-2.42-1.92-3.14" clip-rule="evenodd" style="stroke-width:1.2"/></svg>