<svg width="48mm" height="181.63" viewBox="0 0 48 48.06" xml:space="preserve" xmlns="http://www.w3.org/2000/svg"><path style="fill:#fff;stroke-width:.188329" d="M27.99 180.87h22.48v19.02H27.99z" transform="translate(-14.51 -165.65)"/><path style="fill:#5e55a7;stroke:none;stroke-width:.711796" d="M23.04 170.46h2.64c0-1.16.3-2.85-.14-3.94a1.26 1.26 0 0 0-2.28-.17c-.59 1.02-.22 2.96-.22 4.11m5.65 0h2.64c0-1.16.3-2.85-.14-3.94a1.26 1.26 0 0 0-2.28-.17c-.59 1.02-.22 2.96-.22 4.11m5.65 0h2.64c0-1.16.3-2.85-.14-3.94a1.26 1.26 0 0 0-2.28-.17c-.6 1.02-.22 2.96-.22 4.11m5.46 0h-1.32v5.47h-9.41c-1.1 0-2.8-.3-3.7.49-1.18 1.04-.63 3.92-.63 5.34v15.26c0 1.51-.62 4.8.63 5.91.9.8 2.6.5 3.7.5h9.41v5.45h1.32c0 1.25-.29 2.97.33 4.1.43.8 1.53.99 2.15.3.92-1 .54-3.15.54-4.4h2.63c0 1.25-.38 3.4.53 4.4.63.69 1.73.5 2.16-.3.61-1.13.33-2.85.33-4.1h2.63c0 1.25-.38 3.4.53 4.4.63.69 1.73.5 2.16-.3.61-1.13.33-2.85.33-4.1 3.07 0 3.57-.5 3.57-3.57 1.25 0 3.4.38 4.4-.54.69-.62.5-1.72-.3-2.15-1.13-.62-2.85-.33-4.1-.33v-2.63c1.25 0 2.97.28 4.1-.33.8-.43.99-1.53.3-2.16-1-.91-3.15-.53-4.4-.53v-2.63c1.25 0 2.97.28 4.1-.33.8-.43.99-1.53.3-2.16-1-.91-3.15-.53-4.4-.53v-2.63c1.25 0 2.97.28 4.1-.33.8-.43.99-1.53.3-2.16-1-.91-3.15-.53-4.4-.53v-2.63c1.25 0 2.97.28 4.1-.33.8-.43.99-1.53.3-2.16-1-.91-3.15-.53-4.4-.53v-2.63c1.25 0 2.97.28 4.1-.33.8-.43.99-1.53.3-2.16-1-.91-3.15-.53-4.4-.53 0-3.07-.5-3.58-3.57-3.58 0-1.24.38-3.4-.54-4.4-.62-.68-1.72-.49-2.15.3-.62 1.14-.33 2.86-.33 4.1h-2.63c0-1.24.38-3.4-.54-4.4-.62-.68-1.72-.49-2.15.3-.62 1.14-.33 2.86-.33 4.1h-2.63c0-1.24.38-3.4-.54-4.4-.62-.68-1.72-.49-2.15.3-.62 1.14-.33 2.86-.33 4.1m-20.53 6.4v-2.63c-1.16 0-2.85-.31-3.94.14a1.26 1.26 0 0 0-.17 2.28c1.02.59 2.96.22 4.11.22m0 5.65v-2.64c-1.16 0-2.85-.31-3.94.14a1.26 1.26 0 0 0-.17 2.28c1.02.59 2.96.22 4.11.22M38.67 194H33.6c-.26 1.38-2.67 4.46-3.27 1.5-.2-.96.52-2.14.85-3.01.87-2.25 1.72-4.52 2.57-6.78.36-.96.63-2.25 1.56-2.83 1.08-.68 2.1.15 2.57 1.13 1.26 2.7 2.15 5.68 3.2 8.48.34.92 1.2 2.38.71 3.37-1.14 2.36-2.89-.7-3.1-1.86m6.22-11.2c1.1-.31 1.78.6 1.86 1.6.23 3.03.01 6.17.01 9.22 0 1.03.18 2.62-1.14 2.93-1.46.35-1.68-1.11-1.68-2.18-.02-2.82 0-5.65 0-8.47 0-1-.31-2.75.95-3.1m-25.63 5.36v-2.64c-1.16 0-2.85-.31-3.94.14a1.26 1.26 0 0 0-.17 2.28c1.02.59 2.96.22 4.11.22m16.77-.38-1.13 3.39h2.44l-1.31-3.39m-16.77 6.03v-2.64c-1.16 0-2.85-.31-3.94.14a1.26 1.26 0 0 0-.17 2.28c1.02.59 2.96.22 4.11.22m0 5.65v-2.64c-1.15 0-3.09-.37-4.11.22-.95.54-.82 1.87.17 2.28 1.09.45 2.78.14 3.94.14m0 5.65v-2.64c-1.15 0-3.09-.37-4.11.22-.95.54-.82 1.87.17 2.28 1.09.45 2.78.14 3.94.14m3.77 3.76c0 1.17-.31 2.86.14 3.94.4 1 1.73 1.13 2.28.18.59-1.02.22-2.97.22-4.12h-2.64m5.65 0c0 1.17-.31 2.86.14 3.94.4 1 1.73 1.13 2.28.18.59-1.02.22-2.97.22-4.12H28.7m5.65 0c0 1.17-.31 2.86.14 3.94.4 1 1.73 1.13 2.28.18.59-1.02.22-2.97.22-4.12z" transform="translate(-14.51 -165.65)"/><path style="fill:#b1cffd;stroke:none;stroke-width:.712037" d="M23.94 43.26V37.8h-9.42c-1.11 0-2.79.3-3.7-.5-1.18-1.06-.63-3.9-.63-5.34V16.7c0-1.54-.62-4.8.64-5.91.9-.8 2.58-.5 3.7-.5h9.41V4.83H10.2c-1.24 0-4.02-.52-5 .32-.6.5-.47 1.44-.47 2.12V40.62c0 .73-.16 1.78.46 2.31 1 .85 3.77.33 5 .33z"/></svg>