<svg width="70" height="89.95" viewBox="0 0 2.1 2.7" xmlns="http://www.w3.org/2000/svg"><g fill="none" transform="matrix(.1129 0 0 .1129 -.34 0)"><ellipse style="fill:#fff;stroke-width:.03" cx="12.26" cy="11.24" rx="1.23" ry=".93"/><ellipse style="fill:#fff;stroke-width:.03" cx="8.9" cy="6.87" rx="2.83" ry="3.13"/><ellipse style="fill:#fff;stroke-width:.03" cx="15.85" cy="6.88" rx="2.83" ry="3.13"/><path fill="#8cc5e7" d="M21.47 3.2c.71 1.48-1.46 1.64-1.35 2.3.2 1.18.07 2.94-.09 4.67-.27 2.94 1.93 9.98-2.65 12.8-.86.54-2.9.84-4.93.88h-.02c-2.02-.04-4.34-.34-5.2-.88-4.57-2.82-2.38-9.86-2.64-12.8-.16-1.73-.3-3.49-.09-4.67.11-.66-2.06-.81-1.34-2.3.6-1.26 2.12-.14 2.5-.54A8.6 8.6 0 0 1 11.8.06h1.02c1.85.1 4.2.6 6.15 2.6.38.4 1.88-.72 2.5.55zm-10.04 7.7c-.08.04-.22.95.2 1 .3.03 1.08.12 1.27 0 .36-.23.32-.79.12-.93-.35-.22-1.5-.11-1.59-.06zM9.08 4.1c-.96-.1-2.56.78-2.8 2.67-.26 1.97 2.06 3.91 4.28 1.97 1.2-1.05 1.61-4.27-1.48-4.63Zm6.45 0c-3.1.37-2.68 3.6-1.48 4.64 2.22 1.94 4.54 0 4.28-1.97-.23-1.89-1.84-2.78-2.8-2.66Z"/><path fill="#b8937f" d="M12.31 8.99c.59-.08 1.99.58 1.9 1.37-.12.92-3.61 1.04-3.8-.06-.1-.66.42-1.09 1.9-1.31zm7.89 7.38c-.29 0-.47-.39-.47-.62 0-.41.05-.9.36-1.12.63-.43 1.13 1.75.1 1.74zm-15.78 0c-1.02.01-.52-2.17.1-1.74.31.21.37.7.37 1.12 0 .23-.18.61-.47.62zm13.84 6.72c.19.27.2.46-.1.6-1.13.51-2.14-.18-1.76-.38.8-.4 1.3-1.04 1.86-.22zm-11.9.1c.55-.83 1.05-.2 1.86.22.38.2-.63.89-1.76.37-.3-.14-.3-.33-.1-.6z"/><path fill="#000" d="M19.74 3.43c.04-.2.52-.29.8.04.32.4-.48.95-.52.73-.09-.6-.34-.58-.28-.77Zm-14.86 0c.06.2-.2.17-.29.77-.03.22-.83-.33-.5-.73.25-.33.74-.24.8-.04Zm10.86 4.51a1.06 1.06 0 1 1 0-2.11 1.06 1.06 0 0 1 0 2.11zm-.28-1.18a.33.33 0 1 0 0-.66.33.33 0 0 0 0 .66zm-4.1 2.67c.11-.42.5-.56.81-.57.81-.02 1.12.42 1.14.76.06.58-2.2.72-1.95-.19zM8.87 7.94a1.06 1.06 0 1 1 0-2.11 1.06 1.06 0 0 1 0 2.11zm.28-1.18a.33.33 0 1 0 0-.66.33.33 0 0 0 0 .66z"/></g></svg>