<svg width="70" height="66" viewBox="0 0 2.8 2.64" xmlns="http://www.w3.org/2000/svg"><path d="M2.62 1.82V2a.04.04 0 0 1-.03.03l-.26.09a.04.04 0 0 1-.03 0 .04.04 0 0 1-.02-.04V1.9l-.24.05v.18a.04.04 0 0 1-.03.04l-.36.05a.04.04 0 0 1-.04-.04v-.2h-.39v.2a.04.04 0 0 1-.04.04l-.36-.05a.04.04 0 0 1-.03-.04v-.18l-.24-.05v.18a.04.04 0 0 1-.02.03.04.04 0 0 1-.03 0l-.26-.08A.04.04 0 0 1 .2 2v-.17l-.16-.05a.46.46 0 0 0-.01.1c0 .43.6.77 1.36.77.75 0 1.36-.34 1.36-.77a.45.45 0 0 0 0-.1z" fill="#478cbf" style="stroke-width:.1"/><path d="M.17 1.06v.67l.1.03a.04.04 0 0 1 .02.04v.16l.18.06v-.17a.04.04 0 0 1 .05-.04l.32.06a.04.04 0 0 1 .03.04v.18l.27.04v-.2a.04.04 0 0 1 .04-.03h.47a.04.04 0 0 1 .04.04v.19l.27-.04V1.9A.04.04 0 0 1 2 1.87l.32-.06a.04.04 0 0 1 .05.04v.17l.18-.06V1.8a.04.04 0 0 1 .03-.04l.06-.02v-.68A2.68 2.68 0 0 0 2.8.8a1.9 1.9 0 0 0-.25-.33 2.45 2.45 0 0 0-.25.15 1.3 1.3 0 0 0-.13-.1 1.54 1.54 0 0 0-.14-.1 2.83 2.83 0 0 0 .03-.3A1.6 1.6 0 0 0 1.68 0a2.64 2.64 0 0 0-.13.27.95.95 0 0 0-.15-.01.95.95 0 0 0-.15 0A2.63 2.63 0 0 0 1.11 0a1.6 1.6 0 0 0-.37.13 2.81 2.81 0 0 0 .03.3 1.53 1.53 0 0 0-.14.1 1.3 1.3 0 0 0-.13.1A2.46 2.46 0 0 0 .25.48 1.9 1.9 0 0 0 0 .81a2.68 2.68 0 0 0 .17.25z" fill="#478cbf" style="stroke-width:.1"/><path d="M1.05 1.38a.27.27 0 1 1-.28-.27.27.27 0 0 1 .28.27" fill="#fff" style="stroke-width:.1"/><path d="M.98 1.4A.18.18 0 1 1 .8 1.2a.18.18 0 0 1 .18.19" fill="#414042" style="stroke-width:.1"/><path d="M1.42 1.68a.08.08 0 0 1-.1-.08v-.25a.09.09 0 0 1 .18 0v.25a.08.08 0 0 1-.08.08m.37-.3a.27.27 0 1 0 .27-.27.27.27 0 0 0-.27.27" fill="#fff" style="stroke-width:.1"/><path d="M1.85 1.4a.18.18 0 1 0 .18-.19.18.18 0 0 0-.18.19" fill="#414042" style="stroke-width:.1"/></svg>