<svg width="52.4" height="70.86" viewBox="0 0 13.86 18.75" xmlns="http://www.w3.org/2000/svg"><path style="fill:maroon;stroke:none;stroke-width:.0202485" d="M260.03 174.25c.08.3.1.6.07.9-.05.4-.14.8-.33 1.17-.58 1.16-1.83 1.88-2.78 2.71-.55.5-1.42 1.24-1.37 2.07.05.74.75 1.49 1.2 2.02.26.3.52.6.8.87.1.1.21.26.35.33-.4-.72-.91-1.33-1.2-2.1-.16-.41-.26-.83-.09-1.24.25-.61.73-1.1 1.18-1.56.35-.35.7-.7 1.06-1.03.61-.56 1.19-1.14 1.4-1.97.12-.51.12-1.04.01-1.56-.04-.21-.11-.47-.3-.6m-1.21 10.85c.25-.12.5-.32.7-.51.2-.17.36-.36.5-.57.48-.72 0-1.47-.41-2.1-.2-.3-.45-.65-.4-1.03.04-.43.37-.8.66-1.1a10.17 10.17 0 0 1 2.35-1.72c-.13-.04-.34.07-.47.11-.42.14-.84.3-1.23.5a7.32 7.32 0 0 0-1.24.73c-.97.75-1.44 1.84-.82 2.97.26.48.82.94.88 1.5.05.5-.32.8-.52 1.22m-.85-.77.02.02-.02-.02m4.63.24v.02c.36-.03.7-.08 1.06.06.67.27.77 1.02.46 1.6a4.92 4.92 0 0 1-1.9 1.7c.1.03.23-.04.32-.07.27-.08.54-.18.8-.3.67-.34 1.48-.86 1.66-1.65.2-.91-.66-1.57-1.49-1.6-.33-.01-.62.1-.9.24m-.6.67v-.02c-.7.03-1.4.2-2.1.28a37.23 37.23 0 0 1-3.73.18 9.7 9.7 0 0 1-1.56-.1c-.16-.02-.41-.04-.54-.16-.16-.16.14-.34.26-.4.42-.21.91-.4 1.38-.47-.18-.07-.5.02-.69.06-.59.11-1.17.26-1.72.5-.18.07-.38.15-.53.28-.06.05-.14.14-.08.23.1.16.38.2.55.23.53.13 1.08.14 1.62.2 1.3.16 2.64.07 3.95-.06a36.7 36.7 0 0 0 1.7-.2c.24-.03.53-.04.77-.12.25-.09.48-.3.73-.43m-.75 2.35c-.14-.09-.3-.15-.43-.24-.08-.06-.18-.18-.28-.2-.13-.02-.3.05-.43.07-.32.05-.65.09-.97.12a28.5 28.5 0 0 1-2.9.13c-.34 0-.75-.03-1.07-.16-.12-.06-.29-.15-.28-.3 0-.12.1-.2.16-.3-.27.03-.63.18-.8.41-.1.16-.14.36.01.5.4.37 1.2.39 1.7.44 1.32.13 2.67.14 3.97-.12.4-.08.96-.13 1.32-.35m-.27 2.02c-.2-.13-.44-.21-.65-.33-.1-.06-.22-.17-.34-.19-.11-.01-.25.06-.36.08l-.9.12c-.69.06-1.39.04-2.08.04-.3 0-.64-.01-.93-.1-.12-.04-.28-.1-.31-.25-.02-.08.04-.16.06-.24-.36.09-1.09.5-.58.9.35.29.88.37 1.31.45a9.3 9.3 0 0 0 3.43-.1c.4-.08 1-.15 1.35-.38m2.98.71c.1.37-.24.52-.55.62-.66.22-1.4.33-2.08.37-2.25.16-4.56.4-6.8.11-.53-.07-1.05-.12-1.57-.23-.18-.04-.5-.1-.6-.27-.14-.18.15-.36.28-.42a3.74 3.74 0 0 1 1.42-.36c-.19-.08-.5-.01-.7.01-.56.08-1.15.19-1.67.44-.21.1-.63.35-.52.64.07.22.4.3.6.36.62.18 1.27.25 1.9.3a33 33 0 0 0 4.56.1c1.12-.06 2.25-.08 3.36-.29a6.94 6.94 0 0 0 2.1-.65c.26-.14.71-.5.27-.73m1.03.91c-.88.77-2.21 1.04-3.34 1.2a25.89 25.89 0 0 1-4.8.22c-.6-.03-1.22-.05-1.82-.1-.38-.04-.77-.1-1.16-.1v.02c.63.14 1.25.3 1.89.38 2.21.27 4.49.13 6.68-.24a5.13 5.13 0 0 0 2.05-.76c.17-.12.52-.37.5-.62m-11.16 1.2.02.02z" transform="translate(-251.17 -174.25)"/></svg>