<svg width="70" height="69.96" viewBox="0 0 18.52 18.51" xmlns="http://www.w3.org/2000/svg"><path style="fill:#ff0;stroke:none;stroke-width:.0216352" d="M0 0v18.51h18.52V0H0m16.52 9.8-.85.56-.5.3a1.41 1.41 0 0 0-.61-.64c-.47-.21-1.23-.08-1.31.52-.1.63.46.9.94 1.13.95.45 2.12.79 2.61 1.81.15.3.2.6.23.91.03.26.02.52-.04.78-.42 1.9-2.94 2.3-4.49 1.55a3.3 3.3 0 0 1-1.21-.97c-.08-.1-.27-.31-.25-.45 0-.1.24-.19.32-.23.31-.19.72-.52 1.09-.59a1.9 1.9 0 0 0 1.83 1.04c.57-.04 1.17-.45 1-1.09-.17-.63-1.16-.89-1.69-1.12-.5-.21-1-.47-1.38-.84a2.45 2.45 0 0 1-.67-2.02c.2-1.58 1.74-2.22 3.17-1.99.74.12 1.55.62 1.81 1.35m-6.46-1.3v4.8c0 .9.1 1.87-.37 2.68-.77 1.31-2.9 1.35-4.02.5a2.1 2.1 0 0 1-.8-1.04l.97-.57.45-.25c.15.3.38.64.7.79.56.27 1.2-.03 1.3-.64.13-.7.04-1.47.04-2.17v-4.1Z"/></svg>