<svg width="48" height="54.5" viewBox="0 0 4.32 4.9" xmlns="http://www.w3.org/2000/svg"><path fill="#3f3f3f" d="m2.5.1.37.17-.25.55-.37-.17z"/><path fill="none" stroke="#d0cfce" stroke-miterlimit="10" stroke-width=".20094" d="M2.51 1.69a1.5 1.5 0 0 1 .95 2.68"/><path fill="#d0cfce" d="M.1 4.3h3.72v.5H.1zM1.35 2.06 2.13.32l.82.37-.78 1.74z"/><g fill="none" stroke="#000" stroke-width="2"><path stroke-linecap="round" stroke-linejoin="round" d="M1.94 2.33a.19.19 0 0 1-.24.05.2.2 0 0 1-.12-.21M1.94 2.32l-.6-.26.79-1.74.82.37-.78 1.74-.23-.1M.26 3.21l1.92.86-.08.19-1.93-.87z" stroke-width=".20094"/><path stroke-miterlimit="10" d="M2.43 1.87a.2.2 0 0 0 .08.02 1.3 1.3 0 0 1 .82 2.32.2.2 0 0 0-.06.1" stroke-width=".20094"/><path stroke-miterlimit="10" d="M2.6 1.5a1.7 1.7 0 0 1 1.22 2.8" stroke-width=".20094"/><path stroke-linecap="round" stroke-linejoin="round" d="M.1 4.3h3.72v.5H.1zM2.5.1l.37.17-.14.3L2.36.4z" stroke-width=".20094"/></g></svg>