<svg width="48" height="38.81" viewBox="0 -141.54 88.69 71.71" xmlns="http://www.w3.org/2000/svg"><g transform="matrix(.03414 0 0 .03414 11.97 -146.5)"><linearGradient id="a" gradientUnits="userSpaceOnUse" x1="-2901.95" y1="923.57" x2="-2061.25" y2="1420.33" gradientTransform="matrix(.1234 0 0 -.1234 1158.33 1550.27)"><stop offset="0" stop-color="#909ca9"/><stop offset="1" stop-color="#ededee"/></linearGradient><path fill="url(#a)" d="m1410.77 814.2-286.9 93.68-249.6 110.16-69.82 18.43a1518.38 1518.38 0 0 1-56.6 51.4c-22.12 19.08-42.72 36.43-58.56 49-17.56 13.89-43.58 39.91-56.81 56.39-19.74 24.72-35.35 50.96-42.07 71.13-11.93 36.43-6.07 73.3 16.91 107.35 29.5 43.36 88.27 87.6 156.79 117.74 34.92 15.4 93.68 35.14 137.92 46.2 73.51 18.65 215.77 38.81 294.05 41.85 15.83.65 37.09.65 37.95 0 1.74-1.09 13.88-24.29 27.98-53.13 48.14-98.24 82.84-190.4 101.7-269.12 11.28-47.7 20.17-111.24 26.02-186.49 1.52-21.03 2.17-91.51.87-115.37-1.95-39.03-5.42-70.7-10.84-101.7-.87-4.56-1.09-8.68-.65-8.9.86-.64 3.46-1.51 38.81-11.7l-7.15-16.92zm-65.49 38.38c2.6 0 9.54 66.57 11.28 108.65.43 8.89.21 14.74-.22 14.74-1.73 0-36.65-20.6-61.58-36.21-21.69-13.66-62.9-40.99-69.4-46.2-2.17-1.5-1.95-1.72 15.83-7.8 30.14-10.2 101.7-33.18 104.1-33.18zm-146.16 48.14c1.95 0 6.94 2.82 18.87 10.2 44.67 27.97 105.39 61.8 131.41 73.08 8.02 3.47 8.89 2.16-9.54 14.74-39.47 26.9-88.7 53.35-148.98 80.02a452.5 452.5 0 0 1-19.73 8.46c-.44 0 .86-5.42 2.6-11.93 14.52-54 22.77-108.64 23.2-152.45.22-21.69.22-21.69 2.17-22.33-.43.21-.22.21 0 .21zm-30.14 11.5c1.3 1.3.43 49.87-1.3 63.1a551.9 551.9 0 0 1-19.95 94.33c-2.39 8.02-4.56 14.75-4.99 15.18-.87 1.08-30.58-27.97-40.34-39.25-16.91-19.52-30.14-39.03-39.9-58.12-4.99-9.76-12.79-28.84-12.14-29.49 3.47-2.38 117.75-46.62 118.62-45.75zm-141.83 55.73c.22 0 .44 0 .66.21.43.44 1.95 3.9 3.25 7.81 6.94 18.87 22.55 46.62 36 64.4 14.74 19.53 34.04 40.34 50.09 54 5.2 4.34 9.97 8.46 10.62 9.11 1.3 1.3 1.74 1.08-33.61 14.53-40.98 15.61-85.66 31.23-136.84 47.7a6825.47 6825.47 0 0 0-36.64 11.93c-1.95.66-1.3-.43 4.34-9.32 25.37-39.68 63.97-117.53 85.65-172.62 3.7-9.54 7.38-19.08 8.03-21.25.87-3.04 1.95-4.12 4.77-5.64 1.51-.43 3.03-.86 3.68-.86zm-43.36 18c.65.43-10.41 23.63-21.26 44.88-21.03 40.99-44.02 81.33-74.81 130.34a577.56 577.56 0 0 1-10.84 17.13c-1.09 1.52-1.52 1.08-5-5.64-7.37-14.53-13.44-33.18-16.7-50.31-3.25-16.92-2.6-46.4 1.1-64.62 2.81-13.45 2.6-13.23 9.1-16.49 27.76-14.09 117.54-56.16 118.4-55.3zm374.07 15.18v9.1c0 48.36-5.2 114.72-12.8 163.08-1.3 8.46-2.39 15.4-2.6 15.61 0 0-6.29-1.73-13.66-3.9a559.6 559.6 0 0 1-99.75-42.72c-21.04-11.5-51.62-30.36-50.75-31.23.22-.21 9.33-4.99 19.95-10.62 42.5-22.12 83.27-45.98 118.62-69.61 13.23-8.9 33.18-23.2 37.52-27.11zm-537.8 64.18c.86 0 .65 1.74-.65 9.55a307.18 307.18 0 0 0-2.39 23.2c-1.73 31.66 3.47 55.08 19.09 87.17 4.33 8.9 7.8 16.27 7.59 16.48-1.52 1.3-145.08 43.38-190.19 55.74-13.44 3.68-25.15 6.94-26.02 7.15-1.52.44-1.73.22-1.08-3.47 4.98-31.87 29.27-73.51 63.1-108.64 22.55-23.42 40.55-37.08 71.35-54.65 22.12-12.58 56.16-31.44 58.76-32.31 0-.22.22-.22.44-.22zm338.3 60.5c.2-.21 5.41 2.61 11.7 6.3 46.4 26.89 111.03 51.83 166.1 64.62l5 1.09-6.94 3.9c-28.84 16.04-123.6 55.5-220.54 91.73-14.1 5.2-27.97 10.4-30.58 11.49-2.6 1.08-4.99 1.73-4.99 1.52 0-.22 3.9-7.81 8.9-17.14 27.1-50.74 54.42-112.54 68.3-155.48 1.74-4.12 2.82-7.8 3.04-8.02zm-34.49 11.28c.22.23-1.51 4.78-3.68 9.98-18.87 45.76-43.6 95.64-75.25 151.58-8.03 14.32-14.75 25.81-14.97 25.81-.21 0-6.72-3.9-14.53-8.68-45.97-28.19-86.74-62.88-113.41-96.5l-3.9-4.77 19.73-5.42c70.7-19.3 130.76-40.12 190.4-65.7 8.46-3.47 15.4-6.3 15.61-6.3zm214.26 74.82s.21.22 0 0c.21 4.99-10.85 49.66-19.96 81.97-7.59 27.1-14.1 48.36-26.02 85.87-5.2 16.49-9.75 30.15-9.97 30.15-.22 0-1.52-.22-2.82-.65-64.4-11.72-122.1-27.98-176.3-49.66-15.19-6.08-36.87-15.84-38.17-16.92-.43-.44 12.58-6.5 29.06-13.66 98.67-43.16 201.02-92.17 236.15-113.2 4.12-2.6 7.37-3.9 8.03-3.9zm-494.65 16.92c.43.43-27.1 40.11-65.7 94.1-13.45 18.88-29.07 41-34.92 49.23a867.05 867.05 0 0 0-19.73 29.06l-9.12 14.1-9.76-8.24c-11.49-9.54-31.44-29.93-40.33-41.2-18.65-23.2-31.22-47.71-36.21-70.04-2.39-10.41-2.39-15.62-.22-16.27 3.25-.87 61.15-14.53 115.37-27.1a9617.95 9617.95 0 0 0 77.63-18.22c12.58-3.04 22.77-5.42 22.99-5.42zm27.76 10.62 6.93 7.8c31.23 34.92 63.11 60.73 101.71 83.28 6.94 3.9 12.14 7.37 11.7 7.6-1.5 1.08-134 48.13-195.38 69.38a5229.16 5229.16 0 0 1-63.1 21.9c-.21 0-2.17-1.3-4.34-2.82l-3.9-2.81 6.29-9.11c20.38-29.5 45.97-61.8 101.7-129.03zm173.05 123.82c.21-.21 9.75 3.26 21.46 7.6 28.2 10.62 50.53 17.34 80.46 24.93 36.86 9.33 90.21 18.44 121.66 21.04 4.77.43 7.37.87 6.5 1.52-1.52.87-33.4 11.5-56.82 18.86-37.3 11.71-151.14 45.32-243.96 72-17.13 4.99-31.88 9.1-32.74 9.32-2.17.44-9.33-1.52-9.33-2.38 0-.43 5.2-7.16 11.5-14.53 31.22-37.3 62.23-78.94 88.04-118.4 7.15-10.85 13.23-19.74 13.23-19.96zm-38.17 1.09c.21.22-15.18 24.94-42.07 67.44-11.5 18-24.29 38.38-28.84 45.54-4.34 6.94-10.85 17.78-14.53 23.85l-6.29 11.06-3.25-.86c-7.81-2.17-62.67-21.47-77.2-27.33a537.03 537.03 0 0 1-50.53-23.2c-17.35-9.33-39.03-23.2-37.3-23.64.43-.21 30.14-8.24 65.92-18 94.99-25.8 147.68-40.77 182.16-51.6 6.3-1.96 11.71-3.48 11.93-3.26zm269.98 63.32h.22c.87 2.17-34.26 99.75-47.06 130.55-2.82 6.93-3.9 8.67-5.42 8.45-3.68-.21-54.64-7.37-85.66-11.92-54-8.24-144.64-24.08-167.4-29.28l-5.21-1.08 32.3-7.38c69.4-15.61 102.8-24.07 136.63-34.48a965.61 965.61 0 0 0 127.72-49.22c6.73-3.04 12.37-5.42 13.88-5.64z" style="fill:url(#a)"/><linearGradient id="b" gradientUnits="userSpaceOnUse" x1="-2882.7" y1="10288.81" x2="-2206.25" y2="10288.81" gradientTransform="matrix(.1234 0 0 -.1234 1158.33 1550.27)"><stop offset="0" stop-color="#939fab"/><stop offset="1" stop-color="#dcdee1"/></linearGradient><path fill="url(#b)" d="M1114.98 145.41c-4.77-.64-81.75 27.11-131.41 47.28-67.01 27.33-119.05 53.35-151.15 75.9-11.93 8.46-26.9 23.42-29.27 29.27a20.27 20.27 0 0 0-1.3 7.38l29.05 27.54 69.18 22.12 164.6 29.49 188.22 32.31 1.95-16.26c-.65 0-1.08-.22-1.73-.22l-24.72-3.9-4.99-8.9c-25.59-45.1-53.78-101.05-70.26-138.78-12.8-29.28-24.94-63.1-31.66-87.4-3.69-14.74-4.12-15.6-6.5-15.82h-.01zm-3.47 11.07h.22c.21.21 1.08 6.29 1.95 13.44 3.68 30.36 10.41 59.63 21.04 91.3 8.02 23.85 8.02 22.55-1.3 19.73-22.12-6.07-121.22-23.2-193-33.18-11.5-1.52-21.26-3.03-21.26-3.25-.86-.87 51.83-28.4 75.03-39.25 29.71-13.66 111.25-47.71 117.32-48.8zm-209.05 97.15 8.46 2.81c45.97 15.62 161.55 37.74 225.31 42.94 7.16.65 13.23 1.3 13.44 1.3.22.22-5.85 3.47-13.66 7.16-30.79 15.4-64.62 34.26-88.04 48.8-6.94 4.33-13.23 7.8-14.1 7.8-.86 0-5.41-.87-10.18-1.52l-8.68-1.3-21.68-21.25a9088.22 9088.22 0 0 0-79.59-76.55zm-8.67 6.72 30.58 38.17c16.7 21.03 33.6 41.63 37.3 46.18 3.68 4.56 6.72 8.25 6.5 8.46-.86.65-44.23-7.8-67.22-13-23.64-5.43-33.4-8.03-47.93-12.58l-11.92-3.9v-3.05c.21-14.53 18.65-36.21 49.87-58.33zm259.8 52.04c.86 0 1.94 1.95 4.54 7.81 7.38 16.26 30.37 60.07 36 68.53 1.74 2.82 4.77 3.03-25.8-1.95-73.51-11.93-97.15-15.83-97.15-16.27 0-.21 2.17-1.73 4.98-3.25 22.78-12.58 45.76-28.63 66.15-45.76 4.99-4.12 9.54-8.02 10.4-8.67.22-.44.66-.65.87-.44z" style="fill:url(#b)"/><radialGradient id="c" cx="-14217.45" cy="7277.71" r="898.12" gradientTransform="matrix(-.1185 -.0178 -.036 .237 -198.96 -1314.41)" gradientUnits="userSpaceOnUse"><stop offset="0" stop-color="#ee352c"/><stop offset="1" stop-color="#a91d22"/></radialGradient><path fill="url(#c)" d="M804.66 294.83s-4.77 7.6-.21 18.87c2.82 6.93 11.06 15.4 20.38 24.07 0 0 96.5 94.11 108.21 107.56 53.34 61.58 76.55 122.3 78.72 206.01 1.3 53.78-8.9 101.05-34.27 155.92-45.1 98.45-140.3 207.1-287.11 327.67l21.47-7.16c13.88-10.4 32.74-21.47 76.98-45.75 102.14-55.96 217.07-107.35 358.03-160.26 202.97-76.34 536.71-165.68 726.68-194.74l19.73-3.04-3.04-4.77c-17.34-26.89-29.27-43.58-43.59-61.37-41.63-51.6-92.15-93.46-153.96-128.16-85-47.49-194.96-84.57-334.17-112.1-26.24-5.22-83.93-15.19-130.77-22.35a13317.86 13317.86 0 0 1-234.2-38.16c-25.37-4.34-63.32-10.84-88.48-16.26-13-2.83-37.94-8.68-57.46-15.4-15.61-6.08-38.17-12.15-42.94-30.58zm55.95 54.21c.22-.21 3.68 1.09 8.24 2.6a563.42 563.42 0 0 0 31.45 9.55 1599.47 1599.47 0 0 0 28.62 7.59c13.01 3.25 23.85 6.28 24.07 6.28 1.52 1.52 23.42 71.56 30.8 98.45 2.81 10.2 4.99 18.87 4.77 18.87-.22.22-2.6-3.47-5.42-8.46-25.38-44.67-65.5-89.99-111.9-126.42-6.07-4.34-10.63-8.24-10.63-8.46zm106.7 29.5c1.08 0 5.85.65 11.7 1.95 36.87 8.24 103.01 20.82 145.3 27.97 7.15 1.09 12.8 2.39 12.8 2.82 0 .44-2.61 1.95-5.87 3.69-7.15 3.68-36 20.81-45.53 27.32-24.08 16.05-45.76 33.4-61.37 49-6.3 6.3-11.72 11.5-11.72 11.5s-1.3-3.68-2.38-8.24c-7.8-30.14-24.07-74.82-38.82-106.26-2.38-4.98-4.34-9.54-4.34-9.97 0 .43 0 .22.22.22zm187.79 35.78c1.3.43 3.47 7.8 7.8 24.07a355.02 355.02 0 0 1 10.42 99.32c-.44 9.1-.87 17.56-1.3 18.65l-.66 2.16-11.27-3.68c-23.2-7.37-60.94-18.44-93.25-27.54-18.43-4.99-33.4-9.54-33.4-9.98 0-1.3 26.9-28.19 38.39-38.38 21.9-19.3 81.32-65.28 83.27-64.62zm14.96 2.16c.65-.64 89.78 14.75 130.33 22.56 30.15 5.85 73.95 14.96 76.55 16.05 1.3.43-3.25 3.03-17.78 9.53-57.25 25.81-99.76 49.01-142.04 77.2-11.06 7.38-20.38 13.45-20.6 13.45-.22 0-.43-6.29-.43-13.88 0-41.2-8.24-82.84-23.43-117.97-1.51-3.47-2.82-6.72-2.6-6.94zm230.52 45.54c.65.65-2.17 18.22-4.77 28.63-7.8 32.31-28.84 80.24-54.65 125.34-4.55 8.03-8.67 14.53-9.11 14.75-.43.21-6.29-3.04-13-6.94-25.16-14.75-53.79-28.63-85.02-41.64-8.67-3.69-16.26-6.72-16.48-7.15-1.52-1.3 68.31-47.5 105.18-69.62 29.27-17.78 76.98-44.23 77.85-43.37zm16.48 2.6c1.95 0 41.42 10.85 62.02 16.92 50.96 15.18 109.5 36.65 147.68 54l15.82 7.16-11.05 2.6c-93.25 21.46-173.05 46.19-250.04 77.42-6.28 2.6-11.92 4.77-12.35 4.77-.44 0 1.73-5 4.55-11.07 23.2-49.22 38.17-100.62 41.85-144.42.22-4.12.87-7.37 1.52-7.37zm-392.94 90.22c.65-.65 30.8 6.5 47.06 11.05 24.72 6.95 77.2 24.51 77.2 25.81 0 .22-5.86 5.2-12.8 11.28-28.4 23.64-55.73 48.57-88.48 80.23-9.75 9.33-18 16.92-18.42 16.92-.44 0-.65-1.3-.44-3.04 4.99-36.43 3.9-83.27-3.03-130.76-.66-6.07-1.3-11.28-1.09-11.5zm633.43.65c.43.43-13.88 22.98-22.99 35.78-13 18.65-32.1 43.37-75.25 97.59a14432.08 14432.08 0 0 0-56.8 71.77c-8.69 10.85-15.84 19.95-16.06 19.95-.22 0-3.03-3.9-6.07-8.67-24.29-36.43-53.35-68.31-87.83-96.93-6.5-5.43-13.66-11.28-16.04-13.02-2.39-1.73-4.34-3.47-4.34-3.68 0-.65 36.86-16.49 64.84-27.76 49.01-19.95 115.8-43.8 165.9-59.2 26.23-8.24 54.2-16.27 54.64-15.83zm16.7 4.33c.86-.21 6.07 2.4 12.36 6.07 52.7 30.15 104.3 68.97 145.08 108.87 11.49 11.28 39.9 40.77 39.46 40.99 0 0-9.97.86-21.68 1.73-91.3 6.94-208.18 26.24-320.51 53.34-7.6 1.74-14.31 3.25-14.75 3.25-.43 0 8.03-8.45 18.65-18.64 65.93-63.54 96.07-103.66 131.63-175.22 4.99-10.63 9.33-19.73 9.76-20.39-.22 0-.22 0 0 0zm-482.94 49.45c3.04.65 31.23 13.88 52.48 24.5 19.52 9.76 48.8 25.38 50.31 26.68.22.21-10.2 5.63-22.98 11.92a1511.74 1511.74 0 0 0-112.12 61.8c-10.4 6.3-19.08 11.5-19.3 11.5-.86 0-.65-.87 5.2-11.5 19.53-35.56 35.14-78.06 44.03-119.48.86-3.25 1.73-5.42 2.38-5.42zm-28.19 5.2c.65.65-6.72 27.33-11.27 41.86-8.9 27.54-23.86 62.02-38.38 88.04-3.48 6.07-8.68 14.96-11.5 19.95l-5.42 8.67-12.15-11.7c-14.09-13.67-25.59-22.13-40.33-29.72-5.86-3.03-10.4-5.64-10.4-6.07 0-1.73 37.07-35.34 65.48-59.63 20.38-17.57 63.32-52.05 63.97-51.4zm172.4 70.92 10.63 6.93c24.28 15.84 52.9 36.87 74.81 55.3 12.36 10.2 36.21 31.66 40.99 36.87l2.6 2.82-17.56 4.99c-99.32 27.53-176.09 52.04-265.65 85-9.98 3.69-18.44 6.72-19.09 6.72-1.3 0-2.38 1.09 19.96-19.52 57.25-52.69 107.99-110.8 145.72-167.4zm-45.32 11.27c.43.43-29.28 42.29-47.06 65.92-21.25 28.2-58.98 75.47-85 106.26-10.85 12.8-20.17 23.42-20.6 23.64-.66.22-.87-3.04-.87-8.02 0-26.25-6.72-54.22-18.44-78.07-4.98-9.98-5.85-12.36-4.76-13.45 4.11-3.68 67.22-39.68 107.12-61.15 26.89-14.31 68.96-35.56 69.61-35.13zm-274.1 67.23c.65 0 5.63 2.6 11.27 5.63a238.17 238.17 0 0 1 37.3 25.16c.43.43-5.2 4.99-12.58 10.4A2025.74 2025.74 0 0 0 982.05 858c-19.09 15.18-19.73 15.61-17.57 12.36 14.32-21.9 21.47-34.26 29.06-50.09a403.67 403.67 0 0 0 18.22-45.32c1.73-6.3 3.9-11.06 4.33-11.06zm73.08 57.24c1.08-.2 2.38 1.74 8.23 10.42 12.37 18.42 21.9 43.15 24.3 63.1l.43 4.34-29.7 11.5c-53.14 20.6-102.15 40.98-135.33 56.16A2429.58 2429.58 0 0 0 920.9 984c-10.63 5.42-19.3 9.54-19.3 9.32 0-.22 6.72-5.2 14.96-11.28 64.84-47.05 121-98.67 163.07-150.28 4.56-5.42 8.68-10.4 9.11-10.62zm-33.62 8.25c.87.86-23.85 28.84-40.76 45.97-41.86 42.72-83.28 76.12-134.67 108.65-6.5 4.12-12.36 7.8-13.01 8.24-1.52.86.43-1.3 22.98-25.81a590.65 590.65 0 0 0 37.52-44.45c8.24-10.63 9.76-12.15 21.69-20.6 31.87-23 105.39-72.87 106.25-72z" style="fill:url(#c)"/></g><path fill="#231f1f" d="M15.94-87.53h-.4c-2.76.16-4.62 1.37-5.71 3.74a9.84 9.84 0 0 0 .01 7.1c.98 2.11 2.55 3.23 5.18 3.65.56.09.94.4 2.01 1.65l1.33 1.56h2.4l-1.6-1.62a17.1 17.1 0 0 1-1.6-1.72c0-.07.35-.22.76-.34 1.35-.4 2.47-1.45 3.25-3.05a6.4 6.4 0 0 0 .82-3.28c.24-4.76-2.27-7.73-6.45-7.7zm2.12 12.43a5.66 5.66 0 0 1-3.99.28 5.14 5.14 0 0 1-2.75-2.97c-.56-1.47-.48-4.2.15-5.42 1.03-1.95 2.38-2.85 4.35-2.85 2.93 0 4.6 1.8 4.81 5.16.17 2.82-.77 4.93-2.57 5.8zm41.58-8.37c-1.01 0-1.79.4-2.3 1.21l-.41.64v-1.66h-1.75v9.94h1.74v-3.17c0-2.91.04-3.25.45-4.04.56-1.1 1.52-1.64 2.45-1.38l.62.18v-1.72h-.8zm-10.27-.1c-.34 0-.7.05-1.07.13-2.33.61-3.65 2.85-3.57 5.15 0 1.93.37 2.9 1.3 3.9 1.91 1.57 3.63 1.7 5.96.86l.83-.37v-1.56l-.83.43c-1.88.82-3.3.82-4.44-.15a4.48 4.48 0 0 1-1.19-2.63h7.05v-1.34c0-2.73-1.65-4.46-4.04-4.41zm-2.85 4.37s.26-1.7 1.23-2.38c.46-.33 1-.48 1.52-.48s1.04.17 1.47.5c.89.67 1.04 2.34 1.04 2.34h-5.26v.02zM4.4-81c-1.89-1.14-2.73-1.97-2.63-2.95.3-2.7 3.63-2.32 5.48-1.3l.01-1.82s-1.02-.44-2.48-.47c-2.25-.03-3.7.7-4.38 2.2-1 2.22-.11 3.89 3.08 5.75 1.8 1.04 2.6 1.95 2.6 2.94 0 2.04-2.47 2.75-5.01 1.47l-.99-.48c-.1.58-.04 1.97-.04 1.97s.78.33 1.95.55c2.9.58 5.54-.78 5.8-3 .21-2.07-.54-3.16-3.39-4.86zm70.71-2.59c-.34 0-.7.05-1.08.13-2.33.61-3.65 2.85-3.56 5.15 0 1.93.37 2.88 1.3 3.9 1.91 1.56 3.63 1.68 5.97.84l.83-.36v-1.56l-.83.43c-1.89.81-3.3.81-4.44-.15a4.42 4.42 0 0 1-1.19-2.63h7.04v-1.34c0-2.72-1.65-4.45-4.04-4.4zm-2.85 4.36s.27-1.7 1.23-2.38c.46-.33 1-.49 1.52-.49s1.04.17 1.47.5c.89.68 1.04 2.36 1.04 2.36h-5.26zm-32.03-1.74c-1.9-1.15-2.73-1.98-2.63-2.96.3-2.7 3.63-2.32 5.48-1.3l.01-1.82s-1.02-.44-2.48-.46c-2.25-.03-3.7.7-4.38 2.2-1 2.21-.1 3.88 3.09 5.74 1.79 1.05 2.58 1.94 2.58 2.93 0 2.04-2.46 2.77-5 1.47-.52-.26-.96-.47-.99-.47-.1.58-.04 1.96-.04 1.96s.77.32 1.93.56c2.91.58 5.56-.78 5.8-3 .22-2.06-.53-3.15-3.37-4.85zm45.15-2.53c-1.01 0-1.8.41-2.3 1.22l-.41.64v-1.66H80.9v9.94h1.75v-3.18c0-2.9.03-3.24.44-4.04.56-1.09 1.52-1.63 2.45-1.37l.63.18v-1.73h-.81zm-59.04 2.47v-6.33h-1.76v14.02h7.4V-75h-5.64v-6.03zm40.74 1.97-1.45 3.78-1.4-3.8-1.42-4.21H61c1.17 3.31 2.44 6.68 3.72 9.95h1.67l1.96-4.92 2-5.03h-1.73s-.76 2-1.55 4.23zM30.39-91.18c.28 0 .52-.1.71-.3.2-.18.3-.41.3-.7 0-.28-.1-.51-.3-.7a.98.98 0 0 0-.7-.27.97.97 0 0 0-1 .99c0 .28.1.52.28.7.19.18.42.27.7.27zm-.63-1.62a.85.85 0 0 1 .64-.25c.25 0 .45.08.62.25.17.17.27.38.27.63a.87.87 0 0 1-.89.88.87.87 0 0 1-.88-.88c0-.25.07-.46.24-.63zm.42.72h.12c.08 0 .16.08.23.22l.13.31h.22l-.17-.34c-.07-.14-.14-.22-.22-.24.1-.02.18-.06.24-.12s.08-.14.08-.23c0-.1-.04-.18-.1-.24-.08-.07-.2-.1-.37-.1h-.36v1.27h.18v-.53zm0-.6h.16c.12 0 .2.03.24.06.04.04.06.08.06.16 0 .15-.1.22-.26.22h-.2v-.43zm-29.1.48-.02-.96c.05.23.11.4.16.51l1.69 3.78h.28l1.7-3.81c.04-.1.08-.26.14-.48h.01c-.03.38-.04.7-.04.97v3.33h.58v-4.96h-.73L3.3-90.37l-.24.61h-.03a3.97 3.97 0 0 0-.22-.58l-1.52-3.49H.52v4.96h.55v-3.32zm5.76.01h.5v3.1h-.5Zm.25-1.13c.1 0 .2-.03.26-.1a.36.36 0 0 0 .12-.26c0-.1-.03-.2-.11-.26a.36.36 0 0 0-.27-.1.37.37 0 0 0-.37.36c0 .11.03.19.11.26s.16.1.26.1zm3.82 4.29v-.55c-.28.2-.57.31-.87.31-.37 0-.66-.12-.88-.36a1.41 1.41 0 0 1-.33-.98c0-.43.11-.77.35-1.03.23-.25.52-.38.89-.38.3 0 .58.1.84.28v-.58a1.73 1.73 0 0 0-.82-.18c-.57 0-1.01.18-1.34.53a2 2 0 0 0-.5 1.4c0 .52.15.95.46 1.28.31.34.72.5 1.22.5a2 2 0 0 0 .98-.24zm1.43-1.65c0-.4.09-.73.26-.96.16-.2.35-.3.58-.3.19 0 .33.03.43.1v-.58a.9.9 0 0 0-.34-.05c-.2 0-.39.07-.55.2-.17.13-.3.33-.38.6h-.02v-.73h-.56v3.54h.57v-1.82zm3.25 1.89c.54 0 .97-.17 1.29-.51.31-.34.47-.8.47-1.36 0-.58-.14-1.03-.44-1.36-.3-.32-.7-.48-1.24-.48-.53 0-.96.16-1.28.46-.34.34-.52.82-.52 1.43 0 .53.15.98.45 1.3.32.35.74.52 1.27.52zm-.8-2.88c.21-.23.5-.35.85-.35.36 0 .64.12.84.35.2.23.3.57.3 1.03 0 .43-.09.77-.28 1-.2.24-.48.36-.85.36a1.1 1.1 0 0 1-.86-.36c-.22-.24-.32-.57-.32-1-.02-.43.09-.78.32-1.03zm5.05 2.57c.21-.2.33-.43.33-.73 0-.26-.1-.47-.26-.64a2 2 0 0 0-.66-.39 2.06 2.06 0 0 1-.54-.3.49.49 0 0 1-.14-.36c0-.14.05-.26.16-.35a.7.7 0 0 1 .46-.13c.3 0 .57.08.8.25v-.57a1.66 1.66 0 0 0-.75-.17c-.37 0-.68.1-.9.3a.9.9 0 0 0-.35.73c0 .26.07.48.22.64.13.13.34.27.64.4.28.12.47.23.58.32.1.1.14.2.14.34 0 .33-.22.5-.67.5a1.4 1.4 0 0 1-.92-.34v.62c.25.14.55.21.88.21.42-.02.75-.12.97-.33zm2.7-3.4c-.54 0-.97.16-1.29.46-.33.34-.52.82-.52 1.43 0 .54.15.98.46 1.3.32.35.73.52 1.27.52s.96-.17 1.28-.51c.32-.34.48-.8.48-1.37 0-.57-.15-1.02-.45-1.35a1.6 1.6 0 0 0-1.23-.48zm1.1 1.86c0 .43-.1.77-.29 1-.19.24-.47.36-.85.36a1.1 1.1 0 0 1-.86-.36c-.21-.24-.32-.57-.32-1 0-.46.12-.8.34-1.05.22-.22.5-.34.85-.34.36 0 .64.12.84.34.18.25.29.6.29 1.05zm1.53 1.77h.57v-3.07h.82v-.47h-.82v-.55c0-.5.19-.75.59-.75.13 0 .27.04.37.1v-.52c-.1-.04-.24-.05-.41-.05-.3 0-.56.09-.76.28a1.2 1.2 0 0 0-.36.92v.58h-.6v.48h.6v3.05zm2.32-.97c0 .7.31 1.05.94 1.05.22 0 .4-.04.53-.12v-.49a.6.6 0 0 1-.37.12c-.19 0-.32-.05-.4-.15-.08-.1-.13-.27-.13-.51v-2h.9v-.47h-.9v-1.05l-.57.19v.86h-.6v.47h.6v2.1zm60.9 6.53a.97.97 0 0 0-.7-.28c-.3 0-.53.1-.72.29-.2.2-.28.43-.28.7 0 .29.09.52.28.7a1 1 0 0 0 .71.28c.29 0 .52-.1.72-.29.2-.19.3-.42.3-.7a.98.98 0 0 0-.31-.7zm-.1 1.34a.84.84 0 0 1-.62.24.85.85 0 0 1-.62-.24.88.88 0 0 1-.26-.64.85.85 0 0 1 .88-.87c.25 0 .45.08.63.25.17.17.26.37.26.62 0 .26-.08.47-.26.64zm-.5-.58c.1-.03.18-.07.23-.13.06-.06.08-.13.08-.23s-.03-.18-.1-.23c-.08-.07-.2-.1-.36-.1h-.36v1.27h.18v-.54h.11c.08 0 .16.08.23.23l.13.3h.22l-.17-.34c-.06-.14-.13-.21-.2-.23zm-.13-.12h-.2v-.43h.17c.11 0 .19.03.23.06.05.03.06.08.06.16 0 .15-.1.21-.26.21zm-31.65-9.89h.16v-1.27h.42v-.16h-1v.16H56v1.27zm.96-.95-.01-.29.04.15.5 1.1h.07l.49-1.11.05-.14c-.02.12-.02.2-.02.28v.96h.17v-1.43h-.2l-.44.99c-.01.03-.05.1-.07.18h-.01l-.07-.17-.44-1h-.23v1.43h.16v-.95z" style="stroke-width:.06"/></svg>