<svg width="70" height="70" viewBox="0 0 2.8 2.8" fill="none" xmlns="http://www.w3.org/2000/svg"><path fill-rule="evenodd" clip-rule="evenodd" d="M1.1 0a.4.4 0 0 0-.4.39v.26h.7v.08h-1a.4.4 0 0 0-.4.38v.58c0 .21.18.38.4.38h.23v-.32a.4.4 0 0 1 .4-.39h.73c.19 0 .34-.14.34-.32V.39A.4.4 0 0 0 1.7 0Zm-.09.47c.08 0 .14-.06.14-.13A.14.14 0 0 0 1 .21a.14.14 0 0 0-.14.13c0 .07.06.13.14.13z" fill="url(#a)" style="fill:url(#a);stroke-width:.100001"/><path fill-rule="evenodd" clip-rule="evenodd" d="M1.7 2.8a.4.4 0 0 0 .4-.39v-.26h-.7v-.08h1a.4.4 0 0 0 .4-.38V1.1a.4.4 0 0 0-.4-.38h-.23v.32a.4.4 0 0 1-.4.39h-.73a.33.33 0 0 0-.34.32v.65c0 .22.18.39.4.39zm.09-.47a.14.14 0 0 0-.14.13c0 .07.06.13.14.13.08 0 .14-.06.14-.13a.14.14 0 0 0-.14-.13z" fill="url(#b)" style="fill:url(#b);stroke-width:.100001"/><defs><linearGradient id="a" x1="12.48" y1="2" x2="12.48" y2="22.74" gradientUnits="userSpaceOnUse" gradientTransform="matrix(.1 0 0 .1 -.2 -.2)"><stop stop-color="#327EBD"/><stop offset="1" stop-color="#1565A7"/></linearGradient><linearGradient id="b" x1="19.52" y1="9.26" x2="19.52" y2="30" gradientUnits="userSpaceOnUse" gradientTransform="matrix(.1 0 0 .1 -.2 -.2)"><stop stop-color="#FFDA4B"/><stop offset="1" stop-color="#F9C600"/></linearGradient></defs></svg>