<svg width="70" height="62.29" viewBox="0 0 2.8 2.49" xmlns="http://www.w3.org/2000/svg"><circle cx="1.4" cy="1.24" r=".25" style="fill:#00d8ff;stroke-width:.1"/><path d="M1.4 1.82a2.84 2.84 0 0 1-.89-.12 1.13 1.13 0 0 1-.36-.2.35.35 0 0 1-.15-.26C0 1.08.18.92.49.81A2.88 2.88 0 0 1 1.4.68a2.87 2.87 0 0 1 .9.13 1.14 1.14 0 0 1 .36.18.34.34 0 0 1 .14.25c0 .18-.2.35-.53.46a2.88 2.88 0 0 1-.87.12zm0-1.03a2.8 2.8 0 0 0-.87.13c-.28.1-.41.23-.41.32 0 .1.13.24.43.34a2.72 2.72 0 0 0 .85.12 2.76 2.76 0 0 0 .83-.12c.31-.1.45-.24.45-.34a.23.23 0 0 0-.1-.15 1.02 1.02 0 0 0-.32-.17A2.75 2.75 0 0 0 1.4.8Z" style="fill:#00d8ff;stroke-width:.1"/><path d="M.83 2.49a.26.26 0 0 1-.13-.03c-.14-.09-.2-.32-.13-.64A2.88 2.88 0 0 1 .9.96a2.87 2.87 0 0 1 .56-.71 1.14 1.14 0 0 1 .34-.22.34.34 0 0 1 .29 0c.15.09.2.35.13.69a2.88 2.88 0 0 1-.34.81 2.84 2.84 0 0 1-.54.71 1.13 1.13 0 0 1-.36.22.5.5 0 0 1-.16.03zm.18-1.47a2.8 2.8 0 0 0-.33.82c-.05.3 0 .47.08.51.08.05.27 0 .5-.2a2.72 2.72 0 0 0 .53-.68A2.76 2.76 0 0 0 2.11.7c.06-.31 0-.5-.07-.55a.23.23 0 0 0-.19 0 1.02 1.02 0 0 0-.3.2 2.75 2.75 0 0 0-.54.68z" style="fill:#00d8ff;stroke-width:.1"/><path d="M1.97 2.5c-.14 0-.31-.1-.49-.24a2.88 2.88 0 0 1-.57-.73A2.87 2.87 0 0 1 .57.68a1.14 1.14 0 0 1-.02-.4A.34.34 0 0 1 .7.04c.15-.09.4 0 .65.23a2.88 2.88 0 0 1 .54.69 2.84 2.84 0 0 1 .34.83 1.13 1.13 0 0 1 .02.41.35.35 0 0 1-.15.26.26.26 0 0 1-.13.03zM1 1.46a2.8 2.8 0 0 0 .55.7c.22.19.4.23.48.18.08-.04.14-.23.08-.54a2.72 2.72 0 0 0-.33-.79 2.76 2.76 0 0 0-.51-.66C1.03.14.84.09.76.14A.23.23 0 0 0 .67.3 1.02 1.02 0 0 0 .7.66a2.75 2.75 0 0 0 .32.81z" style="fill:#00d8ff;stroke-width:.1"/></svg>