<svg width="48" height="47.02" viewBox="0 -2.5 15.36 15.05" preserveAspectRatio="xMidYMid" xmlns="http://www.w3.org/2000/svg"><path fill="#7099a6" d="M6.19-.65h1.25V.74h.48v-1.4H9.2v-.45H7.92V-2.5h-.48v1.4H6.19z"/><path fill="#eb912c" d="M1.46 1.62h1.9v2.06h.7V1.62h1.91V.98H4.05v-2.03h-.7V.98H1.46z"/><path fill="#59879b" d="M9.39 1.65h1.89v2.03H12V1.65h1.89V.98H12v-2.03h-.72V.98h-1.9z"/><path fill="#e8762c" d="M5.15 5.4h2.1v2.27h.86V5.4h2.1v-.84h-2.1V2.28h-.86v2.28h-2.1z"/><path fill="#5b6591" d="M12.16 5.28h1.28V6.7h.64V5.28h1.28v-.57h-1.28V3.28h-.64v1.43h-1.28z"/><path fill="#7099a6" d="M0 5.22h1.25v1.36h.49V5.22l1.28-.05v-.43H1.74V3.37h-.5v1.37H0z"/><path fill="#c72035" d="M1.46 8.94h1.9v2.03h.72V8.94h1.9v-.66h-1.9V6.25h-.73V8.28H1.46z"/><path fill="#1f447e" d="M9.39 8.91h1.89v2.06H12V8.91h1.89v-.63H12V6.25h-.72V8.28h-1.9z"/><path fill="#5b6591" d="M6.1 11.13h1.28v1.42H8v-1.42H9.3v-.58H8V9.13h-.63v1.42H6.1z"/></svg>