<svg height="48" width="48" viewBox="0 0 30.26 30.26" xml:space="preserve" xmlns="http://www.w3.org/2000/svg"><path style="fill:#80d6fa" d="M270.36 441.03c8.53-8.54 0-25.6-8.53-34.14-8.54-8.53-37.55 22.2-25.6 34.14 8.53 8.53 25.6 8.53 34.13 0zM395.8 319.85c8.53-25.6 42.67-34.13 25.6-51.2-17.07-17.06-51.2 0-59.73 0-18.78 0-25.6 34.14-42.67 25.6-17.07-8.53-34.13 8.54-17.07 17.07 17.07 8.53 34.14 17.07 42.67 25.6 8.53 8.53 42.67 8.53 51.2-17.07zm99.84-102.4c1.7 11.1 2.56 22.19 2.56 34.14 0 136.53-110.93 247.46-247.47 247.46-33.28-20.48-78.5-53.76-59.73-98.13 25.6-59.73 0-76.8-8.53-85.33-8.54-8.54-25.6-8.54-17.07-34.14 8.53-25.6 25.6-17.06 25.6-59.73s-68.27-34.13-59.73-8.53c8.53 25.6-8.54 59.73-42.67 85.33S45.93 255.85 63 238.79c11.95-11.95-26.45-17.92-58.03-16.22l5.12-30.72C36.55 84.33 134.68 4.12 250.73 4.12c20.48 0 40.96 2.56 60.6 7.68-5.13 23.9 11.94 34.13 11.94 42.67 0 8.53 0 51.2-17.07 51.2s-59.73 25.6-42.67 51.2c17.07 25.6 25.6 59.73 42.67 51.2 17.07-8.54 30.72-60.59 42.67-59.74 29.87 1.71 29.87 44.38 46.93 52.91 11.95 5.97 62.3 0 93.87-13.65z" transform="matrix(.06 0 0 .06 .06 .06)"/><path style="fill:#50dd8e" d="M250.73 499.05c-30.72 0-59.73-7.68-59.73-7.68C83.48 464.92 3.27 367.64 3.27 251.6c0-10.24.85-18.78 1.7-29.02 31.58-1.7 69.12 4.27 58.03 16.22-17.07 17.06-8.53 85.33 25.6 59.73s51.2-59.73 42.67-85.33c-8.54-25.6 59.73-34.14 59.73 8.53s-17.07 34.13-25.6 59.73c-8.53 25.6 8.53 25.6 17.07 34.14 8.53 8.53 34.13 25.6 8.53 85.33-18.77 44.37 26.45 77.65 59.73 98.13zm170.67-230.4c17.07 17.07-17.07 25.6-25.6 51.2-8.53 25.6-42.67 25.6-51.2 17.07-8.53-8.53-25.6-17.07-42.67-25.6-17.06-8.53 0-25.6 17.07-17.07 17.07 8.54 23.9-25.6 42.67-25.6 8.53 0 42.66-17.06 59.73 0zM261.83 406.9c8.53 8.54 17.06 25.6 8.53 34.14-8.53 8.53-25.6 8.53-34.13 0-11.95-11.95 17.06-42.67 25.6-34.14zm227.84-220.16c-31.58 13.66-81.92 19.63-93.87 13.66-17.07-8.54-17.07-51.2-46.93-52.91-11.95-.85-25.6 51.2-42.67 59.73-17.07 8.53-25.6-25.6-42.67-51.2-17.06-25.6 25.6-51.2 42.67-51.2s17.07-42.67 17.07-51.2c0-8.53-17.07-18.77-11.1-42.66 15.36 4.26 33.28 11.09 33.28 11.09 69.98 29.01 123.74 90.45 144.22 164.7z" transform="matrix(.06 0 0 .06 .06 .06)"/><path style="fill:#51565f;stroke-width:.06" d="M15.1 30.26c-.05 0-.1 0-.15-.05-1.48-.92-4.97-3.18-3.69-6.2 1.34-3.12.26-4.14-.3-4.7l-.16-.16c-.1-.1-.25-.2-.4-.26-.47-.3-1.13-.66-.67-2.05.2-.66.51-.97.77-1.22.4-.41.71-.77.71-2.26 0-.82-.46-1.17-.87-1.38-.71-.3-1.69-.15-2.05.2-.2.16-.25.36-.15.57.56 1.64-.51 3.79-2.66 5.43-1.03.76-1.64.25-1.84-.06-.77-.92-.82-3.17 0-3.94l.05-.05c-.1-.2-1.44-.51-3.13-.46-.05.51-.05.97-.05 1.49 0 6.7 4.56 12.54 11.06 14.18.15.05.2.15.2.3-.05.16-.15.21-.3.21A15.06 15.06 0 0 1 .1 13.47v-.06c0-.05.05-.05.05-.1.05-.05.05-.05.1-.05h.06c.97-.05 3.48 0 3.84.77.05.1.1.36-.16.61-.61.62-.56 2.56.05 3.23.1.1.41.51 1.18-.05C7.17 16.33 8.2 14.39 7.68 13a.97.97 0 0 1 .3-1.12 2.74 2.74 0 0 1 2.62-.3c.77.3 1.18.96 1.18 1.83 0 1.7-.46 2.15-.87 2.62-.26.25-.52.5-.67 1.07-.3.97 0 1.13.46 1.43.15.1.36.2.51.36.05.05.1.05.1.1.62.57 1.95 1.8.47 5.28-.98 2.3 1.17 4.1 3.43 5.53A14.64 14.64 0 0 0 29.59 13.2c0-.15.1-.26.2-.3.16 0 .26.1.32.2a15.17 15.17 0 0 1-15 17.15Zm.16-3.12c-.46 0-.92-.16-1.23-.46-.51-.52-.15-1.44.46-2 .2-.2.46-.41.67-.46.4-.16.66 0 .76.1.62.61 1.18 1.74.52 2.4-.26.26-.72.42-1.18.42zm.3-2.51c-.1 0-.35.1-.66.4-.26.26-.41.52-.51.77-.1.26-.05.41.05.52.4.4 1.28.4 1.69 0 .36-.36-.05-1.23-.51-1.7zm6.2-3.8c-.51 0-.97-.15-1.23-.35-.46-.46-1.48-.97-2.5-1.48-.26-.1-.42-.31-.52-.47a.65.65 0 0 1 0-.61c.26-.46 1.02-.77 1.74-.41.3.15.56-.05.97-.56.36-.46.82-.98 1.44-.98.1 0 .3-.05.56-.15.87-.26 2.36-.66 3.23.2.25.26.35.52.35.77 0 .46-.35.77-.76 1.18-.41.36-.87.82-1.03 1.38a2.23 2.23 0 0 1-1.64 1.44c-.15.05-.4.05-.61.05zm-3.12-3.01c-.31 0-.52.15-.62.3-.05.06-.05.1 0 .16.05.1.16.15.26.2 1.07.52 2.1 1.03 2.61 1.59.2.2.82.3 1.38.15.36-.1 1.03-.35 1.28-1.07a3.9 3.9 0 0 1 1.18-1.59c.3-.3.61-.61.61-.82 0-.1-.05-.25-.2-.36-.67-.66-1.9-.3-2.71-.1-.31.1-.57.16-.72.16-.41 0-.72.35-1.08.76-.4.46-.87 1.08-1.58.72a.96.96 0 0 0-.41-.1zm-.57-4.97c-.71 0-1.17-.92-1.63-1.9-.26-.45-.52-.97-.77-1.38a1.55 1.55 0 0 1-.05-1.69 4.07 4.07 0 0 1 2.81-1.79c.36 0 .77-.71.77-2.81 0-.1-.1-.26-.2-.46a2.8 2.8 0 0 1-.52-1.9A14.62 14.62 0 0 0 .97 11.57c-.05.15-.15.2-.3.2-.16-.05-.2-.15-.2-.3a15.06 15.06 0 0 1 18.32-11c.15.04.2.14.2.3-.2.82.16 1.33.41 1.79.16.26.31.46.31.72 0 2.2-.4 3.32-1.28 3.32-.61 0-1.94.67-2.4 1.54-.2.41-.2.77.05 1.18.3.46.56.97.82 1.43.61 1.23.97 1.74 1.43 1.54.46-.2.92-1.18 1.28-1.9.46-.97.87-1.69 1.38-1.69 1.23.06 1.74 1.13 2.15 2 .26.51.46 1.02.82 1.18.56.3 3.28 0 5.22-.72a14.77 14.77 0 0 0-8.5-9.47c-.15-.05-.2-.2-.15-.36.05-.15.2-.2.36-.15a15.21 15.21 0 0 1 8.86 10.03V11.36c0 .06-.05.06-.05.1l-.06.06c-1.89.82-5.01 1.23-5.83.82-.51-.26-.77-.82-1.03-1.43-.35-.82-.76-1.64-1.69-1.7-.2 0-.66.93-.92 1.44-.46.92-.92 1.84-1.53 2.15-.26 0-.41.05-.57.05z"/></svg>