<svg width="70.47" height="70.47" viewBox="0 0 18.65 18.65" xmlns="http://www.w3.org/2000/svg"><path style="fill:#f7a41f;stroke:none;stroke-width:.0651977" d="M204.74 156.8c-1.19.68-2.5 1.22-3.72 1.83-.65.33-1.38.85-2.09 1-1.21.27-2.73.03-3.97.03-.43 0-1.04-.11-1.44.04-.32.12-.54.55-.75.8-.54.68-1.17 1.35-1.6 2.1h5.48c-.69 1.38-1.96 2.69-2.9 3.9-1.57 2.02-3.08 4.1-4.62 6.14-.68.9-1.56 1.8-2.06 2.8a37.96 37.96 0 0 0 3.71-1.88c.67-.37 1.42-.87 2.16-1.08 1.17-.33 2.82-.04 4.04-.04.4 0 1.06.12 1.43-.07.56-.29 1.03-1.2 1.41-1.7.3-.38.7-.76.87-1.23h-5.47l7.07-9.26 1.83-2.41.62-.98m-18.13 2.87v12.78l1.42-.04.71-.8 1.59-2.16h-1.05v-4.7l.04-1.94.9-.41 2-2.73h-5.6m14.92 3.13h1.04v6.65l-.7.07-.74.84-1.55 2.09h5.67v-12.78l-1.43.07-.72.84z" transform="translate(-186.61 -156.8)"/></svg>