<svg width="48" height="48" viewBox="0 0 61.44 61.44" xmlns="http://www.w3.org/2000/svg"><circle cx="30.72" cy="30.72" r="30.72" style="fill:#f90;stroke-width:.06"/><path d="M15.41 38.43c.1-.15.24-.16.45-.03a30.17 30.17 0 0 0 26.02 2.02l.4-.18.37-.17c.3-.12.5-.06.68.17.15.22.11.43-.16.6a20.52 20.52 0 0 1-6.65 3.05 22.49 22.49 0 0 1-20.97-5.02c-.13-.1-.2-.2-.2-.28 0-.06.03-.12.07-.17zm8.42-7.96c0-1.29.31-2.39.95-3.3.64-.91 1.5-1.6 2.61-2.07 1.02-.43 2.25-.74 3.73-.93.5-.06 1.32-.13 2.46-.22v-.47c0-1.19-.14-2-.39-2.4-.38-.55-1-.84-1.84-.84h-.23c-.62.06-1.15.26-1.6.6-.45.34-.74.8-.86 1.4-.08.38-.27.59-.56.65l-3.23-.4c-.32-.08-.47-.23-.47-.5 0-.06 0-.11.03-.2a5.4 5.4 0 0 1 2.32-3.68 8.98 8.98 0 0 1 4.35-1.35h.69c2.11 0 3.78.56 4.98 1.65.17.2.35.39.51.62.16.2.3.4.36.57.1.18.2.42.26.73.07.33.13.54.17.66.04.13.08.38.1.78 0 .4.02.63.02.71v6.76a4.24 4.24 0 0 0 .61 2.2l.66.86c.11.17.17.33.17.46 0 .16-.08.29-.23.4a582.83 582.83 0 0 1-2.51 2.2c-.21.17-.48.18-.8.05a6.92 6.92 0 0 1-.68-.63l-.4-.45-.4-.54-.39-.56a6.86 6.86 0 0 1-3.07 2.13c-.63.2-1.4.3-2.34.3a4.9 4.9 0 0 1-3.54-1.33c-.92-.89-1.38-2.13-1.38-3.77zm4.8-.57c0 .73.18 1.31.54 1.75a1.83 1.83 0 0 0 1.74.63l.2-.03c.8-.2 1.39-.7 1.83-1.5.21-.37.37-.75.46-1.17a5 5 0 0 0 .18-1.03l.01-1.28v-.69c-1.07 0-1.9.08-2.46.23-1.63.46-2.46 1.5-2.46 3.11l-.04-.02zm11.73 9c.04-.07.1-.13.17-.21.46-.31.91-.53 1.34-.64.7-.17 1.4-.29 2.07-.31.18-.02.36 0 .53.04.83.07 1.34.21 1.5.42.07.11.11.29.11.5v.19c0 .65-.18 1.42-.53 2.3-.36.88-.86 1.6-1.49 2.15-.1.08-.18.12-.25.12-.03 0-.08 0-.11-.02-.12-.05-.14-.16-.09-.3.7-1.62 1.04-2.75 1.04-3.38 0-.2-.04-.35-.12-.44-.18-.21-.7-.33-1.56-.33-.32 0-.69.02-1.12.06l-1.28.17c-.11 0-.19-.02-.23-.05-.03-.04-.04-.06-.02-.1l.02-.08v-.07z" style="fill:#fff;stroke-width:.06"/></svg>