<svg width="48" height="67.64" xmlns="http://www.w3.org/2000/svg"><circle style="fill:#fff;fill-opacity:1;stroke-width:.779069" cx="24.57" cy="35.99" r="19.93"/><path fill="#FFF" d="M27.39 0c14.07.1 18.28 14.1 19.75 26 1.76 14.15.78 25.78-2.66 32.22-3.75 6.99-7.32 8.92-17.28 9.32-6.9.29-8.45.02-12.42-2.12-7.54-4.06-10.8-10.14-13.13-24.47C.85 36.03.12 28.1.02 23.32c-.13-5.9.28-10.16 4.7-14.94C10.83 1.8 19.75-.06 27.4 0Zm5.32 21.93c-6.3-2.3-17.86-3.46-19.3-1.04-.48.8-.85 2.37-.5 2.68.4.34 2.93-.65 2.71.32-.51 2.32-3.3 13.97-2.7 24.14 0 1.7 2.32 3.12 4.98 3.53 1.46.23.43-4.84.92-8.5 2.02 2.37 3.41 6.46 11.17 9.19 3.41.34 8.75-2.4 8.75-3.24.3-1.63-4.42-3.15-9.81-5.95-4.78-2.48-7.43-6.93-6.7-6.93 2.34 0 9.9 1.7 15.1-1.08 1.62-.87 1.89-3.63 1.41-5.82-.76-3.5-1.73-5.73-6.03-7.3zm-10.19 4.16c5.4 0 11.91 2.05 9.3 4.11-.84.66-7.18 2.44-9.7 2.44-1.23 0-.38-6.55.4-6.55z" style="fill:#2e2f2f;fill-opacity:1;stroke-width:2.18182"/></svg>