<svg width="48" height="49.71" xmlns="http://www.w3.org/2000/svg"><path style="opacity:.2;stroke-width:1.71429" d="M24 1.71a24 24 0 0 0-24 24 24 24 0 0 0 24 24 24 24 0 0 0 24-24 24 24 0 0 0-24-24Z"/><path style="fill:#38738f;stroke-width:1.71429" d="M24 0A24 24 0 0 0 0 24a24 24 0 0 0 24 24 24 24 0 0 0 24-24A24 24 0 0 0 24 0Z"/><path style="opacity:.2;stroke-width:1.71429" d="M17.14 8.57c0 .75.72 1.36 1.72 1.6v5.26h-.77c-.98.02-1.74.03-2.64.24-.91.21-1.74.39-1.74 1.53l1.2.57s.63-.47 1.2-.57a2 2 0 0 1 1.03.14v7.52l-2.57 2.57L17.14 30v9.93l2.57 2.93 2.58-2.93V17.36c.35-.13.7-.21 1.02-.16.58.1 1.2.57 1.2.57l1.2-.57c0-1.14-.82-1.32-1.73-1.53-1.14-.26-1.94-.23-3.4-.24v-5.26c.99-.24 1.7-.85 1.7-1.6zm9.7 6.86c.35.52.59 1.15.59 1.77a1.71 1.71 0 0 1-.53 1.24 5.56 5.56 0 0 1 2.24 4.5c0 3.25-1.8 3.53-5.14 4.49 2 4.89 5.99 9.22 9.93 11.46 3.37 2.03 6.45 3.47 10.64 3.97-4.62-5.65-11.83-8.13-15.43-13.72 2.41-1.26 5.15-2.35 5.15-6.52 0-3.38-3.09-7.2-5.38-7.2z"/><path style="fill:#fff;stroke-width:1.71429" d="M17.14 15.43h5.15v22.8l-2.58 2.91-2.57-2.92z"/><path style="fill:#fff;stroke-width:1.71429" d="M18.09 13.71v.01c-.98.01-1.74.03-2.64.24-.91.2-1.74.38-1.74 1.53l1.2.57s.63-.48 1.2-.57c.66-.11 1.4.26 1.98.62v.52h2.48s1.65-1.33 2.74-1.14c.58.1 1.2.57 1.2.57l1.2-.57c0-1.15-.82-1.32-1.73-1.53-1.14-.27-1.94-.23-3.4-.25h-1.72z"/><path style="fill:#fff;stroke-width:1.71429" transform="rotate(90)" d="M7.89-20.57h6.86v1.71H7.89z"/><path style="fill:#fff;stroke-width:1.71429" d="M22.29 6.86c0 .94-1.16 1.71-2.58 1.71-1.42 0-2.57-.77-2.57-1.71z"/><path style="fill:#fff;stroke-width:1.71429" transform="rotate(45)" d="M28.49 4.25h3.64v3.64h-3.64z"/><path style="fill:#fff;stroke-width:1.71429" d="M26.85 13.71c.34.52.58 1.16.58 1.78a1.71 1.71 0 0 1-.53 1.23 5.56 5.56 0 0 1 2.24 4.5c0 3.25-1.8 3.54-5.14 4.5 2 4.89 5.99 9.21 9.93 11.46 3.37 2.03 6.45 3.46 10.64 3.96-4.62-5.64-11.83-8.13-15.43-13.71 2.41-1.26 5.15-2.35 5.15-6.52 0-3.39-3.09-7.2-5.38-7.2z"/><path style="opacity:.1;fill:#fff;stroke-width:1.71429" d="M24 0A24 24 0 0 0 0 24a24 24 0 0 0 .04.71A24 24 0 0 1 24 1.71a24 24 0 0 1 23.96 23.3A24 24 0 0 0 48 24 24 24 0 0 0 24 0Z"/></svg>