<svg width="48" height="48" viewBox="0 0 1.92 1.92" fill="none" xmlns="http://www.w3.org/2000/svg"><path d="M.04 1.24A.96.96 0 1 0 1.88.68a.96.96 0 0 0-1.84.56z" fill="url(#a)" style="fill:url(#a);stroke-width:.0685726"/><path d="m.91.72-.24.35a.27.27 0 0 0-.15.04L0 .9s-.01.2.04.34l.36.15a.27.27 0 0 0 .53-.07l.34-.24a.37.37 0 0 0 0-.73C1.08.35.9.52.91.72zm-.06.7a.2.2 0 0 1-.37 0l.12.05a.15.15 0 0 0 .11-.28L.6 1.14a.2.2 0 0 1 .26.11.2.2 0 0 1 0 .16zm.42-.46a.24.24 0 1 1 0-.48.24.24 0 0 1 0 .48zM1.1.72a.18.18 0 1 1 .37 0 .18.18 0 0 1-.37 0z" fill="#fff" style="stroke-width:.0685726"/><defs><linearGradient id="a" x1="16.01" y1="2" x2="16.01" y2="30" gradientUnits="userSpaceOnUse" gradientTransform="matrix(.06857 0 0 .06857 -.14 -.14)"><stop stop-color="#111D2E"/><stop offset=".21" stop-color="#051839"/><stop offset=".41" stop-color="#0A1B48"/><stop offset=".58" stop-color="#132E62"/><stop offset=".74" stop-color="#144B7E"/><stop offset=".87" stop-color="#136497"/><stop offset="1" stop-color="#1387B8"/></linearGradient></defs></svg>